<svg xmlns="http://www.w3.org/2000/svg" xmlns:xlink="http://www.w3.org/1999/xlink" contentStyleType="text/css" data-diagram-type="CLASS" height="588px" preserveAspectRatio="none" style="width:1019px;height:588px;background:#FFFFFF;" version="1.1" viewBox="0 0 1019 588" width="1019px" zoomAndPan="magnify"><defs/><g><!--cluster api--><g class="cluster" data-entity="api" data-source-line="2" data-uid="ent0002" id="cluster_api"><path d="M17.5,6.602 L39.8884,6.602 A3.75,3.75 0 0 1 42.3884,9.102 L49.3884,31.6699 L681.5,31.6699 A2.5,2.5 0 0 1 684,34.1699 L684,163.302 A2.5,2.5 0 0 1 681.5,165.802 L17.5,165.802 A2.5,2.5 0 0 1 15,163.302 L15,9.102 A2.5,2.5 0 0 1 17.5,6.602" fill="none" style="stroke:#000000;stroke-width:1.5;"/><line style="stroke:#000000;stroke-width:1.5;" x1="15" x2="49.3884" y1="31.6699" y2="31.6699"/><text fill="#000000" font-family="sans-serif" font-size="14" font-weight="bold" lengthAdjust="spacing" textLength="21.3884" x="19" y="23.5679">api</text></g><!--cluster services--><g class="cluster" data-entity="services" data-source-line="13" data-uid="ent0005" id="cluster_services"><path d="M8.5,221.412 L65.4298,221.412 A3.75,3.75 0 0 1 67.9298,223.912 L74.9298,246.4799 L399.5,246.4799 A2.5,2.5 0 0 1 402,248.9799 L402,359.042 A2.5,2.5 0 0 1 399.5,361.542 L8.5,361.542 A2.5,2.5 0 0 1 6,359.042 L6,223.912 A2.5,2.5 0 0 1 8.5,221.412" fill="none" style="stroke:#000000;stroke-width:1.5;"/><line style="stroke:#000000;stroke-width:1.5;" x1="6" x2="74.9298" y1="246.4799" y2="246.4799"/><text fill="#000000" font-family="sans-serif" font-size="14" font-weight="bold" lengthAdjust="spacing" textLength="55.9298" x="10" y="238.3779">services</text></g><!--cluster domain--><g class="cluster" data-entity="domain" data-source-line="19" data-uid="ent0007" id="cluster_domain"><path d="M710.5,9.432 L764.4128,9.432 A3.75,3.75 0 0 1 766.9128,11.932 L773.9128,34.4999 L1009.5,34.4999 A2.5,2.5 0 0 1 1012,36.9999 L1012,387.642 A2.5,2.5 0 0 1 1009.5,390.142 L710.5,390.142 A2.5,2.5 0 0 1 708,387.642 L708,11.932 A2.5,2.5 0 0 1 710.5,9.432" fill="none" style="stroke:#000000;stroke-width:1.5;"/><line style="stroke:#000000;stroke-width:1.5;" x1="708" x2="773.9128" y1="34.4999" y2="34.4999"/><text fill="#000000" font-family="sans-serif" font-size="14" font-weight="bold" lengthAdjust="spacing" textLength="52.9128" x="712" y="26.3979">domain</text></g><!--cluster repositories--><g class="cluster" data-entity="repositories" data-source-line="33" data-uid="ent0010" id="cluster_repositories"><path d="M44.5,441.142 L129.3457,441.142 A3.75,3.75 0 0 1 131.8457,443.642 L138.8457,466.2099 L363.5,466.2099 A2.5,2.5 0 0 1 366,468.7099 L366,578.782 A2.5,2.5 0 0 1 363.5,581.282 L44.5,581.282 A2.5,2.5 0 0 1 42,578.782 L42,443.642 A2.5,2.5 0 0 1 44.5,441.142" fill="none" style="stroke:#000000;stroke-width:1.5;"/><line style="stroke:#000000;stroke-width:1.5;" x1="42" x2="138.8457" y1="466.2099" y2="466.2099"/><text fill="#000000" font-family="sans-serif" font-size="14" font-weight="bold" lengthAdjust="spacing" textLength="83.8457" x="46" y="458.1079">repositories</text></g><!--class MaintenanceRecordController--><g class="entity" data-entity="MaintenanceRecordController" data-source-line="3" data-uid="ent0003" id="entity_MaintenanceRecordController"><rect fill="#F1F1F1" height="86.1358" rx="2.5" ry="2.5" style="stroke:#181818;stroke-width:0.5;" width="345.2128" x="31.39" y="54.132"/><ellipse cx="100.7948" cy="70.132" fill="#ADD1B2" rx="11" ry="11" style="stroke:#181818;stroke-width:1;"/><path d="M100.9041,65.6632 Q99.9823,65.6632 99.2479,65.9757 Q98.5291,66.2882 98.0291,66.882 Q97.5291,67.4601 97.2479,68.3351 Q96.9823,69.2101 96.9823,70.3039 Q96.9823,71.7414 97.4198,72.7882 Q97.8729,73.8351 98.7166,74.382 Q99.576,74.9289 100.8885,74.9289 Q101.6698,74.9289 102.3573,74.8039 Q103.0604,74.6632 104.0604,74.3507 L104.0604,76.2257 Q103.201,76.5539 102.4354,76.6789 Q101.6854,76.8039 100.6698,76.8039 Q98.7479,76.8039 97.4354,76.007 Q96.1385,75.1945 95.4823,73.7257 Q94.826,72.2414 94.826,70.2726 Q94.826,68.8507 95.2166,67.6789 Q95.6229,66.4914 96.4041,65.6164 Q97.1854,64.7414 98.326,64.2726 Q99.4666,63.7882 100.9354,63.7882 Q101.8885,63.7882 102.7791,63.9914 Q103.6854,64.1789 104.6229,64.6476 L103.7948,66.4289 Q103.0135,66.0539 102.3573,65.8664 Q101.701,65.6632 100.9041,65.6632 Z " fill="#000000"/><text fill="#000000" font-family="sans-serif" font-size="14" lengthAdjust="spacing" textLength="197.9032" x="121.2948" y="75.564">MaintenanceRecordController</text><line style="stroke:#181818;stroke-width:0.5;" x1="32.39" x2="375.6028" y1="86.132" y2="86.132"/><line style="stroke:#181818;stroke-width:0.5;" x1="32.39" x2="375.6028" y1="94.132" y2="94.132"/><ellipse cx="42.39" cy="118.6999" fill="#84BE84" rx="3" ry="3" style="stroke:#038048;stroke-width:1;"/><text fill="#000000" font-family="sans-serif" font-size="14" lengthAdjust="spacing" textLength="319.2128" x="51.39" y="113.0979">searchRecords(registrationNumber, component,</text><text fill="#000000" font-family="sans-serif" font-size="14" lengthAdjust="spacing" textLength="165.6054" x="51.39" y="132.1658">from, to): ResponseEntity</text></g><!--class MaintenanceRecordResponseDTO--><g class="entity" data-entity="MaintenanceRecordResponseDTO" data-source-line="6" data-uid="ent0004" id="entity_MaintenanceRecordResponseDTO"><rect fill="#F1F1F1" height="105.2038" rx="2.5" ry="2.5" style="stroke:#181818;stroke-width:0.5;" width="256.3071" x="411.85" y="44.602"/><ellipse cx="426.85" cy="60.602" fill="#ADD1B2" rx="11" ry="11" style="stroke:#181818;stroke-width:1;"/><path d="M426.9594,56.1332 Q426.0375,56.1332 425.3031,56.4457 Q424.5844,56.7582 424.0844,57.352 Q423.5844,57.9301 423.3031,58.8051 Q423.0375,59.6801 423.0375,60.7739 Q423.0375,62.2114 423.475,63.2582 Q423.9281,64.3051 424.7719,64.852 Q425.6313,65.3989 426.9438,65.3989 Q427.725,65.3989 428.4125,65.2739 Q429.1156,65.1332 430.1156,64.8207 L430.1156,66.6957 Q429.2563,67.0239 428.4906,67.1489 Q427.7406,67.2739 426.725,67.2739 Q424.8031,67.2739 423.4906,66.477 Q422.1938,65.6645 421.5375,64.1957 Q420.8813,62.7114 420.8813,60.7426 Q420.8813,59.3207 421.2719,58.1489 Q421.6781,56.9614 422.4594,56.0864 Q423.2406,55.2114 424.3813,54.7426 Q425.5219,54.2582 426.9906,54.2582 Q427.9438,54.2582 428.8344,54.4614 Q429.7406,54.6489 430.6781,55.1176 L429.85,56.8989 Q429.0688,56.5239 428.4125,56.3364 Q427.7563,56.1332 426.9594,56.1332 Z " fill="#000000"/><text fill="#000000" font-family="sans-serif" font-size="14" lengthAdjust="spacing" textLength="224.3071" x="440.85" y="66.034">MaintenanceRecordResponseDTO</text><line style="stroke:#181818;stroke-width:0.5;" x1="412.85" x2="667.1571" y1="76.602" y2="76.602"/><rect fill="none" height="6" style="stroke:#C82930;stroke-width:1;" width="6" x="419.85" y="88.6359"/><text fill="#000000" font-family="sans-serif" font-size="14" lengthAdjust="spacing" textLength="178.5413" x="431.85" y="95.5679">registrationNumber: String</text><rect fill="none" height="6" style="stroke:#C82930;stroke-width:1;" width="6" x="419.85" y="107.7039"/><text fill="#000000" font-family="sans-serif" font-size="14" lengthAdjust="spacing" textLength="122.4015" x="431.85" y="114.6358">component: String</text><rect fill="none" height="6" style="stroke:#C82930;stroke-width:1;" width="6" x="419.85" y="126.7718"/><text fill="#000000" font-family="sans-serif" font-size="14" lengthAdjust="spacing" textLength="133.8815" x="431.85" y="133.7038">startDate: LocalDate</text><line style="stroke:#181818;stroke-width:0.5;" x1="412.85" x2="667.1571" y1="141.8057" y2="141.8057"/></g><!--class MaintenanceRecordService--><g class="entity" data-entity="MaintenanceRecordService" data-source-line="14" data-uid="ent0006" id="entity_MaintenanceRecordService"><rect fill="#F1F1F1" height="86.1358" rx="2.5" ry="2.5" style="stroke:#181818;stroke-width:0.5;" width="363.7347" x="22.13" y="259.412"/><ellipse cx="110.5327" cy="275.412" fill="#ADD1B2" rx="11" ry="11" style="stroke:#181818;stroke-width:1;"/><path d="M110.6421,270.9432 Q109.7202,270.9432 108.9858,271.2557 Q108.2671,271.5682 107.7671,272.162 Q107.2671,272.7401 106.9858,273.6151 Q106.7202,274.4901 106.7202,275.5839 Q106.7202,277.0214 107.1577,278.0682 Q107.6108,279.1151 108.4546,279.662 Q109.314,280.2089 110.6265,280.2089 Q111.4077,280.2089 112.0952,280.0839 Q112.7983,279.9432 113.7983,279.6307 L113.7983,281.5057 Q112.939,281.8339 112.1733,281.9589 Q111.4233,282.0839 110.4077,282.0839 Q108.4858,282.0839 107.1733,281.287 Q105.8765,280.4745 105.2202,279.0057 Q104.564,277.5214 104.564,275.5526 Q104.564,274.1307 104.9546,272.9589 Q105.3608,271.7714 106.1421,270.8964 Q106.9233,270.0214 108.064,269.5526 Q109.2046,269.0682 110.6733,269.0682 Q111.6265,269.0682 112.5171,269.2714 Q113.4233,269.4589 114.3608,269.9276 L113.5327,271.7089 Q112.7515,271.3339 112.0952,271.1464 Q111.439,270.9432 110.6421,270.9432 Z " fill="#000000"/><text fill="#000000" font-family="sans-serif" font-size="14" lengthAdjust="spacing" textLength="178.4293" x="131.0327" y="280.844">MaintenanceRecordService</text><line style="stroke:#181818;stroke-width:0.5;" x1="23.13" x2="384.8647" y1="291.412" y2="291.412"/><line style="stroke:#181818;stroke-width:0.5;" x1="23.13" x2="384.8647" y1="299.412" y2="299.412"/><ellipse cx="33.13" cy="323.9799" fill="#84BE84" rx="3" ry="3" style="stroke:#038048;stroke-width:1;"/><text fill="#000000" font-family="sans-serif" font-size="14" lengthAdjust="spacing" textLength="337.7347" x="42.13" y="318.3779">searchRecords(registrationNumber, componentStr,</text><text fill="#000000" font-family="sans-serif" font-size="14" lengthAdjust="spacing" textLength="235.1151" x="42.13" y="337.4458">from, to): List&lt;MaintenanceRecord&gt;</text></g><!--class MaintenanceRecord--><g class="entity" data-entity="MaintenanceRecord" data-source-line="20" data-uid="ent0008" id="entity_MaintenanceRecord"><rect fill="#F1F1F1" height="99.5479" rx="2.5" ry="2.5" style="stroke:#181818;stroke-width:0.5;" width="272.287" x="723.86" y="47.432"/><ellipse cx="789.8908" cy="70.138" fill="#ADD1B2" rx="11" ry="11" style="stroke:#181818;stroke-width:1;"/><path d="M790.0002,65.6692 Q789.0783,65.6692 788.3439,65.9817 Q787.6252,66.2942 787.1252,66.888 Q786.6252,67.4661 786.3439,68.3411 Q786.0783,69.2161 786.0783,70.3099 Q786.0783,71.7474 786.5158,72.7942 Q786.9689,73.8411 787.8127,74.388 Q788.672,74.9349 789.9845,74.9349 Q790.7658,74.9349 791.4533,74.8099 Q792.1564,74.6692 793.1564,74.3567 L793.1564,76.2317 Q792.297,76.5599 791.5314,76.6849 Q790.7814,76.8099 789.7658,76.8099 Q787.8439,76.8099 786.5314,76.013 Q785.2345,75.2005 784.5783,73.7317 Q783.922,72.2474 783.922,70.2786 Q783.922,68.8567 784.3127,67.6849 Q784.7189,66.4974 785.5002,65.6224 Q786.2814,64.7474 787.422,64.2786 Q788.5627,63.7942 790.0314,63.7942 Q790.9845,63.7942 791.8752,63.9974 Q792.7814,64.1849 793.7189,64.6536 L792.8908,66.4349 Q792.1095,66.0599 791.4533,65.8724 Q790.797,65.6692 790.0002,65.6692 Z " fill="#000000"/><text fill="#000000" font-family="sans-serif" font-size="12" font-style="italic" lengthAdjust="spacing" textLength="41.2323" x="855.6374" y="65.2601">&#171;Entity&#187;</text><text fill="#000000" font-family="sans-serif" font-size="14" lengthAdjust="spacing" textLength="131.7255" x="810.3908" y="83.742">MaintenanceRecord</text><line style="stroke:#181818;stroke-width:0.5;" x1="724.86" x2="995.147" y1="92.844" y2="92.844"/><rect fill="none" height="6" style="stroke:#C82930;stroke-width:1;" width="6" x="731.86" y="104.878"/><text fill="#000000" font-family="sans-serif" font-size="14" lengthAdjust="spacing" textLength="133.8815" x="743.86" y="111.8099">startDate: LocalDate</text><rect fill="none" height="6" style="stroke:#C82930;stroke-width:1;" width="6" x="731.86" y="123.9459"/><text fill="#000000" font-family="sans-serif" font-size="14" lengthAdjust="spacing" textLength="246.287" x="743.86" y="130.8779">component: MaintenanceComponent</text><line style="stroke:#181818;stroke-width:0.5;" x1="724.86" x2="995.147" y1="138.9798" y2="138.9798"/></g><!--class MaintenanceComponent--><g class="entity" data-entity="MaintenanceComponent" data-source-line="24" data-uid="ent0009" id="entity_MaintenanceComponent"><rect fill="#F1F1F1" height="143.3396" rx="2.5" ry="2.5" style="stroke:#181818;stroke-width:0.5;" width="195.2814" x="762.36" y="230.802"/><ellipse cx="777.36" cy="246.802" fill="#EB937F" rx="11" ry="11" style="stroke:#181818;stroke-width:1;"/><path d="M780.8288,253.302 L773.5163,253.302 L773.5163,240.6301 L780.8288,240.6301 L780.8288,242.5051 L775.5631,242.5051 L775.5631,245.7707 L780.5163,245.7707 L780.5163,247.6301 L775.5631,247.6301 L775.5631,251.427 L780.8288,251.427 L780.8288,253.302 Z " fill="#000000"/><text fill="#000000" font-family="sans-serif" font-size="14" lengthAdjust="spacing" textLength="163.2814" x="791.36" y="252.234">MaintenanceComponent</text><line style="stroke:#181818;stroke-width:0.5;" x1="763.36" x2="956.6414" y1="262.802" y2="262.802"/><text fill="#000000" font-family="sans-serif" font-size="14" lengthAdjust="spacing" textLength="51.7858" x="768.36" y="281.7679">ENGINE</text><text fill="#000000" font-family="sans-serif" font-size="14" lengthAdjust="spacing" textLength="67.8017" x="768.36" y="300.8358">AIRFRAME</text><text fill="#000000" font-family="sans-serif" font-size="14" lengthAdjust="spacing" textLength="64.9458" x="768.36" y="319.9038">AVIONICS</text><text fill="#000000" font-family="sans-serif" font-size="14" lengthAdjust="spacing" textLength="64.0497" x="768.36" y="338.9717">INTERIOR</text><text fill="#000000" font-family="sans-serif" font-size="14" lengthAdjust="spacing" textLength="64.6517" x="768.36" y="358.0396">EXTERIOR</text><line style="stroke:#181818;stroke-width:0.5;" x1="763.36" x2="956.6414" y1="366.1416" y2="366.1416"/></g><!--class MaintenanceRecordRepository--><g class="entity" data-entity="MaintenanceRecordRepository" data-source-line="34" data-uid="ent0011" id="entity_MaintenanceRecordRepository"><rect fill="#F1F1F1" height="86.1358" rx="2.5" ry="2.5" style="stroke:#181818;stroke-width:0.5;" width="292.321" x="57.84" y="479.142"/><ellipse cx="105.3628" cy="495.142" fill="#B4A7E5" rx="11" ry="11" style="stroke:#181818;stroke-width:1;"/><path d="M107.4566,501.642 L102.5503,501.642 L102.5503,500.267 L103.9722,499.9545 L103.9722,490.6732 L102.5503,490.3295 L102.5503,488.9701 L107.4566,488.9701 L107.4566,490.3295 L106.0347,490.6732 L106.0347,499.9545 L107.4566,500.267 L107.4566,501.642 Z " fill="#000000"/><text fill="#000000" font-family="sans-serif" font-size="14" font-style="italic" lengthAdjust="spacing" textLength="188.7753" x="125.8628" y="500.574">MaintenanceRecordRepository</text><line style="stroke:#181818;stroke-width:0.5;" x1="58.84" x2="349.161" y1="511.142" y2="511.142"/><line style="stroke:#181818;stroke-width:0.5;" x1="58.84" x2="349.161" y1="519.142" y2="519.142"/><ellipse cx="68.84" cy="543.7099" fill="#84BE84" rx="3" ry="3" style="stroke:#038048;stroke-width:1;"/><text fill="#000000" font-family="sans-serif" font-size="14" lengthAdjust="spacing" textLength="266.321" x="77.84" y="538.1079">search(registrationNumber, component,</text><text fill="#000000" font-family="sans-serif" font-size="14" lengthAdjust="spacing" textLength="235.1151" x="77.84" y="557.1758">from, to): List&lt;MaintenanceRecord&gt;</text></g><!--link MaintenanceRecordController to MaintenanceRecordService--><g class="link" data-entity-1="MaintenanceRecordController" data-entity-2="MaintenanceRecordService" data-source-line="39" data-uid="lnk12" id="link_MaintenanceRecordController_MaintenanceRecordService"><path codeLine="39" d="M204,140.322 C204,175.092 204,218.212 204,253.062" fill="none" id="MaintenanceRecordController-to-MaintenanceRecordService" style="stroke:#181818;stroke-width:1;stroke-dasharray:7,7;"/><polygon fill="#181818" points="204,259.062,208,250.062,204,254.062,200,250.062,204,259.062" style="stroke:#181818;stroke-width:1;"/><text fill="#000000" font-family="sans-serif" font-size="13" lengthAdjust="spacing" textLength="75.4911" x="205" y="196.699">delegates to</text></g><!--link MaintenanceRecordService to MaintenanceRecordRepository--><g class="link" data-entity-1="MaintenanceRecordService" data-entity-2="MaintenanceRecordRepository" data-source-line="40" data-uid="lnk13" id="link_MaintenanceRecordService_MaintenanceRecordRepository"><path codeLine="40" d="M204,345.972 C204,384.342 204,434.492 204,472.822" fill="none" id="MaintenanceRecordService-to-MaintenanceRecordRepository" style="stroke:#181818;stroke-width:1;stroke-dasharray:7,7;"/><polygon fill="#181818" points="204,478.822,208,469.822,204,473.822,200,469.822,204,478.822" style="stroke:#181818;stroke-width:1;"/><text fill="#000000" font-family="sans-serif" font-size="13" lengthAdjust="spacing" textLength="27.82" x="205" y="421.039">uses</text></g><!--link MaintenanceRecord to MaintenanceComponent--><g class="link" data-entity-1="MaintenanceRecord" data-entity-2="MaintenanceComponent" data-source-line="41" data-uid="lnk14" id="link_MaintenanceRecord_MaintenanceComponent"><path codeLine="41" d="M860,147.412 C860,172.322 860,197.012 860,224.432" fill="none" id="MaintenanceRecord-to-MaintenanceComponent" style="stroke:#181818;stroke-width:1;"/><polygon fill="#181818" points="860,230.432,864,221.432,860,225.432,856,221.432,860,230.432" style="stroke:#181818;stroke-width:1;"/><text fill="#000000" font-family="sans-serif" font-size="13" lengthAdjust="spacing" textLength="89.5831" x="861" y="196.699">categorized by</text></g><!--SRC=[dLDTQy9047pFhrXyQgdw0u84HDCIq0XHIX_wSbwswT7aBkoU1LlyxpthrqcYqjvJCfdiJ6OsjP0Vea3eY5fru3i0TsGfc64gbBQeXPQOeJIKZuosPCeIQS_RdWTW52JVTnI-8omKMn9M6PskgYLI5wIfQgDHs-whVYDJTS6Q-n0oP0Spnjegk_wTkBccV-2F5pFFG0-QaY7CBIbTUAIZXvPdR0NPiR0OmiH8KMulztOsGL0V4cAaJoMHRyGqtz7-cv5pTnxJn7473PMenM1kAaUxOGy6WrtWKNIMuiKG6lbv8qS7r6iFzQfgvNXoSVgKfF7nTfXaZzbmwW7FoInDHlCZaAIBE4jcsMd2YmUSnq1O6rRMa3frjNL3RyBLqh9MU_gwfRA_xFFDegxzKVr-T7cLGiYnnC8rmaugkCXh7U9zNmWhHcw-3xrUr5vP2DAf5YxBBynXkGv-0000]--></g></svg>