<svg xmlns="http://www.w3.org/2000/svg" xmlns:xlink="http://www.w3.org/1999/xlink" contentStyleType="text/css" data-diagram-type="SEQUENCE" height="491px" preserveAspectRatio="none" style="width:1079px;height:491px;background:#FFFFFF;" version="1.1" viewBox="0 0 1079 491" width="1079px" zoomAndPan="magnify"><defs/><g><g><title>ATCC</title><rect fill="#FFFFFF" height="296.5703" style="stroke:#181818;stroke-width:1;" width="10" x="22.0552" y="93.6211"/></g><g><title>.FlightRouteController</title><rect fill="#FFFFFF" height="273.2793" style="stroke:#181818;stroke-width:1;" width="10" x="276.0977" y="116.9121"/></g><g><title>.FlightRouteService</title><rect fill="#FFFFFF" height="93.873" style="stroke:#181818;stroke-width:1;" width="10" x="429.2661" y="148.2031"/></g><g><title>routeRepository</title><rect fill="#FFFFFF" height="31.291" style="stroke:#181818;stroke-width:1;" width="10" x="604.5786" y="179.4941"/></g><g><title>ATCC</title><rect fill="#000000" fill-opacity="0.00000" height="324.5703" width="8" x="23.0552" y="83.6211"/><line style="stroke:#181818;stroke-width:0.5;stroke-dasharray:5,5;" x1="27" x2="27" y1="83.6211" y2="408.1914"/></g><g><title>.FlightRouteController</title><rect fill="#000000" fill-opacity="0.00000" height="324.5703" width="8" x="277.0977" y="83.6211"/><line style="stroke:#181818;stroke-width:0.5;stroke-dasharray:5,5;" x1="281.0117" x2="281.0117" y1="83.6211" y2="408.1914"/></g><g><title>.FlightRouteService</title><rect fill="#000000" fill-opacity="0.00000" height="324.5703" width="8" x="430.2661" y="83.6211"/><line style="stroke:#181818;stroke-width:0.5;stroke-dasharray:5,5;" x1="434.1836" x2="434.1836" y1="83.6211" y2="408.1914"/></g><g><title>routeRepository</title><rect fill="#000000" fill-opacity="0.00000" height="324.5703" width="8" x="605.5786" y="83.6211"/><line style="stroke:#181818;stroke-width:0.5;stroke-dasharray:5,5;" x1="609.3789" x2="609.3789" y1="83.6211" y2="408.1914"/></g><g><title>route</title><rect fill="#000000" fill-opacity="0.00000" height="324.5703" width="8" x="738.5195" y="83.6211"/><line style="stroke:#181818;stroke-width:0.5;stroke-dasharray:5,5;" x1="741.7783" x2="741.7783" y1="83.6211" y2="408.1914"/></g><g><title>dto</title><rect fill="#000000" fill-opacity="0.00000" height="116.9941" width="8" x="884.2983" y="291.1973"/><line style="stroke:#181818;stroke-width:0.5;stroke-dasharray:5,5;" x1="888.2607" x2="888.2607" y1="291.1973" y2="408.1914"/></g><g class="participant participant-head" data-participant="Actor"><text fill="#000000" font-family="sans-serif" font-size="14" lengthAdjust="spacing" textLength="38.1104" x="5" y="80.1074">ATCC</text><ellipse cx="27.0552" cy="13.5" fill="#E2E2F0" rx="8" ry="8" style="stroke:#181818;stroke-width:0.5;"/><path d="M27.0552,21.5 L27.0552,48.5 M14.0552,29.5 L40.0552,29.5 M27.0552,48.5 L14.0552,63.5 M27.0552,48.5 L40.0552,63.5" fill="none" style="stroke:#181818;stroke-width:0.5;"/></g><g class="participant participant-tail" data-participant="Actor"><text fill="#000000" font-family="sans-serif" font-size="14" lengthAdjust="spacing" textLength="38.1104" x="5" y="422.2988">ATCC</text><ellipse cx="27.0552" cy="434.3125" fill="#E2E2F0" rx="8" ry="8" style="stroke:#181818;stroke-width:0.5;"/><path d="M27.0552,442.3125 L27.0552,469.3125 M14.0552,450.3125 L40.0552,450.3125 M27.0552,469.3125 L14.0552,484.3125 M27.0552,469.3125 L40.0552,484.3125" fill="none" style="stroke:#181818;stroke-width:0.5;"/></g><g class="participant participant-head" data-participant="Ctrl"><rect fill="#E2E2F0" height="32.6211" rx="2.5" ry="2.5" style="stroke:#181818;stroke-width:0.5;" width="150.1719" x="206.0117" y="50"/><text fill="#000000" font-family="sans-serif" font-size="14" lengthAdjust="spacing" textLength="136.1719" x="213.0117" y="72.1074">:FlightRouteController</text></g><g class="participant participant-tail" data-participant="Ctrl"><rect fill="#E2E2F0" height="32.6211" rx="2.5" ry="2.5" style="stroke:#181818;stroke-width:0.5;" width="150.1719" x="206.0117" y="407.1914"/><text fill="#000000" font-family="sans-serif" font-size="14" lengthAdjust="spacing" textLength="136.1719" x="213.0117" y="429.2988">:FlightRouteController</text></g><g class="participant participant-head" data-participant="Service"><rect fill="#E2E2F0" height="32.6211" rx="2.5" ry="2.5" style="stroke:#181818;stroke-width:0.5;" width="136.165" x="366.1836" y="50"/><text fill="#000000" font-family="sans-serif" font-size="14" lengthAdjust="spacing" textLength="122.165" x="373.1836" y="72.1074">:FlightRouteService</text></g><g class="participant participant-tail" data-participant="Service"><rect fill="#E2E2F0" height="32.6211" rx="2.5" ry="2.5" style="stroke:#181818;stroke-width:0.5;" width="136.165" x="366.1836" y="407.1914"/><text fill="#000000" font-family="sans-serif" font-size="14" lengthAdjust="spacing" textLength="122.165" x="373.1836" y="429.2988">:FlightRouteService</text></g><g class="participant participant-head" data-participant="Repo"><rect fill="#E2E2F0" height="51.2422" rx="2.5" ry="2.5" style="stroke:#181818;stroke-width:0.5;" width="156.3994" x="531.3789" y="31.3789"/><text fill="#000000" font-family="sans-serif" font-size="14" lengthAdjust="spacing" textLength="98.8271" x="560.165" y="53.4863">routeRepository</text><text fill="#000000" font-family="sans-serif" font-size="14" lengthAdjust="spacing" textLength="142.3994" x="538.3789" y="72.1074">:FlightRouteRepository</text></g><g class="participant participant-tail" data-participant="Repo"><rect fill="#E2E2F0" height="51.2422" rx="2.5" ry="2.5" style="stroke:#181818;stroke-width:0.5;" width="156.3994" x="531.3789" y="407.1914"/><text fill="#000000" font-family="sans-serif" font-size="14" lengthAdjust="spacing" textLength="98.8271" x="560.165" y="429.2988">routeRepository</text><text fill="#000000" font-family="sans-serif" font-size="14" lengthAdjust="spacing" textLength="142.3994" x="538.3789" y="447.9199">:FlightRouteRepository</text></g><g class="participant participant-head" data-participant="Route"><rect fill="#E2E2F0" height="51.2422" rx="2.5" ry="2.5" style="stroke:#181818;stroke-width:0.5;" width="89.4824" x="697.7783" y="31.3789"/><text fill="#000000" font-family="sans-serif" font-size="14" lengthAdjust="spacing" textLength="31.9102" x="726.5645" y="53.4863">route</text><text fill="#000000" font-family="sans-serif" font-size="14" lengthAdjust="spacing" textLength="75.4824" x="704.7783" y="72.1074">:FlightRoute</text></g><g class="participant participant-tail" data-participant="Route"><rect fill="#E2E2F0" height="51.2422" rx="2.5" ry="2.5" style="stroke:#181818;stroke-width:0.5;" width="89.4824" x="697.7783" y="407.1914"/><text fill="#000000" font-family="sans-serif" font-size="14" lengthAdjust="spacing" textLength="31.9102" x="726.5645" y="429.2988">route</text><text fill="#000000" font-family="sans-serif" font-size="14" lengthAdjust="spacing" textLength="75.4824" x="704.7783" y="447.9199">:FlightRoute</text></g><g class="participant participant-tail" data-participant="DTO"><rect fill="#E2E2F0" height="51.2422" rx="2.5" ry="2.5" style="stroke:#181818;stroke-width:0.5;" width="182.0752" x="797.2607" y="407.1914"/><text fill="#000000" font-family="sans-serif" font-size="14" lengthAdjust="spacing" textLength="19.4619" x="878.5674" y="429.2988">dto</text><text fill="#000000" font-family="sans-serif" font-size="14" lengthAdjust="spacing" textLength="168.0752" x="804.2607" y="447.9199">:FlightRouteResponseDTO</text></g><g><title>ATCC</title><rect fill="#FFFFFF" height="296.5703" style="stroke:#181818;stroke-width:1;" width="10" x="22.0552" y="93.6211"/></g><g><title>.FlightRouteController</title><rect fill="#FFFFFF" height="273.2793" style="stroke:#181818;stroke-width:1;" width="10" x="276.0977" y="116.9121"/></g><g><title>.FlightRouteService</title><rect fill="#FFFFFF" height="93.873" style="stroke:#181818;stroke-width:1;" width="10" x="429.2661" y="148.2031"/></g><g><title>routeRepository</title><rect fill="#FFFFFF" height="31.291" style="stroke:#181818;stroke-width:1;" width="10" x="604.5786" y="179.4941"/></g><g class="message" data-participant-1="Actor" data-participant-2="Ctrl"><polygon fill="#181818" points="264.0977,112.9121,274.0977,116.9121,264.0977,120.9121,268.0977,116.9121" style="stroke:#181818;stroke-width:1;"/><line style="stroke:#181818;stroke-width:1;" x1="32.0552" x2="270.0977" y1="116.9121" y2="116.9121"/><text fill="#000000" font-family="sans-serif" font-size="13" font-weight="bold" lengthAdjust="spacing" textLength="7.23" x="39.0552" y="111.6494">1</text><text fill="#000000" font-family="sans-serif" font-size="13" lengthAdjust="spacing" textLength="145.2407" x="50.2852" y="111.6494">GET /api/flight-routes/{id}</text></g><g class="message" data-participant-1="Ctrl" data-participant-2="Service"><polygon fill="#181818" points="417.2661,144.2031,427.2661,148.2031,417.2661,152.2031,421.2661,148.2031" style="stroke:#181818;stroke-width:1;"/><line style="stroke:#181818;stroke-width:1;" x1="286.0977" x2="423.2661" y1="148.2031" y2="148.2031"/><text fill="#000000" font-family="sans-serif" font-size="13" font-weight="bold" lengthAdjust="spacing" textLength="7.23" x="293.0977" y="142.9404">2</text><text fill="#000000" font-family="sans-serif" font-size="13" lengthAdjust="spacing" textLength="97.5508" x="304.3276" y="142.9404">getRouteById(id)</text></g><g class="message" data-participant-1="Service" data-participant-2="Repo"><polygon fill="#181818" points="592.5786,175.4941,602.5786,179.4941,592.5786,183.4941,596.5786,179.4941" style="stroke:#181818;stroke-width:1;"/><line style="stroke:#181818;stroke-width:1;" x1="439.2661" x2="598.5786" y1="179.4941" y2="179.4941"/><text fill="#000000" font-family="sans-serif" font-size="13" font-weight="bold" lengthAdjust="spacing" textLength="7.23" x="446.2661" y="174.2314">3</text><text fill="#000000" font-family="sans-serif" font-size="13" lengthAdjust="spacing" textLength="65.749" x="457.4961" y="174.2314">findById(id)</text></g><g class="message" data-participant-1="Repo" data-participant-2="Service"><polygon fill="#181818" points="450.2661,206.7852,440.2661,210.7852,450.2661,214.7852,446.2661,210.7852" style="stroke:#181818;stroke-width:1;"/><line style="stroke:#181818;stroke-width:1;stroke-dasharray:2,2;" x1="444.2661" x2="608.5786" y1="210.7852" y2="210.7852"/><text fill="#000000" font-family="sans-serif" font-size="13" font-weight="bold" lengthAdjust="spacing" textLength="7.23" x="456.2661" y="205.5225">4</text><text fill="#000000" font-family="sans-serif" font-size="13" lengthAdjust="spacing" textLength="130.0825" x="467.4961" y="205.5225">Optional&lt;FlightRoute&gt;</text></g><g class="message" data-participant-1="Service" data-participant-2="Ctrl"><polygon fill="#181818" points="297.0977,238.0762,287.0977,242.0762,297.0977,246.0762,293.0977,242.0762" style="stroke:#181818;stroke-width:1;"/><line style="stroke:#181818;stroke-width:1;stroke-dasharray:2,2;" x1="291.0977" x2="433.2661" y1="242.0762" y2="242.0762"/><text fill="#000000" font-family="sans-serif" font-size="13" font-weight="bold" lengthAdjust="spacing" textLength="7.23" x="303.0977" y="236.8135">5</text><text fill="#000000" font-family="sans-serif" font-size="13" lengthAdjust="spacing" textLength="29.6309" x="314.3276" y="236.8135">route</text></g><g class="message" data-participant-1="Ctrl" data-participant-2="DTO"><polygon fill="#181818" points="785.2607,269.3672,795.2607,273.3672,785.2607,277.3672,789.2607,273.3672" style="stroke:#181818;stroke-width:1;"/><line style="stroke:#181818;stroke-width:1;" x1="286.0977" x2="791.2607" y1="273.3672" y2="273.3672"/><text fill="#000000" font-family="sans-serif" font-size="13" font-weight="bold" lengthAdjust="spacing" textLength="7.23" x="293.0977" y="268.1045">6</text><text fill="#000000" font-family="sans-serif" font-size="13" lengthAdjust="spacing" textLength="74.4199" x="304.3276" y="268.1045">create(route)</text></g><rect fill="#E2E2F0" height="51.2422" rx="2.5" ry="2.5" style="stroke:#181818;stroke-width:0.5;" width="182.0752" x="797.2607" y="250.0762"/><text fill="#000000" font-family="sans-serif" font-size="14" lengthAdjust="spacing" textLength="19.4619" x="878.5674" y="272.1836">dto</text><text fill="#000000" font-family="sans-serif" font-size="14" lengthAdjust="spacing" textLength="168.0752" x="804.2607" y="290.8047">:FlightRouteResponseDTO</text><path d="M893,317.3184 L893,361.3184 L1072,361.3184 L1072,327.3184 L1062,317.3184 L893,317.3184" fill="#FEFFDD" style="stroke:#181818;stroke-width:0.5;"/><path d="M1062,317.3184 L1062,327.3184 L1072,327.3184 L1062,317.3184" fill="#FEFFDD" style="stroke:#181818;stroke-width:0.5;"/><text fill="#000000" font-family="sans-serif" font-size="13" lengthAdjust="spacing" textLength="158.228" x="899" y="336.3467">Maps domain entity to DTO</text><text fill="#000000" font-family="sans-serif" font-size="13" lengthAdjust="spacing" textLength="156.0762" x="899" y="353.6377">and adds HATEOAS _links</text><g class="message" data-participant-1="Ctrl" data-participant-2="Actor"><polygon fill="#181818" points="38.0552,386.1914,28.0552,390.1914,38.0552,394.1914,34.0552,390.1914" style="stroke:#181818;stroke-width:1;"/><line style="stroke:#181818;stroke-width:1;stroke-dasharray:2,2;" x1="32.0552" x2="280.0977" y1="390.1914" y2="390.1914"/><text fill="#000000" font-family="sans-serif" font-size="13" font-weight="bold" lengthAdjust="spacing" textLength="7.23" x="44.0552" y="384.9287">7</text><text fill="#000000" font-family="sans-serif" font-size="13" lengthAdjust="spacing" textLength="208.8125" x="55.2852" y="384.9287">200 OK (FlightRouteResponseDTO)</text></g><!--SRC=[TL5DQy904BtlhnWygI1AZw48QMe_A2MWEGfbcrtjqBYxx8w2bFxtPiTeajPU9ZExxytRzoBtPCr-zwwza2LP3uEqoB81o01fd8MJdh149mt187ceSFj1IxiddLb3tbQLzepEo5V_WrVQ7x3KZ6pwFjX7r58x6x1MFQvDbzsUyu8uNc7tEITaxFfGHVRtyk2i2Vg-o9bJVqNC0W-IT1C2LvZCsMK2Zui2fjBXTCDh9YmVfb-elbic1o9YZSJ6T09RVPAzEpwh8QfHIpZd8fecqgBL13Per5yynn0BJBe2kIEqHbQt7OzpeNIVrufSNB6BBl3oeBE9EfhnE87Iw_fwoFYHCBQ6-YW5TXCX2RnA5q3PdKG3sX3I4SZ6gxMHHe5KAi1JMYpoT0Ll5PhFSDQeHJZh16vcCyXVO7ZzJuswx-IaEpDl-040]--></g></svg>