<svg xmlns="http://www.w3.org/2000/svg" xmlns:xlink="http://www.w3.org/1999/xlink" contentStyleType="text/css" data-diagram-type="CLASS" height="867px" preserveAspectRatio="none" style="width:1935px;height:867px;background:#FFFFFF;" version="1.1" viewBox="0 0 1935 867" width="1935px" zoomAndPan="magnify"><defs/><g><!--cluster api--><g class="cluster" data-entity="api" data-source-line="2" data-uid="ent0002" id="cluster_api"><path d="M8.5,6.602 L30.8884,6.602 A3.75,3.75 0 0 1 33.3884,9.102 L40.3884,31.6699 L872.5,31.6699 A2.5,2.5 0 0 1 875,34.1699 L875,653.162 A2.5,2.5 0 0 1 872.5,655.662 L8.5,655.662 A2.5,2.5 0 0 1 6,653.162 L6,9.102 A2.5,2.5 0 0 1 8.5,6.602" fill="none" style="stroke:#000000;stroke-width:1.5;"/><line style="stroke:#000000;stroke-width:1.5;" x1="6" x2="40.3884" y1="31.6699" y2="31.6699"/><text fill="#000000" font-family="sans-serif" font-size="14" font-weight="bold" lengthAdjust="spacing" textLength="21.3884" x="10" y="23.5679">api</text></g><!--cluster services--><g class="cluster" data-entity="services" data-source-line="28" data-uid="ent0007" id="cluster_services"><path d="M1131.5,195.742 L1188.4298,195.742 A3.75,3.75 0 0 1 1190.9298,198.242 L1197.9298,220.8099 L1564.5,220.8099 A2.5,2.5 0 0 1 1567,223.3099 L1567,352.442 A2.5,2.5 0 0 1 1564.5,354.942 L1131.5,354.942 A2.5,2.5 0 0 1 1129,352.442 L1129,198.242 A2.5,2.5 0 0 1 1131.5,195.742" fill="none" style="stroke:#000000;stroke-width:1.5;"/><line style="stroke:#000000;stroke-width:1.5;" x1="1129" x2="1197.9298" y1="220.8099" y2="220.8099"/><text fill="#000000" font-family="sans-serif" font-size="14" font-weight="bold" lengthAdjust="spacing" textLength="55.9298" x="1133" y="212.7079">services</text></g><!--cluster domain--><g class="cluster" data-entity="domain" data-source-line="35" data-uid="ent0009" id="cluster_domain"><path d="M901.5,423.012 L955.4128,423.012 A3.75,3.75 0 0 1 957.9128,425.512 L964.9128,448.0799 L1318.5,448.0799 A2.5,2.5 0 0 1 1321,450.5799 L1321,858.432 A2.5,2.5 0 0 1 1318.5,860.932 L901.5,860.932 A2.5,2.5 0 0 1 899,858.432 L899,425.512 A2.5,2.5 0 0 1 901.5,423.012" fill="none" style="stroke:#000000;stroke-width:1.5;"/><line style="stroke:#000000;stroke-width:1.5;" x1="899" x2="964.9128" y1="448.0799" y2="448.0799"/><text fill="#000000" font-family="sans-serif" font-size="14" font-weight="bold" lengthAdjust="spacing" textLength="52.9128" x="903" y="439.9779">domain</text></g><!--cluster repositories--><g class="cluster" data-entity="repositories" data-source-line="56" data-uid="ent0013" id="cluster_repositories"><path d="M1347.5,477.392 L1432.3457,477.392 A3.75,3.75 0 0 1 1434.8457,479.892 L1441.8457,502.4599 L1925.5,502.4599 A2.5,2.5 0 0 1 1928,504.9599 L1928,595.952 A2.5,2.5 0 0 1 1925.5,598.452 L1347.5,598.452 A2.5,2.5 0 0 1 1345,595.952 L1345,479.892 A2.5,2.5 0 0 1 1347.5,477.392" fill="none" style="stroke:#000000;stroke-width:1.5;"/><line style="stroke:#000000;stroke-width:1.5;" x1="1345" x2="1441.8457" y1="502.4599" y2="502.4599"/><text fill="#000000" font-family="sans-serif" font-size="14" font-weight="bold" lengthAdjust="spacing" textLength="83.8457" x="1349" y="494.3579">repositories</text></g><!--class MaintenanceTemplateController--><g class="entity" data-entity="MaintenanceTemplateController" data-source-line="3" data-uid="ent0003" id="entity_MaintenanceTemplateController"><rect fill="#F1F1F1" height="86.1358" rx="2.5" ry="2.5" style="stroke:#181818;stroke-width:0.5;" width="494.8582" x="336.57" y="44.602"/><ellipse cx="472.9925" cy="60.602" fill="#ADD1B2" rx="11" ry="11" style="stroke:#181818;stroke-width:1;"/><path d="M473.1019,56.1332 Q472.18,56.1332 471.4456,56.4457 Q470.7269,56.7582 470.2269,57.352 Q469.7269,57.9301 469.4456,58.8051 Q469.18,59.6801 469.18,60.7739 Q469.18,62.2114 469.6175,63.2582 Q470.0706,64.3051 470.9144,64.852 Q471.7738,65.3989 473.0863,65.3989 Q473.8675,65.3989 474.555,65.2739 Q475.2581,65.1332 476.2581,64.8207 L476.2581,66.6957 Q475.3988,67.0239 474.6331,67.1489 Q473.8831,67.2739 472.8675,67.2739 Q470.9456,67.2739 469.6331,66.477 Q468.3363,65.6645 467.68,64.1957 Q467.0238,62.7114 467.0238,60.7426 Q467.0238,59.3207 467.4144,58.1489 Q467.8206,56.9614 468.6019,56.0864 Q469.3831,55.2114 470.5238,54.7426 Q471.6644,54.2582 473.1331,54.2582 Q474.0863,54.2582 474.9769,54.4614 Q475.8831,54.6489 476.8206,55.1176 L475.9925,56.8989 Q475.2113,56.5239 474.555,56.3364 Q473.8988,56.1332 473.1019,56.1332 Z " fill="#000000"/><text fill="#000000" font-family="sans-serif" font-size="14" lengthAdjust="spacing" textLength="213.5132" x="493.4925" y="66.034">MaintenanceTemplateController</text><line style="stroke:#181818;stroke-width:0.5;" x1="337.57" x2="830.4282" y1="76.602" y2="76.602"/><line style="stroke:#181818;stroke-width:0.5;" x1="337.57" x2="830.4282" y1="84.602" y2="84.602"/><ellipse cx="347.57" cy="99.6359" fill="#84BE84" rx="3" ry="3" style="stroke:#038048;stroke-width:1;"/><text fill="#000000" font-family="sans-serif" font-size="14" lengthAdjust="spacing" textLength="468.8582" x="356.57" y="103.5679">createTemplate(dto: CreateMaintenanceTemplateDTO): ResponseEntity</text><rect fill="#F24D5C" height="6" style="stroke:#C82930;stroke-width:1;" width="6" x="344.57" y="115.7039"/><text fill="#000000" font-family="sans-serif" font-size="14" lengthAdjust="spacing" textLength="321.0048" x="356.57" y="122.6358">parseTemplateType(value: String): TemplateType</text></g><!--class CreateMaintenanceTemplateDTO--><g class="entity" data-entity="CreateMaintenanceTemplateDTO" data-source-line="7" data-uid="ent0004" id="entity_CreateMaintenanceTemplateDTO"><rect fill="#F1F1F1" height="143.3396" rx="2.5" ry="2.5" style="stroke:#181818;stroke-width:0.5;" width="251.6031" x="22.2" y="214.672"/><ellipse cx="37.2" cy="230.672" fill="#ADD1B2" rx="11" ry="11" style="stroke:#181818;stroke-width:1;"/><path d="M37.3094,226.2032 Q36.3875,226.2032 35.6531,226.5157 Q34.9344,226.8282 34.4344,227.422 Q33.9344,228.0001 33.6531,228.8751 Q33.3875,229.7501 33.3875,230.8439 Q33.3875,232.2814 33.825,233.3282 Q34.2781,234.3751 35.1219,234.922 Q35.9813,235.4689 37.2938,235.4689 Q38.075,235.4689 38.7625,235.3439 Q39.4656,235.2032 40.4656,234.8907 L40.4656,236.7657 Q39.6063,237.0939 38.8406,237.2189 Q38.0906,237.3439 37.075,237.3439 Q35.1531,237.3439 33.8406,236.547 Q32.5438,235.7345 31.8875,234.2657 Q31.2313,232.7814 31.2313,230.8126 Q31.2313,229.3907 31.6219,228.2189 Q32.0281,227.0314 32.8094,226.1564 Q33.5906,225.2814 34.7313,224.8126 Q35.8719,224.3282 37.3406,224.3282 Q38.2938,224.3282 39.1844,224.5314 Q40.0906,224.7189 41.0281,225.1876 L40.2,226.9689 Q39.4188,226.5939 38.7625,226.4064 Q38.1063,226.2032 37.3094,226.2032 Z " fill="#000000"/><text fill="#000000" font-family="sans-serif" font-size="14" lengthAdjust="spacing" textLength="219.6031" x="51.2" y="236.104">CreateMaintenanceTemplateDTO</text><line style="stroke:#181818;stroke-width:0.5;" x1="23.2" x2="272.8031" y1="246.672" y2="246.672"/><rect fill="none" height="6" style="stroke:#C82930;stroke-width:1;" width="6" x="30.2" y="258.7059"/><text fill="#000000" font-family="sans-serif" font-size="14" lengthAdjust="spacing" textLength="145.3335" x="42.2" y="265.6379">templateName: String</text><rect fill="none" height="6" style="stroke:#C82930;stroke-width:1;" width="6" x="30.2" y="277.7739"/><text fill="#000000" font-family="sans-serif" font-size="14" lengthAdjust="spacing" textLength="137.2835" x="42.2" y="284.7058">templateType: String</text><rect fill="none" height="6" style="stroke:#C82930;stroke-width:1;" width="6" x="30.2" y="296.8418"/><text fill="#000000" font-family="sans-serif" font-size="14" lengthAdjust="spacing" textLength="199.6252" x="42.2" y="303.7738">defaultDurationHours: Double</text><rect fill="none" height="6" style="stroke:#C82930;stroke-width:1;" width="6" x="30.2" y="315.9097"/><text fill="#000000" font-family="sans-serif" font-size="14" lengthAdjust="spacing" textLength="207.5212" x="42.2" y="322.8417">applicableModelIds: List&lt;Long&gt;</text><rect fill="none" height="6" style="stroke:#C82930;stroke-width:1;" width="6" x="30.2" y="334.9776"/><text fill="#000000" font-family="sans-serif" font-size="14" lengthAdjust="spacing" textLength="179.4513" x="42.2" y="341.9096">checklistItems: List&lt;String&gt;</text><line style="stroke:#181818;stroke-width:0.5;" x1="23.2" x2="272.8031" y1="350.0116" y2="350.0116"/></g><!--class MaintenanceTemplateResponseDTO--><g class="entity" data-entity="MaintenanceTemplateResponseDTO" data-source-line="14" data-uid="ent0005" id="entity_MaintenanceTemplateResponseDTO"><rect fill="#F1F1F1" height="181.4754" rx="2.5" ry="2.5" style="stroke:#181818;stroke-width:0.5;" width="271.9171" x="448.04" y="458.182"/><ellipse cx="463.04" cy="474.182" fill="#ADD1B2" rx="11" ry="11" style="stroke:#181818;stroke-width:1;"/><path d="M463.1494,469.7132 Q462.2275,469.7132 461.4931,470.0257 Q460.7744,470.3382 460.2744,470.932 Q459.7744,471.5101 459.4931,472.3851 Q459.2275,473.2601 459.2275,474.3539 Q459.2275,475.7914 459.665,476.8382 Q460.1181,477.8851 460.9619,478.432 Q461.8213,478.9789 463.1338,478.9789 Q463.915,478.9789 464.6025,478.8539 Q465.3056,478.7132 466.3056,478.4007 L466.3056,480.2757 Q465.4463,480.6039 464.6806,480.7289 Q463.9306,480.8539 462.915,480.8539 Q460.9931,480.8539 459.6806,480.057 Q458.3838,479.2445 457.7275,477.7757 Q457.0713,476.2914 457.0713,474.3226 Q457.0713,472.9007 457.4619,471.7289 Q457.8681,470.5414 458.6494,469.6664 Q459.4306,468.7914 460.5713,468.3226 Q461.7119,467.8382 463.1806,467.8382 Q464.1338,467.8382 465.0244,468.0414 Q465.9306,468.2289 466.8681,468.6976 L466.04,470.4789 Q465.2588,470.1039 464.6025,469.9164 Q463.9463,469.7132 463.1494,469.7132 Z " fill="#000000"/><text fill="#000000" font-family="sans-serif" font-size="14" lengthAdjust="spacing" textLength="239.9171" x="477.04" y="479.614">MaintenanceTemplateResponseDTO</text><line style="stroke:#181818;stroke-width:0.5;" x1="449.04" x2="718.9571" y1="490.182" y2="490.182"/><rect fill="none" height="6" style="stroke:#C82930;stroke-width:1;" width="6" x="456.04" y="502.2159"/><text fill="#000000" font-family="sans-serif" font-size="14" lengthAdjust="spacing" textLength="52.6818" x="468.04" y="509.1479">id: Long</text><rect fill="none" height="6" style="stroke:#C82930;stroke-width:1;" width="6" x="456.04" y="521.2839"/><text fill="#000000" font-family="sans-serif" font-size="14" lengthAdjust="spacing" textLength="145.3335" x="468.04" y="528.2158">templateName: String</text><rect fill="none" height="6" style="stroke:#C82930;stroke-width:1;" width="6" x="456.04" y="540.3518"/><text fill="#000000" font-family="sans-serif" font-size="14" lengthAdjust="spacing" textLength="137.2835" x="468.04" y="547.2838">templateType: String</text><rect fill="none" height="6" style="stroke:#C82930;stroke-width:1;" width="6" x="456.04" y="559.4197"/><text fill="#000000" font-family="sans-serif" font-size="14" lengthAdjust="spacing" textLength="199.6252" x="468.04" y="566.3517">defaultDurationHours: Double</text><rect fill="none" height="6" style="stroke:#C82930;stroke-width:1;" width="6" x="456.04" y="578.4876"/><text fill="#000000" font-family="sans-serif" font-size="14" lengthAdjust="spacing" textLength="239.9731" x="468.04" y="585.4196">applicableModelNames: List&lt;String&gt;</text><rect fill="none" height="6" style="stroke:#C82930;stroke-width:1;" width="6" x="456.04" y="597.5555"/><text fill="#000000" font-family="sans-serif" font-size="14" lengthAdjust="spacing" textLength="220.8631" x="468.04" y="604.4875">checklist: List&lt;ChecklistItemDTO&gt;</text><rect fill="none" height="6" style="stroke:#C82930;stroke-width:1;" width="6" x="456.04" y="616.6234"/><text fill="#000000" font-family="sans-serif" font-size="14" lengthAdjust="spacing" textLength="88.6897" x="468.04" y="623.5554">version: Long</text><line style="stroke:#181818;stroke-width:0.5;" x1="449.04" x2="718.9571" y1="631.6574" y2="631.6574"/></g><!--class MaintenanceTemplateModelAssembler--><g class="entity" data-entity="MaintenanceTemplateModelAssembler" data-source-line="23" data-uid="ent0006" id="entity_MaintenanceTemplateModelAssembler"><rect fill="#F1F1F1" height="67.0679" rx="2.5" ry="2.5" style="stroke:#181818;stroke-width:0.5;" width="550.312" x="308.84" y="252.812"/><ellipse cx="450.8135" cy="268.812" fill="#ADD1B2" rx="11" ry="11" style="stroke:#181818;stroke-width:1;"/><path d="M450.9229,264.3432 Q450.001,264.3432 449.2666,264.6557 Q448.5479,264.9682 448.0479,265.562 Q447.5479,266.1401 447.2666,267.0151 Q447.001,267.8901 447.001,268.9839 Q447.001,270.4214 447.4385,271.4682 Q447.8916,272.5151 448.7354,273.062 Q449.5948,273.6089 450.9073,273.6089 Q451.6885,273.6089 452.376,273.4839 Q453.0791,273.3432 454.0791,273.0307 L454.0791,274.9057 Q453.2198,275.2339 452.4541,275.3589 Q451.7041,275.4839 450.6885,275.4839 Q448.7666,275.4839 447.4541,274.687 Q446.1573,273.8745 445.501,272.4057 Q444.8448,270.9214 444.8448,268.9526 Q444.8448,267.5307 445.2354,266.3589 Q445.6416,265.1714 446.4229,264.2964 Q447.2041,263.4214 448.3448,262.9526 Q449.4854,262.4682 450.9541,262.4682 Q451.9073,262.4682 452.7979,262.6714 Q453.7041,262.8589 454.6416,263.3276 L453.8135,265.1089 Q453.0323,264.7339 452.376,264.5464 Q451.7198,264.3432 450.9229,264.3432 Z " fill="#000000"/><text fill="#000000" font-family="sans-serif" font-size="14" lengthAdjust="spacing" textLength="257.865" x="471.3135" y="274.244">MaintenanceTemplateModelAssembler</text><line style="stroke:#181818;stroke-width:0.5;" x1="309.84" x2="858.152" y1="284.812" y2="284.812"/><line style="stroke:#181818;stroke-width:0.5;" x1="309.84" x2="858.152" y1="292.812" y2="292.812"/><ellipse cx="319.84" cy="307.8459" fill="#84BE84" rx="3" ry="3" style="stroke:#038048;stroke-width:1;"/><text fill="#000000" font-family="sans-serif" font-size="14" lengthAdjust="spacing" textLength="524.312" x="328.84" y="311.7779">toModel(template: MaintenanceTemplate): MaintenanceTemplateResponseDTO</text></g><!--class MaintenanceTemplateService--><g class="entity" data-entity="MaintenanceTemplateService" data-source-line="29" data-uid="ent0008" id="entity_MaintenanceTemplateService"><rect fill="#F1F1F1" height="105.2038" rx="2.5" ry="2.5" style="stroke:#181818;stroke-width:0.5;" width="406.7566" x="1144.62" y="233.742"/><ellipse cx="1246.7287" cy="249.742" fill="#ADD1B2" rx="11" ry="11" style="stroke:#181818;stroke-width:1;"/><path d="M1246.838,245.2732 Q1245.9162,245.2732 1245.1818,245.5857 Q1244.463,245.8982 1243.963,246.492 Q1243.463,247.0701 1243.1818,247.9451 Q1242.9162,248.8201 1242.9162,249.9139 Q1242.9162,251.3514 1243.3537,252.3982 Q1243.8068,253.4451 1244.6505,253.992 Q1245.5099,254.5389 1246.8224,254.5389 Q1247.6037,254.5389 1248.2912,254.4139 Q1248.9943,254.2732 1249.9943,253.9607 L1249.9943,255.8357 Q1249.1349,256.1639 1248.3693,256.2889 Q1247.6193,256.4139 1246.6037,256.4139 Q1244.6818,256.4139 1243.3693,255.617 Q1242.0724,254.8045 1241.4162,253.3357 Q1240.7599,251.8514 1240.7599,249.8826 Q1240.7599,248.4607 1241.1505,247.2889 Q1241.5568,246.1014 1242.338,245.2264 Q1243.1193,244.3514 1244.2599,243.8826 Q1245.4005,243.3982 1246.8693,243.3982 Q1247.8224,243.3982 1248.713,243.6014 Q1249.6193,243.7889 1250.5568,244.2576 L1249.7287,246.0389 Q1248.9474,245.6639 1248.2912,245.4764 Q1247.6349,245.2732 1246.838,245.2732 Z " fill="#000000"/><text fill="#000000" font-family="sans-serif" font-size="14" lengthAdjust="spacing" textLength="194.0392" x="1267.2287" y="255.174">MaintenanceTemplateService</text><line style="stroke:#181818;stroke-width:0.5;" x1="1145.62" x2="1550.3766" y1="265.742" y2="265.742"/><line style="stroke:#181818;stroke-width:0.5;" x1="1145.62" x2="1550.3766" y1="273.742" y2="273.742"/><ellipse cx="1155.62" cy="298.3099" fill="#84BE84" rx="3" ry="3" style="stroke:#038048;stroke-width:1;"/><text fill="#000000" font-family="sans-serif" font-size="14" lengthAdjust="spacing" textLength="248.611" x="1164.62" y="292.7079">createTemplate(name, type, duration,</text><text fill="#000000" font-family="sans-serif" font-size="14" lengthAdjust="spacing" textLength="284.5069" x="1164.62" y="311.7758">modelIds, checklist): MaintenanceTemplate</text><rect fill="#F24D5C" height="6" style="stroke:#C82930;stroke-width:1;" width="6" x="1152.62" y="323.9118"/><text fill="#000000" font-family="sans-serif" font-size="14" lengthAdjust="spacing" textLength="380.7566" x="1164.62" y="330.8438">resolveModels(modelIds: List&lt;Long&gt;): List&lt;AircraftModel&gt;</text></g><!--class MaintenanceTemplate--><g class="entity" data-entity="MaintenanceTemplate" data-source-line="36" data-uid="ent0010" id="entity_MaintenanceTemplate"><rect fill="#F1F1F1" height="175.8195" rx="2.5" ry="2.5" style="stroke:#181818;stroke-width:0.5;" width="276.9491" x="1028.53" y="461.012"/><ellipse cx="1089.0868" cy="483.718" fill="#ADD1B2" rx="11" ry="11" style="stroke:#181818;stroke-width:1;"/><path d="M1089.1962,479.2492 Q1088.2743,479.2492 1087.5399,479.5617 Q1086.8212,479.8742 1086.3212,480.468 Q1085.8212,481.0461 1085.5399,481.9211 Q1085.2743,482.7961 1085.2743,483.8899 Q1085.2743,485.3274 1085.7118,486.3742 Q1086.1649,487.4211 1087.0087,487.968 Q1087.8681,488.5149 1089.1806,488.5149 Q1089.9618,488.5149 1090.6493,488.3899 Q1091.3524,488.2492 1092.3524,487.9367 L1092.3524,489.8117 Q1091.4931,490.1399 1090.7274,490.2649 Q1089.9774,490.3899 1088.9618,490.3899 Q1087.0399,490.3899 1085.7274,489.593 Q1084.4306,488.7805 1083.7743,487.3117 Q1083.1181,485.8274 1083.1181,483.8586 Q1083.1181,482.4367 1083.5087,481.2649 Q1083.9149,480.0774 1084.6962,479.2024 Q1085.4774,478.3274 1086.6181,477.8586 Q1087.7587,477.3742 1089.2274,477.3742 Q1090.1806,477.3742 1091.0712,477.5774 Q1091.9774,477.7649 1092.9149,478.2336 L1092.0868,480.0149 Q1091.3056,479.6399 1090.6493,479.4524 Q1089.9931,479.2492 1089.1962,479.2492 Z " fill="#000000"/><text fill="#000000" font-family="sans-serif" font-size="12" font-style="italic" lengthAdjust="spacing" textLength="41.2323" x="1162.6384" y="478.8401">&#171;Entity&#187;</text><text fill="#000000" font-family="sans-serif" font-size="14" lengthAdjust="spacing" textLength="147.3354" x="1109.5868" y="497.322">MaintenanceTemplate</text><line style="stroke:#181818;stroke-width:0.5;" x1="1029.53" x2="1304.4791" y1="506.424" y2="506.424"/><rect fill="none" height="6" style="stroke:#C82930;stroke-width:1;" width="6" x="1036.53" y="518.458"/><text fill="#000000" font-family="sans-serif" font-size="14" lengthAdjust="spacing" textLength="145.3335" x="1048.53" y="525.3899">templateName: String</text><rect fill="none" height="6" style="stroke:#C82930;stroke-width:1;" width="6" x="1036.53" y="537.5259"/><text fill="#000000" font-family="sans-serif" font-size="14" lengthAdjust="spacing" textLength="191.1133" x="1048.53" y="544.4579">templateType: TemplateType</text><rect fill="none" height="6" style="stroke:#C82930;stroke-width:1;" width="6" x="1036.53" y="556.5938"/><text fill="#000000" font-family="sans-serif" font-size="14" lengthAdjust="spacing" textLength="199.6252" x="1048.53" y="563.5258">defaultDurationHours: Double</text><rect fill="none" height="6" style="stroke:#C82930;stroke-width:1;" width="6" x="1036.53" y="575.6617"/><text fill="#000000" font-family="sans-serif" font-size="14" lengthAdjust="spacing" textLength="250.9491" x="1048.53" y="582.5937">applicableModels: List&lt;AircraftModel&gt;</text><rect fill="none" height="6" style="stroke:#C82930;stroke-width:1;" width="6" x="1036.53" y="594.7296"/><text fill="#000000" font-family="sans-serif" font-size="14" lengthAdjust="spacing" textLength="191.9252" x="1048.53" y="601.6616">checklist: List&lt;ChecklistItem&gt;</text><rect fill="none" height="6" style="stroke:#C82930;stroke-width:1;" width="6" x="1036.53" y="613.7976"/><text fill="#000000" font-family="sans-serif" font-size="14" lengthAdjust="spacing" textLength="88.6897" x="1048.53" y="620.7295">version: Long</text><line style="stroke:#181818;stroke-width:0.5;" x1="1029.53" x2="1304.4791" y1="628.8315" y2="628.8315"/></g><!--class ChecklistItem--><g class="entity" data-entity="ChecklistItem" data-source-line="44" data-uid="ent0011" id="entity_ChecklistItem"><rect fill="#F1F1F1" height="99.5479" rx="2.5" ry="2.5" style="stroke:#181818;stroke-width:0.5;" width="156.9135" x="914.54" y="733.022"/><ellipse cx="945.5383" cy="755.728" fill="#ADD1B2" rx="11" ry="11" style="stroke:#181818;stroke-width:1;"/><path d="M945.6477,751.2592 Q944.7258,751.2592 943.9915,751.5717 Q943.2727,751.8842 942.7727,752.478 Q942.2727,753.0561 941.9915,753.9311 Q941.7258,754.8061 941.7258,755.8999 Q941.7258,757.3374 942.1633,758.3842 Q942.6165,759.4311 943.4602,759.978 Q944.3196,760.5249 945.6321,760.5249 Q946.4133,760.5249 947.1008,760.3999 Q947.804,760.2592 948.804,759.9467 L948.804,761.8217 Q947.9446,762.1499 947.179,762.2749 Q946.429,762.3999 945.4133,762.3999 Q943.4915,762.3999 942.179,761.603 Q940.8821,760.7905 940.2258,759.3217 Q939.5696,757.8374 939.5696,755.8686 Q939.5696,754.4467 939.9602,753.2749 Q940.3665,752.0874 941.1477,751.2124 Q941.929,750.3374 943.0696,749.8686 Q944.2102,749.3842 945.679,749.3842 Q946.6321,749.3842 947.5227,749.5874 Q948.429,749.7749 949.3665,750.2436 L948.5383,752.0249 Q947.7571,751.6499 947.1008,751.4624 Q946.4446,751.2592 945.6477,751.2592 Z " fill="#000000"/><text fill="#000000" font-family="sans-serif" font-size="12" font-style="italic" lengthAdjust="spacing" textLength="75.0245" x="970.2621" y="750.8501">&#171;ValueObject&#187;</text><text fill="#000000" font-family="sans-serif" font-size="14" lengthAdjust="spacing" textLength="89.3616" x="963.0935" y="769.332">ChecklistItem</text><line style="stroke:#181818;stroke-width:0.5;" x1="915.54" x2="1070.4535" y1="778.434" y2="778.434"/><rect fill="none" height="6" style="stroke:#C82930;stroke-width:1;" width="6" x="922.54" y="790.468"/><text fill="#000000" font-family="sans-serif" font-size="14" lengthAdjust="spacing" textLength="120.5116" x="934.54" y="797.3999">description: String</text><rect fill="none" height="6" style="stroke:#C82930;stroke-width:1;" width="6" x="922.54" y="809.5359"/><text fill="#000000" font-family="sans-serif" font-size="14" lengthAdjust="spacing" textLength="130.9135" x="934.54" y="816.4679">completed: boolean</text><line style="stroke:#181818;stroke-width:0.5;" x1="915.54" x2="1070.4535" y1="824.5698" y2="824.5698"/></g><!--class TemplateType--><g class="entity" data-entity="TemplateType" data-source-line="48" data-uid="ent0012" id="entity_TemplateType"><rect fill="#F1F1F1" height="124.2717" rx="2.5" ry="2.5" style="stroke:#181818;stroke-width:0.5;" width="198.1572" x="1106.92" y="720.662"/><ellipse cx="1155.1358" cy="736.662" fill="#EB937F" rx="11" ry="11" style="stroke:#181818;stroke-width:1;"/><path d="M1158.6046,743.162 L1151.2921,743.162 L1151.2921,730.4901 L1158.6046,730.4901 L1158.6046,732.3651 L1153.3389,732.3651 L1153.3389,735.6307 L1158.2921,735.6307 L1158.2921,737.4901 L1153.3389,737.4901 L1153.3389,741.287 L1158.6046,741.287 L1158.6046,743.162 Z " fill="#000000"/><text fill="#000000" font-family="sans-serif" font-size="14" lengthAdjust="spacing" textLength="93.2256" x="1175.6358" y="742.094">TemplateType</text><line style="stroke:#181818;stroke-width:0.5;" x1="1107.92" x2="1304.0772" y1="752.662" y2="752.662"/><text fill="#000000" font-family="sans-serif" font-size="14" lengthAdjust="spacing" textLength="82.2777" x="1112.92" y="771.6279">INSPECTION</text><text fill="#000000" font-family="sans-serif" font-size="14" lengthAdjust="spacing" textLength="186.1572" x="1112.92" y="790.6958">SCHEDULED_MAINTENANCE</text><text fill="#000000" font-family="sans-serif" font-size="14" lengthAdjust="spacing" textLength="72.7157" x="1112.92" y="809.7638">OVERHAUL</text><text fill="#000000" font-family="sans-serif" font-size="14" lengthAdjust="spacing" textLength="102.5076" x="1112.92" y="828.8317">MODIFICATION</text><line style="stroke:#181818;stroke-width:0.5;" x1="1107.92" x2="1304.0772" y1="836.9336" y2="836.9336"/></g><!--class MaintenanceTemplateRepository--><g class="entity" data-entity="MaintenanceTemplateRepository" data-source-line="57" data-uid="ent0014" id="entity_MaintenanceTemplateRepository"><rect fill="#F1F1F1" height="67.0679" rx="2.5" ry="2.5" style="stroke:#181818;stroke-width:0.5;" width="334.5308" x="1360.73" y="515.392"/><ellipse cx="1422.0358" cy="531.392" fill="#B4A7E5" rx="11" ry="11" style="stroke:#181818;stroke-width:1;"/><path d="M1424.1295,537.892 L1419.2233,537.892 L1419.2233,536.517 L1420.6452,536.2045 L1420.6452,526.9232 L1419.2233,526.5795 L1419.2233,525.2201 L1424.1295,525.2201 L1424.1295,526.5795 L1422.7077,526.9232 L1422.7077,536.2045 L1424.1295,536.517 L1424.1295,537.892 Z " fill="#000000"/><text fill="#000000" font-family="sans-serif" font-size="14" font-style="italic" lengthAdjust="spacing" textLength="203.4193" x="1442.5358" y="536.824">MaintenanceTemplateRepository</text><line style="stroke:#181818;stroke-width:0.5;" x1="1361.73" x2="1694.2608" y1="547.392" y2="547.392"/><line style="stroke:#181818;stroke-width:0.5;" x1="1361.73" x2="1694.2608" y1="555.392" y2="555.392"/><ellipse cx="1371.73" cy="570.4259" fill="#84BE84" rx="3" ry="3" style="stroke:#038048;stroke-width:1;"/><text fill="#000000" font-family="sans-serif" font-size="14" lengthAdjust="spacing" textLength="308.5308" x="1380.73" y="574.3579">existsByTemplateName(name: String): boolean</text></g><!--class AircraftModelRepository--><g class="entity" data-entity="AircraftModelRepository" data-source-line="60" data-uid="ent0015" id="entity_AircraftModelRepository"><rect fill="#F1F1F1" height="48" rx="2.5" ry="2.5" style="stroke:#181818;stroke-width:0.5;" width="181.6734" x="1730.16" y="524.922"/><ellipse cx="1745.16" cy="540.922" fill="#B4A7E5" rx="11" ry="11" style="stroke:#181818;stroke-width:1;"/><path d="M1747.2538,547.422 L1742.3475,547.422 L1742.3475,546.047 L1743.7694,545.7345 L1743.7694,536.4532 L1742.3475,536.1095 L1742.3475,534.7501 L1747.2538,534.7501 L1747.2538,536.1095 L1745.8319,536.4532 L1745.8319,545.7345 L1747.2538,546.047 L1747.2538,547.422 Z " fill="#000000"/><text fill="#000000" font-family="sans-serif" font-size="14" font-style="italic" lengthAdjust="spacing" textLength="149.6734" x="1759.16" y="546.354">AircraftModelRepository</text><line style="stroke:#181818;stroke-width:0.5;" x1="1731.16" x2="1910.8334" y1="556.922" y2="556.922"/><line style="stroke:#181818;stroke-width:0.5;" x1="1731.16" x2="1910.8334" y1="564.922" y2="564.922"/></g><!--link MaintenanceTemplateController to CreateMaintenanceTemplateDTO--><g class="link" data-entity-1="MaintenanceTemplateController" data-entity-2="CreateMaintenanceTemplateDTO" data-source-line="63" data-uid="lnk16" id="link_MaintenanceTemplateController_CreateMaintenanceTemplateDTO"><path codeLine="63" d="M432.51,131.172 C386.03,146.502 335.45,165.582 291,187.742 C275.53,195.452 264.8649,201.4053 249.7649,210.9953" fill="none" id="MaintenanceTemplateController-to-CreateMaintenanceTemplateDTO" style="stroke:#181818;stroke-width:1;stroke-dasharray:7,7;"/><polygon fill="#181818" points="244.7,214.212,254.4418,212.7635,248.9207,211.5314,250.1528,206.0104,244.7,214.212" style="stroke:#181818;stroke-width:1;"/><text fill="#000000" font-family="sans-serif" font-size="13" lengthAdjust="spacing" textLength="49.79" x="345.84" y="175.639">receives</text></g><!--link MaintenanceTemplateController to MaintenanceTemplateService--><g class="link" data-entity-1="MaintenanceTemplateController" data-entity-2="MaintenanceTemplateService" data-source-line="64" data-uid="lnk17" id="link_MaintenanceTemplateController_MaintenanceTemplateService"><path codeLine="64" d="M749.31,131.222 C865.58,161.162 1016.0594,199.8964 1139.7994,231.7464" fill="none" id="MaintenanceTemplateController-to-MaintenanceTemplateService" style="stroke:#181818;stroke-width:1;stroke-dasharray:7,7;"/><polygon fill="#181818" points="1145.61,233.242,1137.8912,227.1248,1140.7678,231.9956,1135.897,234.8723,1145.61,233.242" style="stroke:#181818;stroke-width:1;"/><text fill="#000000" font-family="sans-serif" font-size="13" lengthAdjust="spacing" textLength="75.4911" x="921.26" y="175.639">delegates to</text></g><!--link MaintenanceTemplateController to MaintenanceTemplateModelAssembler--><g class="link" data-entity-1="MaintenanceTemplateController" data-entity-2="MaintenanceTemplateModelAssembler" data-source-line="65" data-uid="lnk18" id="link_MaintenanceTemplateController_MaintenanceTemplateModelAssembler"><path codeLine="65" d="M584,130.862 C584,167.212 584,212.942 584,246.322" fill="none" id="MaintenanceTemplateController-to-MaintenanceTemplateModelAssembler" style="stroke:#181818;stroke-width:1;stroke-dasharray:7,7;"/><polygon fill="#181818" points="584,252.322,588,243.322,584,247.322,580,243.322,584,252.322" style="stroke:#181818;stroke-width:1;"/><text fill="#000000" font-family="sans-serif" font-size="13" lengthAdjust="spacing" textLength="27.82" x="585" y="175.639">uses</text></g><!--link MaintenanceTemplateModelAssembler to MaintenanceTemplateResponseDTO--><g class="link" data-entity-1="MaintenanceTemplateModelAssembler" data-entity-2="MaintenanceTemplateResponseDTO" data-source-line="66" data-uid="lnk19" id="link_MaintenanceTemplateModelAssembler_MaintenanceTemplateResponseDTO"><path codeLine="66" d="M584,320.342 C584,354.792 584,404.302 584,451.882" fill="none" id="MaintenanceTemplateModelAssembler-to-MaintenanceTemplateResponseDTO" style="stroke:#181818;stroke-width:1;stroke-dasharray:7,7;"/><polygon fill="#181818" points="584,457.882,588,448.882,584,452.882,580,448.882,584,457.882" style="stroke:#181818;stroke-width:1;"/><text fill="#000000" font-family="sans-serif" font-size="13" lengthAdjust="spacing" textLength="57.0571" x="585" y="402.909">produces</text></g><!--link MaintenanceTemplateService to MaintenanceTemplateRepository--><g class="link" data-entity-1="MaintenanceTemplateService" data-entity-2="MaintenanceTemplateRepository" data-source-line="68" data-uid="lnk20" id="link_MaintenanceTemplateService_MaintenanceTemplateRepository"><path codeLine="68" d="M1383.78,339.132 C1419.97,391.532 1471.4001,465.9851 1501.9701,510.2451" fill="none" id="MaintenanceTemplateService-to-MaintenanceTemplateRepository" style="stroke:#181818;stroke-width:1;stroke-dasharray:7,7;"/><polygon fill="#181818" points="1505.38,515.182,1503.5565,505.5034,1502.5384,511.0679,1496.9739,510.0499,1505.38,515.182" style="stroke:#181818;stroke-width:1;"/><text fill="#000000" font-family="sans-serif" font-size="13" lengthAdjust="spacing" textLength="27.82" x="1428.22" y="402.909">uses</text></g><!--link MaintenanceTemplateService to AircraftModelRepository--><g class="link" data-entity-1="MaintenanceTemplateService" data-entity-2="AircraftModelRepository" data-source-line="69" data-uid="lnk21" id="link_MaintenanceTemplateService_AircraftModelRepository"><path codeLine="69" d="M1551.76,336.572 C1607.09,355.642 1664.94,381.242 1713,415.012 C1755.21,444.672 1786.6934,490.0449 1804.6134,519.5249" fill="none" id="MaintenanceTemplateService-to-AircraftModelRepository" style="stroke:#181818;stroke-width:1;stroke-dasharray:7,7;"/><polygon fill="#181818" points="1807.73,524.652,1806.4732,514.8836,1805.1328,520.3794,1799.6371,519.0391,1807.73,524.652" style="stroke:#181818;stroke-width:1;"/><text fill="#000000" font-family="sans-serif" font-size="13" lengthAdjust="spacing" textLength="98.6181" x="1696.74" y="402.909">resolves models</text></g><!--link MaintenanceTemplateService to MaintenanceTemplate--><g class="link" data-entity-1="MaintenanceTemplateService" data-entity-2="MaintenanceTemplate" data-source-line="70" data-uid="lnk22" id="link_MaintenanceTemplateService_MaintenanceTemplate"><path codeLine="70" d="M1312.02,339.132 C1287.95,373.792 1259.0927,415.334 1231.1027,455.634" fill="none" id="MaintenanceTemplateService-to-MaintenanceTemplate" style="stroke:#181818;stroke-width:1;stroke-dasharray:7,7;"/><polygon fill="#181818" points="1227.68,460.562,1236.0994,455.4518,1230.5322,456.4553,1229.5287,450.8882,1227.68,460.562" style="stroke:#181818;stroke-width:1;"/><text fill="#000000" font-family="sans-serif" font-size="13" lengthAdjust="spacing" textLength="44.486" x="1274.71" y="402.909">creates</text></g><!--reverse link MaintenanceTemplate to ChecklistItem--><g class="link" data-entity-1="MaintenanceTemplate" data-entity-2="ChecklistItem" data-source-line="72" data-uid="lnk23" id="link_MaintenanceTemplate_ChecklistItem"><path codeLine="72" d="M1094.2671,646.8498 C1070.0871,679.0698 1050.75,704.842 1029.97,732.532" fill="none" id="MaintenanceTemplate-backto-ChecklistItem" style="stroke:#181818;stroke-width:1;"/><polygon fill="#181818" points="1101.47,637.252,1094.6693,639.65,1094.2671,646.8498,1101.0679,644.4519,1101.47,637.252" style="stroke:#181818;stroke-width:1;"/><text fill="#000000" font-family="sans-serif" font-size="13" lengthAdjust="spacing" textLength="52.416" x="1075.78" y="686.559">checklist</text><text fill="#000000" font-family="sans-serif" font-size="13" lengthAdjust="spacing" textLength="7.436" x="1089.2012" y="658.5896">1</text><text fill="#000000" font-family="sans-serif" font-size="13" lengthAdjust="spacing" textLength="21.567" x="1012.7327" y="721.215">1..*</text></g><!--link MaintenanceTemplate to TemplateType--><g class="link" data-entity-1="MaintenanceTemplate" data-entity-2="TemplateType" data-source-line="73" data-uid="lnk24" id="link_MaintenanceTemplate_TemplateType"><path codeLine="73" d="M1181.69,637.252 C1186.33,664.852 1190.3634,688.8453 1194.6434,714.2553" fill="none" id="MaintenanceTemplate-to-TemplateType" style="stroke:#181818;stroke-width:1;"/><polygon fill="#181818" points="1195.64,720.172,1198.0896,710.6326,1194.8095,715.2414,1190.2007,711.9614,1195.64,720.172" style="stroke:#181818;stroke-width:1;"/><text fill="#000000" font-family="sans-serif" font-size="13" lengthAdjust="spacing" textLength="51.584" x="1190.99" y="686.559">has type</text></g><!--SRC=[lLNVRzem47xdhx1ueXqWxJMg8h6GYKZyc0hjKwN9E0VrwjYHxQ2XgV_xZX222GQgJbfU47Vdk_i-ttVEANkZQo1jclCs-TCY-351ZI4JogK5IIM31MIve1OY9QrMGe2k8dVV5y8qeFCGr4cj2aXKsZmvXelPNK0UmUHA6eYbvNPRv-gHd6fJnowsENGsL1GGaBdLNAxngEii3xuxJLyhw_JS8xQoJsbM9_UuTqKyxXHMj11sM6XgkP8ZLMWJaA4gbWASC9hdWZEAnebAGIGf1esviGzZ9TUX4yXUWRq9z2HO-12qhngUOVIWEz3PHCbJpAMyoFudy5qj7we6-2eYSib0H6xi1hJ1kWwg6yoKzGV6GBPiZgrLfRDpW1pupjy5D_YkcdXljVA3b0pe3MTWRkfflW-y9YQ9r7M9nTleahHYlViYisgUkaVs_9qwt6amIcpsZ9XEvfd8k-hFW6kcwSgMeQ47OQeoB7KJ7tbus0iy33yllZEz_yiacii8Fp2C7v_4asD8m_DkYSsMlu3P1XSf6APvRijSPrGmXU310kfugPG0AfrI88liX1udSJAT_uYZHJARrgPvD8g7J-Du-7CoIAQBU3gOHd7jdJt7ZwF1qxWsJ6R3v7iI3UeSfoEW8LU6MwNvST1t0w1N52VQgvdgmFPatk4ticI-RHVEJ9HJxwpyS-Z7IYStUQonw_Nw2zRlXzUVYm0Lmu1lm7mWqnLr1tZ70jPeCRXpFfUhiSO2KXX_Mut02-dSzo8WkLPfWVlAozW1nSLCzQrURihDSU6-IhRB_MH8kPhC9vh19FlrwOT2sb_RvBxNmzz-_xxT46bmrBxtSAyNdeej8A_KbAkvzHS0]--></g></svg>