<svg xmlns="http://www.w3.org/2000/svg" xmlns:xlink="http://www.w3.org/1999/xlink" contentStyleType="text/css" data-diagram-type="SEQUENCE" height="1004px" preserveAspectRatio="none" style="width:1467px;height:1004px;background:#FFFFFF;" version="1.1" viewBox="0 0 1467 1004" width="1467px" zoomAndPan="magnify"><defs/><g><rect fill="none" height="717.9263" style="stroke:#000000;stroke-width:1.5;" width="1450.0997" x="10" y="231.304"/><rect fill="none" height="180.2361" style="stroke:#000000;stroke-width:1.5;" width="1430.0997" x="20" y="383.11"/><rect fill="none" height="83.118" style="stroke:#000000;stroke-width:1.5;" width="1410.0997" x="30" y="473.228"/><g><title>MaintenanceTemplateController</title><rect fill="#000000" fill-opacity="0.00000" height="927.1624" width="8" x="149.7566" y="39.0679"/><line style="stroke:#181818;stroke-width:0.5;stroke-dasharray:5,5;" x1="153" x2="153" y1="39.0679" y2="966.2303"/></g><g><title>MaintenanceTemplateService</title><rect fill="#000000" fill-opacity="0.00000" height="927.1624" width="8" x="437.7088" y="39.0679"/><line style="stroke:#181818;stroke-width:0.5;stroke-dasharray:5,5;" x1="441.6892" x2="441.6892" y1="39.0679" y2="966.2303"/></g><g><title>MaintenanceTemplateRepository</title><rect fill="#000000" fill-opacity="0.00000" height="927.1624" width="8" x="749.8901" y="39.0679"/><line style="stroke:#181818;stroke-width:0.5;stroke-dasharray:5,5;" x1="752.9985" x2="752.9985" y1="39.0679" y2="966.2303"/></g><g><title>AircraftModelRepository</title><rect fill="#000000" fill-opacity="0.00000" height="927.1624" width="8" x="962.9314" y="39.0679"/><line style="stroke:#181818;stroke-width:0.5;stroke-dasharray:5,5;" x1="966.7816" x2="966.7816" y1="39.0679" y2="966.2303"/></g><g><title>MaintenanceTemplateModelAssembler</title><rect fill="#000000" fill-opacity="0.00000" height="927.1624" width="8" x="1196.0135" y="39.0679"/><line style="stroke:#181818;stroke-width:0.5;stroke-dasharray:5,5;" x1="1199.0811" x2="1199.0811" y1="39.0679" y2="966.2303"/></g><g><title>Technician</title><rect fill="#000000" fill-opacity="0.00000" height="927.1624" width="8" x="1384.0229" y="39.0679"/><line style="stroke:#181818;stroke-width:0.5;stroke-dasharray:5,5;" x1="1387.946" x2="1387.946" y1="39.0679" y2="966.2303"/></g><g class="participant participant-head" data-participant="Controller"><rect fill="#E2E2F0" height="33.0679" rx="2.5" ry="2.5" style="stroke:#181818;stroke-width:0.5;" width="227.5132" x="40" y="5"/><text fill="#000000" font-family="sans-serif" font-size="14" lengthAdjust="spacing" textLength="213.5132" x="47" y="26.9659">MaintenanceTemplateController</text></g><g class="participant participant-tail" data-participant="Controller"><rect fill="#E2E2F0" height="33.0679" rx="2.5" ry="2.5" style="stroke:#181818;stroke-width:0.5;" width="227.5132" x="40" y="965.2303"/><text fill="#000000" font-family="sans-serif" font-size="14" lengthAdjust="spacing" textLength="213.5132" x="47" y="987.1962">MaintenanceTemplateController</text></g><g class="participant participant-head" data-participant="Service"><rect fill="#E2E2F0" height="33.0679" rx="2.5" ry="2.5" style="stroke:#181818;stroke-width:0.5;" width="208.0392" x="337.6892" y="5"/><text fill="#000000" font-family="sans-serif" font-size="14" lengthAdjust="spacing" textLength="194.0392" x="344.6892" y="26.9659">MaintenanceTemplateService</text></g><g class="participant participant-tail" data-participant="Service"><rect fill="#E2E2F0" height="33.0679" rx="2.5" ry="2.5" style="stroke:#181818;stroke-width:0.5;" width="208.0392" x="337.6892" y="965.2303"/><text fill="#000000" font-family="sans-serif" font-size="14" lengthAdjust="spacing" textLength="194.0392" x="344.6892" y="987.1962">MaintenanceTemplateService</text></g><g class="participant participant-head" data-participant="TemplateRepo"><rect fill="#E2E2F0" height="33.0679" rx="2.5" ry="2.5" style="stroke:#181818;stroke-width:0.5;" width="231.7832" x="637.9985" y="5"/><text fill="#000000" font-family="sans-serif" font-size="14" lengthAdjust="spacing" textLength="217.7832" x="644.9985" y="26.9659">MaintenanceTemplateRepository</text></g><g class="participant participant-tail" data-participant="TemplateRepo"><rect fill="#E2E2F0" height="33.0679" rx="2.5" ry="2.5" style="stroke:#181818;stroke-width:0.5;" width="231.7832" x="637.9985" y="965.2303"/><text fill="#000000" font-family="sans-serif" font-size="14" lengthAdjust="spacing" textLength="217.7832" x="644.9985" y="987.1962">MaintenanceTemplateRepository</text></g><g class="participant participant-head" data-participant="ModelRepo"><rect fill="#E2E2F0" height="33.0679" rx="2.5" ry="2.5" style="stroke:#181818;stroke-width:0.5;" width="174.2994" x="879.7816" y="5"/><text fill="#000000" font-family="sans-serif" font-size="14" lengthAdjust="spacing" textLength="160.2994" x="886.7816" y="26.9659">AircraftModelRepository</text></g><g class="participant participant-tail" data-participant="ModelRepo"><rect fill="#E2E2F0" height="33.0679" rx="2.5" ry="2.5" style="stroke:#181818;stroke-width:0.5;" width="174.2994" x="879.7816" y="965.2303"/><text fill="#000000" font-family="sans-serif" font-size="14" lengthAdjust="spacing" textLength="160.2994" x="886.7816" y="987.1962">AircraftModelRepository</text></g><g class="participant participant-head" data-participant="Assembler"><rect fill="#E2E2F0" height="33.0679" rx="2.5" ry="2.5" style="stroke:#181818;stroke-width:0.5;" width="271.865" x="1064.0811" y="5"/><text fill="#000000" font-family="sans-serif" font-size="14" lengthAdjust="spacing" textLength="257.865" x="1071.0811" y="26.9659">MaintenanceTemplateModelAssembler</text></g><g class="participant participant-tail" data-participant="Assembler"><rect fill="#E2E2F0" height="33.0679" rx="2.5" ry="2.5" style="stroke:#181818;stroke-width:0.5;" width="271.865" x="1064.0811" y="965.2303"/><text fill="#000000" font-family="sans-serif" font-size="14" lengthAdjust="spacing" textLength="257.865" x="1071.0811" y="987.1962">MaintenanceTemplateModelAssembler</text></g><g class="participant participant-head" data-participant="Technician"><rect fill="#E2E2F0" height="33.0679" rx="2.5" ry="2.5" style="stroke:#181818;stroke-width:0.5;" width="84.1537" x="1345.946" y="5"/><text fill="#000000" font-family="sans-serif" font-size="14" lengthAdjust="spacing" textLength="70.1537" x="1352.946" y="26.9659">Technician</text></g><g class="participant participant-tail" data-participant="Technician"><rect fill="#E2E2F0" height="33.0679" rx="2.5" ry="2.5" style="stroke:#181818;stroke-width:0.5;" width="84.1537" x="1345.946" y="965.2303"/><text fill="#000000" font-family="sans-serif" font-size="14" lengthAdjust="spacing" textLength="70.1537" x="1352.946" y="987.1962">Technician</text></g><g class="message" data-participant-1="Controller" data-participant-2="Controller"><line style="stroke:#181818;stroke-width:1;" x1="153.7566" x2="195.7566" y1="72.7739" y2="72.7739"/><line style="stroke:#181818;stroke-width:1;" x1="195.7566" x2="195.7566" y1="72.7739" y2="85.7739"/><line style="stroke:#181818;stroke-width:1;" x1="154.7566" x2="195.7566" y1="85.7739" y2="85.7739"/><polygon fill="#181818" points="164.7566,81.7739,154.7566,85.7739,164.7566,89.7739,160.7566,85.7739" style="stroke:#181818;stroke-width:1;"/><text fill="#000000" font-family="sans-serif" font-size="13" lengthAdjust="spacing" textLength="236.6522" x="160.7566" y="66.9649">parseTemplateType(dto.templateType)</text></g><g class="message" data-participant-1="Controller" data-participant-2="Service"><polygon fill="#181818" points="429.7088,148.892,439.7088,152.892,429.7088,156.892,433.7088,152.892" style="stroke:#181818;stroke-width:1;"/><line style="stroke:#181818;stroke-width:1;" x1="153.7566" x2="435.7088" y1="152.892" y2="152.892"/><text fill="#000000" font-family="sans-serif" font-size="13" lengthAdjust="spacing" textLength="228.0462" x="160.7566" y="111.6709">createTemplate(templateName, type,</text><text fill="#000000" font-family="sans-serif" font-size="13" lengthAdjust="spacing" textLength="263.9522" x="160.7566" y="129.377">defaultDurationHours, applicableModelIds,</text><text fill="#000000" font-family="sans-serif" font-size="13" lengthAdjust="spacing" textLength="91.1301" x="160.7566" y="147.083">checklistItems)</text></g><g class="message" data-participant-1="Service" data-participant-2="TemplateRepo"><polygon fill="#181818" points="741.8901,180.598,751.8901,184.598,741.8901,188.598,745.8901,184.598" style="stroke:#181818;stroke-width:1;"/><line style="stroke:#181818;stroke-width:1;" x1="441.7088" x2="747.8901" y1="184.598" y2="184.598"/><text fill="#000000" font-family="sans-serif" font-size="13" lengthAdjust="spacing" textLength="243.1392" x="448.7088" y="178.789">existsByTemplateName(templateName)</text></g><g class="message" data-participant-1="TemplateRepo" data-participant-2="Service"><polygon fill="#181818" points="452.7088,212.304,442.7088,216.304,452.7088,220.304,448.7088,216.304" style="stroke:#181818;stroke-width:1;"/><line style="stroke:#181818;stroke-width:1;stroke-dasharray:2,2;" x1="446.7088" x2="752.8901" y1="216.304" y2="216.304"/><text fill="#000000" font-family="sans-serif" font-size="13" lengthAdjust="spacing" textLength="49.738" x="458.7088" y="210.495">boolean</text></g><path d="M10,231.304 L71.5588,231.304 L71.5588,241.01 L61.5588,251.01 L10,251.01 L10,231.304" fill="#EEEEEE" style="stroke:#000000;stroke-width:1.5;"/><rect fill="none" height="717.9263" style="stroke:#000000;stroke-width:1.5;" width="1450.0997" x="10" y="231.304"/><text fill="#000000" font-family="sans-serif" font-size="13" font-weight="bold" lengthAdjust="spacing" textLength="16.5588" x="25" y="246.201">alt</text><text fill="#000000" font-family="sans-serif" font-size="11" font-weight="bold" lengthAdjust="spacing" textLength="115.9227" x="86.5588" y="245.0629">[name already taken]</text><g class="message" data-participant-1="Service" data-participant-2="Controller"><polygon fill="#181818" points="164.7566,270.716,154.7566,274.716,164.7566,278.716,160.7566,274.716" style="stroke:#181818;stroke-width:1;"/><line style="stroke:#181818;stroke-width:1;stroke-dasharray:2,2;" x1="158.7566" x2="440.7088" y1="274.716" y2="274.716"/><text fill="#000000" font-family="sans-serif" font-size="13" lengthAdjust="spacing" textLength="204.4122" x="170.7566" y="268.907">throws IllegalArgumentException</text></g><g class="message" data-participant-1="Controller" data-participant-2="Technician"><polygon fill="#181818" points="1376.0229,302.4221,1386.0229,306.4221,1376.0229,310.4221,1380.0229,306.4221" style="stroke:#181818;stroke-width:1;"/><line style="stroke:#181818;stroke-width:1;stroke-dasharray:2,2;" x1="153.7566" x2="1382.0229" y1="306.4221" y2="306.4221"/><text fill="#000000" font-family="sans-serif" font-size="13" lengthAdjust="spacing" textLength="71.9161" x="160.7566" y="300.6131">409 Conflict</text></g><line style="stroke:#000000;stroke-width:1;stroke-dasharray:2,2;" x1="10" x2="1460.0997" y1="315.4221" y2="315.4221"/><text fill="#000000" font-family="sans-serif" font-size="11" font-weight="bold" lengthAdjust="spacing" textLength="101.9501" x="15" y="327.181">[name is available]</text><g class="message" data-participant-1="Service" data-participant-2="Service"><line style="stroke:#181818;stroke-width:1;" x1="441.7088" x2="483.7088" y1="355.11" y2="355.11"/><line style="stroke:#181818;stroke-width:1;" x1="483.7088" x2="483.7088" y1="355.11" y2="368.11"/><line style="stroke:#181818;stroke-width:1;" x1="442.7088" x2="483.7088" y1="368.11" y2="368.11"/><polygon fill="#181818" points="452.7088,364.11,442.7088,368.11,452.7088,372.11,448.7088,368.11" style="stroke:#181818;stroke-width:1;"/><text fill="#000000" font-family="sans-serif" font-size="13" lengthAdjust="spacing" textLength="153.7771" x="448.7088" y="349.301">resolveModels(modelIds)</text></g><path d="M20,383.11 L93.704,383.11 L93.704,392.816 L83.704,402.816 L20,402.816 L20,383.11" fill="#EEEEEE" style="stroke:#000000;stroke-width:1.5;"/><rect fill="none" height="180.2361" style="stroke:#000000;stroke-width:1.5;" width="1430.0997" x="20" y="383.11"/><text fill="#000000" font-family="sans-serif" font-size="13" font-weight="bold" lengthAdjust="spacing" textLength="28.704" x="35" y="398.007">loop</text><text fill="#000000" font-family="sans-serif" font-size="11" font-weight="bold" lengthAdjust="spacing" textLength="101.1333" x="108.704" y="396.8689">[for each modelId]</text><g class="message" data-participant-1="Service" data-participant-2="ModelRepo"><polygon fill="#181818" points="954.9314,422.522,964.9314,426.522,954.9314,430.522,958.9314,426.522" style="stroke:#181818;stroke-width:1;"/><line style="stroke:#181818;stroke-width:1;" x1="441.7088" x2="960.9314" y1="426.522" y2="426.522"/><text fill="#000000" font-family="sans-serif" font-size="13" lengthAdjust="spacing" textLength="110.2401" x="448.7088" y="420.713">findById(modelId)</text></g><g class="message" data-participant-1="ModelRepo" data-participant-2="Service"><polygon fill="#181818" points="452.7088,454.228,442.7088,458.228,452.7088,462.228,448.7088,458.228" style="stroke:#181818;stroke-width:1;"/><line style="stroke:#181818;stroke-width:1;stroke-dasharray:2,2;" x1="446.7088" x2="965.9314" y1="458.228" y2="458.228"/><text fill="#000000" font-family="sans-serif" font-size="13" lengthAdjust="spacing" textLength="151.0471" x="458.7088" y="452.419">Optional&lt;AircraftModel&gt;</text></g><path d="M30,473.228 L91.5588,473.228 L91.5588,482.934 L81.5588,492.934 L30,492.934 L30,473.228" fill="#EEEEEE" style="stroke:#000000;stroke-width:1.5;"/><rect fill="none" height="83.118" style="stroke:#000000;stroke-width:1.5;" width="1410.0997" x="30" y="473.228"/><text fill="#000000" font-family="sans-serif" font-size="13" font-weight="bold" lengthAdjust="spacing" textLength="16.5588" x="45" y="488.125">alt</text><text fill="#000000" font-family="sans-serif" font-size="11" font-weight="bold" lengthAdjust="spacing" textLength="99.0846" x="106.5588" y="486.9869">[model not found]</text><g class="message" data-participant-1="Service" data-participant-2="Controller"><polygon fill="#181818" points="164.7566,512.6401,154.7566,516.6401,164.7566,520.6401,160.7566,516.6401" style="stroke:#181818;stroke-width:1;"/><line style="stroke:#181818;stroke-width:1;stroke-dasharray:2,2;" x1="158.7566" x2="440.7088" y1="516.6401" y2="516.6401"/><text fill="#000000" font-family="sans-serif" font-size="13" lengthAdjust="spacing" textLength="223.0022" x="170.7566" y="510.831">throws ResourceNotFoundException</text></g><g class="message" data-participant-1="Controller" data-participant-2="Technician"><polygon fill="#181818" points="1376.0229,544.3461,1386.0229,548.3461,1376.0229,552.3461,1380.0229,548.3461" style="stroke:#181818;stroke-width:1;"/><line style="stroke:#181818;stroke-width:1;stroke-dasharray:2,2;" x1="153.7566" x2="1382.0229" y1="548.3461" y2="548.3461"/><text fill="#000000" font-family="sans-serif" font-size="13" lengthAdjust="spacing" textLength="90.1811" x="160.7566" y="542.5371">404 Not Found</text></g><g class="message" data-participant-1="Service" data-participant-2="Service"><line style="stroke:#181818;stroke-width:1;" x1="441.7088" x2="483.7088" y1="611.7581" y2="611.7581"/><line style="stroke:#181818;stroke-width:1;" x1="483.7088" x2="483.7088" y1="611.7581" y2="624.7581"/><line style="stroke:#181818;stroke-width:1;" x1="442.7088" x2="483.7088" y1="624.7581" y2="624.7581"/><polygon fill="#181818" points="452.7088,620.7581,442.7088,624.7581,452.7088,628.7581,448.7088,624.7581" style="stroke:#181818;stroke-width:1;"/><text fill="#000000" font-family="sans-serif" font-size="13" lengthAdjust="spacing" textLength="298.1812" x="448.7088" y="588.2431">new MaintenanceTemplate(templateName, type,</text><text fill="#000000" font-family="sans-serif" font-size="13" lengthAdjust="spacing" textLength="202.4232" x="448.7088" y="605.9491">duration, models, checklistItems)</text></g><path d="M446,637.7581 L446,717.7581 L716,717.7581 L716,647.7581 L706,637.7581 L446,637.7581" fill="#FEFFDD" style="stroke:#181818;stroke-width:0.5;"/><path d="M706,637.7581 L706,647.7581 L716,647.7581 L706,637.7581" fill="#FEFFDD" style="stroke:#181818;stroke-width:0.5;"/><text fill="#000000" font-family="sans-serif" font-size="13" lengthAdjust="spacing" textLength="236.2622" x="452" y="656.6551">Constructor validates: name not blank,</text><text fill="#000000" font-family="sans-serif" font-size="13" lengthAdjust="spacing" textLength="161.3952" x="452" y="674.3611">type not null, duration &gt; 0,</text><text fill="#000000" font-family="sans-serif" font-size="13" lengthAdjust="spacing" textLength="249.3012" x="452" y="692.0671">at least 1 model, at least 1 checklist item.</text><text fill="#000000" font-family="sans-serif" font-size="13" lengthAdjust="spacing" textLength="209.0922" x="452" y="709.7732">Builds ChecklistItem list internally.</text><g class="message" data-participant-1="Service" data-participant-2="TemplateRepo"><polygon fill="#181818" points="741.8901,743.2882,751.8901,747.2882,741.8901,751.2882,745.8901,747.2882" style="stroke:#181818;stroke-width:1;"/><line style="stroke:#181818;stroke-width:1;" x1="441.7088" x2="747.8901" y1="747.2882" y2="747.2882"/><text fill="#000000" font-family="sans-serif" font-size="13" lengthAdjust="spacing" textLength="90.1031" x="448.7088" y="741.4792">save(template)</text></g><g class="message" data-participant-1="TemplateRepo" data-participant-2="Service"><polygon fill="#181818" points="452.7088,774.9942,442.7088,778.9942,452.7088,782.9942,448.7088,778.9942" style="stroke:#181818;stroke-width:1;"/><line style="stroke:#181818;stroke-width:1;stroke-dasharray:2,2;" x1="446.7088" x2="752.8901" y1="778.9942" y2="778.9942"/><text fill="#000000" font-family="sans-serif" font-size="13" lengthAdjust="spacing" textLength="136.8121" x="458.7088" y="773.1852">MaintenanceTemplate</text></g><g class="message" data-participant-1="Service" data-participant-2="Controller"><polygon fill="#181818" points="164.7566,806.7002,154.7566,810.7002,164.7566,814.7002,160.7566,810.7002" style="stroke:#181818;stroke-width:1;"/><line style="stroke:#181818;stroke-width:1;stroke-dasharray:2,2;" x1="158.7566" x2="440.7088" y1="810.7002" y2="810.7002"/><text fill="#000000" font-family="sans-serif" font-size="13" lengthAdjust="spacing" textLength="136.8121" x="170.7566" y="804.8912">MaintenanceTemplate</text></g><g class="message" data-participant-1="Controller" data-participant-2="Assembler"><polygon fill="#181818" points="1188.0135,838.4062,1198.0135,842.4062,1188.0135,846.4062,1192.0135,842.4062" style="stroke:#181818;stroke-width:1;"/><line style="stroke:#181818;stroke-width:1;" x1="153.7566" x2="1194.0135" y1="842.4062" y2="842.4062"/><text fill="#000000" font-family="sans-serif" font-size="13" lengthAdjust="spacing" textLength="113.5421" x="160.7566" y="836.5972">toModel(template)</text></g><g class="message" data-participant-1="Assembler" data-participant-2="Controller"><polygon fill="#181818" points="164.7566,887.8183,154.7566,891.8183,164.7566,895.8183,160.7566,891.8183" style="stroke:#181818;stroke-width:1;"/><line style="stroke:#181818;stroke-width:1;stroke-dasharray:2,2;" x1="158.7566" x2="1199.0135" y1="891.8183" y2="891.8183"/><text fill="#000000" font-family="sans-serif" font-size="13" lengthAdjust="spacing" textLength="222.7812" x="170.7566" y="868.3032">MaintenanceTemplateResponseDTO</text><text fill="#000000" font-family="sans-serif" font-size="13" lengthAdjust="spacing" textLength="126.7632" x="170.7566" y="886.0093">(with HATEOAS links)</text></g><g class="message" data-participant-1="Controller" data-participant-2="Technician"><polygon fill="#181818" points="1376.0229,937.2303,1386.0229,941.2303,1376.0229,945.2303,1380.0229,941.2303" style="stroke:#181818;stroke-width:1;"/><line style="stroke:#181818;stroke-width:1;stroke-dasharray:2,2;" x1="153.7566" x2="1382.0229" y1="941.2303" y2="941.2303"/><text fill="#000000" font-family="sans-serif" font-size="13" lengthAdjust="spacing" textLength="73.918" x="160.7566" y="917.7153">201 Created</text><text fill="#000000" font-family="sans-serif" font-size="13" lengthAdjust="spacing" textLength="222.7812" x="160.7566" y="935.4213">MaintenanceTemplateResponseDTO</text></g><!--SRC=[ZLJBJkim4DtdAqPTjL90vOhDHLT8BG_H1I11bsm6PzfQTUt8TbhwztVilCEZP9F4cJFdpCcnSxHU2fcZzZ1wHAazQTI2bhJB5NgwCTfRenJP4Q23zZN9Jo1VoUwbe0YhdazYNYWtJdfZZn7MNUvZPz8AYol_Q39I0rIpTf8kLiwSezrxFM3pbYJjh71stPaShe0RkwRByfZJEFFct7SM9aDyPG63XQLGL1MFQzGJxYW5pzZqJMUqmaBvsyAYbqO_cCAw533FbHJ8ygBoHUQuL6n8R9LqVi6T7FFMJ4pQDP2PwOFBtFoux53s-2T93t7Mq_rkZ2BKIOBAW-PgGCMZP4Vmk2MT05yDzz0nlx7cu631hsjKCxikTgJztOUWF0mOmLt363zQajXe_d-eHzpXSletLApO0P-GSbHga0vmZr85L_eIkjejEQFsfMrklAlScqI0CYQ7bR50A3PGVOjV1ksQO773bTJP_BZ8wbwJ1j1MzUrxZeEY-jVBxdM32wx6Pg2DPps5RaNynjeN7h6mWfwClm_WlhVrTShZIs0ytFVOgNeEz-yjrdI0B_ROD_ckWfsM8tEsXp4EF6m4WPNhZGUpQWwHpYZEsqBmneSzAfanYRigKn4iV5UejsbJ7fZZkYwKIg5M0DSmROlG0sVSURWeXQNTbKOYIDPute3cXLGPdutT2Q2iOpSi_tDrFAyTZ4Dzid6mKHtkM-DABtxOc5-udloy6xz5zC-ivZ0CAJCnhmDLRSLlE3YYEVyqkbq-l-dnGVeDFCoMTy-pLxPBRyFXTJgZVwONS1EFqEnD_qoIXCJ-1m00]--></g></svg>