<svg xmlns="http://www.w3.org/2000/svg" xmlns:xlink="http://www.w3.org/1999/xlink" contentStyleType="text/css" data-diagram-type="SEQUENCE" height="1156px" preserveAspectRatio="none" style="width:1337px;height:1156px;background:#FFFFFF;" version="1.1" viewBox="0 0 1337 1156" width="1337px" zoomAndPan="magnify"><defs/><g><g><title>ScheduledFlightController</title><rect fill="#000000" fill-opacity="0.00000" height="1079.8945" width="8" x="88.5444" y="38.6211"/><line style="stroke:#181818;stroke-width:0.5;stroke-dasharray:5,5;" x1="92" x2="92" y1="38.6211" y2="1118.5156"/></g><g><title>ScheduledFlightService</title><rect fill="#000000" fill-opacity="0.00000" height="1079.8945" width="8" x="361.106" y="38.6211"/><line style="stroke:#181818;stroke-width:0.5;stroke-dasharray:5,5;" x1="364.5649" x2="364.5649" y1="38.6211" y2="1118.5156"/></g><g><title>FlightRouteRepository</title><rect fill="#000000" fill-opacity="0.00000" height="1079.8945" width="8" x="633.8047" y="38.6211"/><line style="stroke:#181818;stroke-width:0.5;stroke-dasharray:5,5;" x1="637.5498" x2="637.5498" y1="38.6211" y2="1118.5156"/></g><g><title>AircraftRepository</title><rect fill="#000000" fill-opacity="0.00000" height="1079.8945" width="8" x="782.687" y="38.6211"/><line style="stroke:#181818;stroke-width:0.5;stroke-dasharray:5,5;" x1="786.0596" x2="786.0596" y1="38.6211" y2="1118.5156"/></g><g><title>ScheduledFlightRepository</title><rect fill="#000000" fill-opacity="0.00000" height="1079.8945" width="8" x="945.9727" y="38.6211"/><line style="stroke:#181818;stroke-width:0.5;stroke-dasharray:5,5;" x1="949.3145" x2="949.3145" y1="38.6211" y2="1118.5156"/></g><g><title>ScheduledFlightModelAssembler</title><rect fill="#000000" fill-opacity="0.00000" height="1079.8945" width="8" x="1155.9614" y="38.6211"/><line style="stroke:#181818;stroke-width:0.5;stroke-dasharray:5,5;" x1="1159.6309" x2="1159.6309" y1="38.6211" y2="1118.5156"/></g><g><title>ATCC</title><rect fill="#000000" fill-opacity="0.00000" height="1079.8945" width="8" x="1301.3472" y="38.6211"/><line style="stroke:#181818;stroke-width:0.5;stroke-dasharray:5,5;" x1="1305.292" x2="1305.292" y1="38.6211" y2="1118.5156"/></g><g class="participant participant-head" data-participant="Controller"><rect fill="#E2E2F0" height="32.6211" rx="2.5" ry="2.5" style="stroke:#181818;stroke-width:0.5;" width="175.0889" x="5" y="5"/><text fill="#000000" font-family="sans-serif" font-size="14" lengthAdjust="spacing" textLength="161.0889" x="12" y="27.1074">ScheduledFlightController</text></g><g class="participant participant-tail" data-participant="Controller"><rect fill="#E2E2F0" height="32.6211" rx="2.5" ry="2.5" style="stroke:#181818;stroke-width:0.5;" width="175.0889" x="5" y="1117.5156"/><text fill="#000000" font-family="sans-serif" font-size="14" lengthAdjust="spacing" textLength="161.0889" x="12" y="1139.623">ScheduledFlightController</text></g><g class="participant participant-head" data-participant="Service"><rect fill="#E2E2F0" height="32.6211" rx="2.5" ry="2.5" style="stroke:#181818;stroke-width:0.5;" width="161.082" x="284.5649" y="5"/><text fill="#000000" font-family="sans-serif" font-size="14" lengthAdjust="spacing" textLength="147.082" x="291.5649" y="27.1074">ScheduledFlightService</text></g><g class="participant participant-tail" data-participant="Service"><rect fill="#E2E2F0" height="32.6211" rx="2.5" ry="2.5" style="stroke:#181818;stroke-width:0.5;" width="161.082" x="284.5649" y="1117.5156"/><text fill="#000000" font-family="sans-serif" font-size="14" lengthAdjust="spacing" textLength="147.082" x="291.5649" y="1139.623">ScheduledFlightService</text></g><g class="participant participant-head" data-participant="RouteRepo"><rect fill="#E2E2F0" height="32.6211" rx="2.5" ry="2.5" style="stroke:#181818;stroke-width:0.5;" width="152.5098" x="561.5498" y="5"/><text fill="#000000" font-family="sans-serif" font-size="14" lengthAdjust="spacing" textLength="138.5098" x="568.5498" y="27.1074">FlightRouteRepository</text></g><g class="participant participant-tail" data-participant="RouteRepo"><rect fill="#E2E2F0" height="32.6211" rx="2.5" ry="2.5" style="stroke:#181818;stroke-width:0.5;" width="152.5098" x="561.5498" y="1117.5156"/><text fill="#000000" font-family="sans-serif" font-size="14" lengthAdjust="spacing" textLength="138.5098" x="568.5498" y="1139.623">FlightRouteRepository</text></g><g class="participant participant-head" data-participant="AircraftRepo"><rect fill="#E2E2F0" height="32.6211" rx="2.5" ry="2.5" style="stroke:#181818;stroke-width:0.5;" width="125.2549" x="724.0596" y="5"/><text fill="#000000" font-family="sans-serif" font-size="14" lengthAdjust="spacing" textLength="111.2549" x="731.0596" y="27.1074">AircraftRepository</text></g><g class="participant participant-tail" data-participant="AircraftRepo"><rect fill="#E2E2F0" height="32.6211" rx="2.5" ry="2.5" style="stroke:#181818;stroke-width:0.5;" width="125.2549" x="724.0596" y="1117.5156"/><text fill="#000000" font-family="sans-serif" font-size="14" lengthAdjust="spacing" textLength="111.2549" x="731.0596" y="1139.623">AircraftRepository</text></g><g class="participant participant-head" data-participant="FlightRepo"><rect fill="#E2E2F0" height="32.6211" rx="2.5" ry="2.5" style="stroke:#181818;stroke-width:0.5;" width="181.3164" x="859.3145" y="5"/><text fill="#000000" font-family="sans-serif" font-size="14" lengthAdjust="spacing" textLength="167.3164" x="866.3145" y="27.1074">ScheduledFlightRepository</text></g><g class="participant participant-tail" data-participant="FlightRepo"><rect fill="#E2E2F0" height="32.6211" rx="2.5" ry="2.5" style="stroke:#181818;stroke-width:0.5;" width="181.3164" x="859.3145" y="1117.5156"/><text fill="#000000" font-family="sans-serif" font-size="14" lengthAdjust="spacing" textLength="167.3164" x="866.3145" y="1139.623">ScheduledFlightRepository</text></g><g class="participant participant-head" data-participant="Assembler"><rect fill="#E2E2F0" height="32.6211" rx="2.5" ry="2.5" style="stroke:#181818;stroke-width:0.5;" width="218.6611" x="1050.6309" y="5"/><text fill="#000000" font-family="sans-serif" font-size="14" lengthAdjust="spacing" textLength="204.6611" x="1057.6309" y="27.1074">ScheduledFlightModelAssembler</text></g><g class="participant participant-tail" data-participant="Assembler"><rect fill="#E2E2F0" height="32.6211" rx="2.5" ry="2.5" style="stroke:#181818;stroke-width:0.5;" width="218.6611" x="1050.6309" y="1117.5156"/><text fill="#000000" font-family="sans-serif" font-size="14" lengthAdjust="spacing" textLength="204.6611" x="1057.6309" y="1139.623">ScheduledFlightModelAssembler</text></g><g class="participant participant-head" data-participant="ATCC"><rect fill="#E2E2F0" height="32.6211" rx="2.5" ry="2.5" style="stroke:#181818;stroke-width:0.5;" width="52.1104" x="1279.292" y="5"/><text fill="#000000" font-family="sans-serif" font-size="14" lengthAdjust="spacing" textLength="38.1104" x="1286.292" y="27.1074">ATCC</text></g><g class="participant participant-tail" data-participant="ATCC"><rect fill="#E2E2F0" height="32.6211" rx="2.5" ry="2.5" style="stroke:#181818;stroke-width:0.5;" width="52.1104" x="1279.292" y="1117.5156"/><text fill="#000000" font-family="sans-serif" font-size="14" lengthAdjust="spacing" textLength="38.1104" x="1286.292" y="1139.623">ATCC</text></g><g class="message" data-participant-1="Controller" data-participant-2="Service"><polygon fill="#181818" points="353.106,85.2031,363.106,89.2031,353.106,93.2031,357.106,89.2031" style="stroke:#181818;stroke-width:1;"/><line style="stroke:#181818;stroke-width:1;" x1="92.5444" x2="359.106" y1="89.2031" y2="89.2031"/><text fill="#000000" font-family="sans-serif" font-size="13" lengthAdjust="spacing" textLength="248.5615" x="99.5444" y="66.6494">scheduleFlight(routeId, aircraftRegistration,</text><text fill="#000000" font-family="sans-serif" font-size="13" lengthAdjust="spacing" textLength="160.3735" x="99.5444" y="83.9404">departureTime, arrivalTime)</text></g><g class="message" data-participant-1="Service" data-participant-2="Service"><line style="stroke:#181818;stroke-width:1;" x1="365.106" x2="407.106" y1="120.4941" y2="120.4941"/><line style="stroke:#181818;stroke-width:1;" x1="407.106" x2="407.106" y1="120.4941" y2="133.4941"/><line style="stroke:#181818;stroke-width:1;" x1="366.106" x2="407.106" y1="133.4941" y2="133.4941"/><polygon fill="#181818" points="376.106,129.4941,366.106,133.4941,376.106,137.4941,372.106,133.4941" style="stroke:#181818;stroke-width:1;"/><text fill="#000000" font-family="sans-serif" font-size="13" lengthAdjust="spacing" textLength="212.0562" x="372.106" y="115.2314">validate arrivalTime &gt; departureTime</text></g><g class="message" data-participant-1="Service" data-participant-2="RouteRepo"><polygon fill="#181818" points="625.8047,160.7852,635.8047,164.7852,625.8047,168.7852,629.8047,164.7852" style="stroke:#181818;stroke-width:1;"/><line style="stroke:#181818;stroke-width:1;" x1="365.106" x2="631.8047" y1="164.7852" y2="164.7852"/><text fill="#000000" font-family="sans-serif" font-size="13" lengthAdjust="spacing" textLength="96.1035" x="372.106" y="159.5225">findById(routeId)</text></g><g class="message" data-participant-1="RouteRepo" data-participant-2="Service"><polygon fill="#181818" points="376.106,192.0762,366.106,196.0762,376.106,200.0762,372.106,196.0762" style="stroke:#181818;stroke-width:1;"/><line style="stroke:#181818;stroke-width:1;stroke-dasharray:2,2;" x1="370.106" x2="636.8047" y1="196.0762" y2="196.0762"/><text fill="#000000" font-family="sans-serif" font-size="13" lengthAdjust="spacing" textLength="130.0825" x="382.106" y="190.8135">Optional&lt;FlightRoute&gt;</text></g><g class="message" data-participant-1="Service" data-participant-2="AircraftRepo"><polygon fill="#181818" points="774.687,223.3672,784.687,227.3672,774.687,231.3672,778.687,227.3672" style="stroke:#181818;stroke-width:1;"/><line style="stroke:#181818;stroke-width:1;" x1="365.106" x2="780.687" y1="227.3672" y2="227.3672"/><text fill="#000000" font-family="sans-serif" font-size="13" lengthAdjust="spacing" textLength="164.728" x="372.106" y="222.1045">findById(aircraftRegistration)</text></g><g class="message" data-participant-1="AircraftRepo" data-participant-2="Service"><polygon fill="#181818" points="376.106,254.6582,366.106,258.6582,376.106,262.6582,372.106,258.6582" style="stroke:#181818;stroke-width:1;"/><line style="stroke:#181818;stroke-width:1;stroke-dasharray:2,2;" x1="370.106" x2="785.687" y1="258.6582" y2="258.6582"/><text fill="#000000" font-family="sans-serif" font-size="13" lengthAdjust="spacing" textLength="104.7744" x="382.106" y="253.3955">Optional&lt;Aircraft&gt;</text></g><g class="message" data-participant-1="Service" data-participant-2="Service"><line style="stroke:#181818;stroke-width:1;" x1="365.106" x2="407.106" y1="289.9492" y2="289.9492"/><line style="stroke:#181818;stroke-width:1;" x1="407.106" x2="407.106" y1="289.9492" y2="302.9492"/><line style="stroke:#181818;stroke-width:1;" x1="366.106" x2="407.106" y1="302.9492" y2="302.9492"/><polygon fill="#181818" points="376.106,298.9492,366.106,302.9492,376.106,306.9492,372.106,302.9492" style="stroke:#181818;stroke-width:1;"/><text fill="#000000" font-family="sans-serif" font-size="13" lengthAdjust="spacing" textLength="185.707" x="372.106" y="284.6865">validate route.status == ACTIVE</text></g><g class="message" data-participant-1="Service" data-participant-2="Service"><line style="stroke:#181818;stroke-width:1;" x1="365.106" x2="407.106" y1="351.5313" y2="351.5313"/><line style="stroke:#181818;stroke-width:1;" x1="407.106" x2="407.106" y1="351.5313" y2="364.5313"/><line style="stroke:#181818;stroke-width:1;" x1="366.106" x2="407.106" y1="364.5313" y2="364.5313"/><polygon fill="#181818" points="376.106,360.5313,366.106,364.5313,376.106,368.5313,372.106,364.5313" style="stroke:#181818;stroke-width:1;"/><text fill="#000000" font-family="sans-serif" font-size="13" lengthAdjust="spacing" textLength="233.3843" x="372.106" y="328.9775">validate origin.status == OPERATIONAL</text><text fill="#000000" font-family="sans-serif" font-size="13" lengthAdjust="spacing" textLength="237.0024" x="372.106" y="346.2686">&amp;&amp; destination.status == OPERATIONAL</text></g><g class="message" data-participant-1="Service" data-participant-2="Service"><line style="stroke:#181818;stroke-width:1;" x1="365.106" x2="407.106" y1="413.1133" y2="413.1133"/><line style="stroke:#181818;stroke-width:1;" x1="407.106" x2="407.106" y1="413.1133" y2="426.1133"/><line style="stroke:#181818;stroke-width:1;" x1="366.106" x2="407.106" y1="426.1133" y2="426.1133"/><polygon fill="#181818" points="376.106,422.1133,366.106,426.1133,376.106,430.1133,372.106,426.1133" style="stroke:#181818;stroke-width:1;"/><text fill="#000000" font-family="sans-serif" font-size="13" lengthAdjust="spacing" textLength="156.0762" x="372.106" y="390.5596">validate origin.certifications</text><text fill="#000000" font-family="sans-serif" font-size="13" lengthAdjust="spacing" textLength="165.458" x="372.106" y="407.8506">contains aircraft.modelName</text></g><g class="message" data-participant-1="Service" data-participant-2="Service"><line style="stroke:#181818;stroke-width:1;" x1="365.106" x2="407.106" y1="474.6953" y2="474.6953"/><line style="stroke:#181818;stroke-width:1;" x1="407.106" x2="407.106" y1="474.6953" y2="487.6953"/><line style="stroke:#181818;stroke-width:1;" x1="366.106" x2="407.106" y1="487.6953" y2="487.6953"/><polygon fill="#181818" points="376.106,483.6953,366.106,487.6953,376.106,491.6953,372.106,487.6953" style="stroke:#181818;stroke-width:1;"/><text fill="#000000" font-family="sans-serif" font-size="13" lengthAdjust="spacing" textLength="187.1606" x="372.106" y="452.1416">validate destination.certifications</text><text fill="#000000" font-family="sans-serif" font-size="13" lengthAdjust="spacing" textLength="165.458" x="372.106" y="469.4326">contains aircraft.modelName</text></g><g class="message" data-participant-1="Service" data-participant-2="Service"><line style="stroke:#181818;stroke-width:1;" x1="365.106" x2="407.106" y1="518.9863" y2="518.9863"/><line style="stroke:#181818;stroke-width:1;" x1="407.106" x2="407.106" y1="518.9863" y2="531.9863"/><line style="stroke:#181818;stroke-width:1;" x1="366.106" x2="407.106" y1="531.9863" y2="531.9863"/><polygon fill="#181818" points="376.106,527.9863,366.106,531.9863,376.106,535.9863,372.106,531.9863" style="stroke:#181818;stroke-width:1;"/><text fill="#000000" font-family="sans-serif" font-size="13" lengthAdjust="spacing" textLength="258.6987" x="372.106" y="513.7236">validate aircraft.maxRange &gt;= route.distance</text></g><g class="message" data-participant-1="Service" data-participant-2="Service"><line style="stroke:#181818;stroke-width:1;" x1="365.106" x2="407.106" y1="580.5684" y2="580.5684"/><line style="stroke:#181818;stroke-width:1;" x1="407.106" x2="407.106" y1="580.5684" y2="593.5684"/><line style="stroke:#181818;stroke-width:1;" x1="366.106" x2="407.106" y1="593.5684" y2="593.5684"/><polygon fill="#181818" points="376.106,589.5684,366.106,593.5684,376.106,597.5684,372.106,593.5684" style="stroke:#181818;stroke-width:1;"/><text fill="#000000" font-family="sans-serif" font-size="13" lengthAdjust="spacing" textLength="176.2998" x="372.106" y="558.0146">validate aircraft.activeCapacity</text><text fill="#000000" font-family="sans-serif" font-size="13" lengthAdjust="spacing" textLength="176.3188" x="372.106" y="575.3057">&gt;= route.minCapacityRequired</text></g><g class="message" data-participant-1="Service" data-participant-2="Service"><line style="stroke:#181818;stroke-width:1;" x1="365.106" x2="407.106" y1="624.8594" y2="624.8594"/><line style="stroke:#181818;stroke-width:1;" x1="407.106" x2="407.106" y1="624.8594" y2="637.8594"/><line style="stroke:#181818;stroke-width:1;" x1="366.106" x2="407.106" y1="637.8594" y2="637.8594"/><polygon fill="#181818" points="376.106,633.8594,366.106,637.8594,376.106,641.8594,372.106,637.8594" style="stroke:#181818;stroke-width:1;"/><text fill="#000000" font-family="sans-serif" font-size="13" lengthAdjust="spacing" textLength="218.9497" x="372.106" y="619.5967">validate aircraft.status == AVAILABLE</text></g><path d="M282,650.8594 L282,694.8594 L1033,694.8594 L1033,660.8594 L1023,650.8594 L282,650.8594" fill="#FEFFDD" style="stroke:#181818;stroke-width:0.5;"/><path d="M1023,650.8594 L1023,660.8594 L1033,660.8594 L1023,650.8594" fill="#FEFFDD" style="stroke:#181818;stroke-width:0.5;"/><text fill="#000000" font-family="sans-serif" font-size="13" lengthAdjust="spacing" textLength="284.0767" x="510.9946" y="669.8877">Pessimistic Lock (@Lock PESSIMISTIC_WRITE)</text><text fill="#000000" font-family="sans-serif" font-size="13" lengthAdjust="spacing" textLength="207.4097" x="510.9946" y="687.1787">prevents concurrent double-booking</text><g class="message" data-participant-1="Service" data-participant-2="FlightRepo"><polygon fill="#181818" points="937.9727,737.0234,947.9727,741.0234,937.9727,745.0234,941.9727,741.0234" style="stroke:#181818;stroke-width:1;"/><line style="stroke:#181818;stroke-width:1;" x1="365.106" x2="943.9727" y1="741.0234" y2="741.0234"/><text fill="#000000" font-family="sans-serif" font-size="13" lengthAdjust="spacing" textLength="187.1353" x="372.106" y="718.4697">findOverlappingFlightsWithLock(</text><text fill="#000000" font-family="sans-serif" font-size="13" lengthAdjust="spacing" textLength="248.5552" x="372.106" y="735.7607">aircraft, bufferedDeparture, bufferedArrival)</text></g><g class="message" data-participant-1="FlightRepo" data-participant-2="Service"><polygon fill="#181818" points="376.106,768.3145,366.106,772.3145,376.106,776.3145,372.106,772.3145" style="stroke:#181818;stroke-width:1;"/><line style="stroke:#181818;stroke-width:1;stroke-dasharray:2,2;" x1="370.106" x2="948.9727" y1="772.3145" y2="772.3145"/><text fill="#000000" font-family="sans-serif" font-size="13" lengthAdjust="spacing" textLength="128.6416" x="382.106" y="767.0518">List&lt;ScheduledFlight&gt;</text></g><g class="message" data-participant-1="Service" data-participant-2="Service"><line style="stroke:#181818;stroke-width:1;" x1="365.106" x2="407.106" y1="803.6055" y2="803.6055"/><line style="stroke:#181818;stroke-width:1;" x1="407.106" x2="407.106" y1="803.6055" y2="816.6055"/><line style="stroke:#181818;stroke-width:1;" x1="366.106" x2="407.106" y1="816.6055" y2="816.6055"/><polygon fill="#181818" points="376.106,812.6055,366.106,816.6055,376.106,820.6055,372.106,816.6055" style="stroke:#181818;stroke-width:1;"/><text fill="#000000" font-family="sans-serif" font-size="13" lengthAdjust="spacing" textLength="156.0571" x="372.106" y="798.3428">validate overlaps.isEmpty()</text></g><g class="message" data-participant-1="Service" data-participant-2="Service"><line style="stroke:#181818;stroke-width:1;" x1="365.106" x2="407.106" y1="865.1875" y2="865.1875"/><line style="stroke:#181818;stroke-width:1;" x1="407.106" x2="407.106" y1="865.1875" y2="878.1875"/><line style="stroke:#181818;stroke-width:1;" x1="366.106" x2="407.106" y1="878.1875" y2="878.1875"/><polygon fill="#181818" points="376.106,874.1875,366.106,878.1875,376.106,882.1875,372.106,878.1875" style="stroke:#181818;stroke-width:1;"/><text fill="#000000" font-family="sans-serif" font-size="13" lengthAdjust="spacing" textLength="205.2134" x="372.106" y="842.6338">new ScheduledFlight(route, aircraft,</text><text fill="#000000" font-family="sans-serif" font-size="13" lengthAdjust="spacing" textLength="160.3735" x="372.106" y="859.9248">departureTime, arrivalTime)</text></g><g class="message" data-participant-1="Service" data-participant-2="FlightRepo"><polygon fill="#181818" points="937.9727,905.4785,947.9727,909.4785,937.9727,913.4785,941.9727,909.4785" style="stroke:#181818;stroke-width:1;"/><line style="stroke:#181818;stroke-width:1;" x1="365.106" x2="943.9727" y1="909.4785" y2="909.4785"/><text fill="#000000" font-family="sans-serif" font-size="13" lengthAdjust="spacing" textLength="127.1753" x="372.106" y="904.2158">save(scheduledFlight)</text></g><g class="message" data-participant-1="FlightRepo" data-participant-2="Service"><polygon fill="#181818" points="376.106,936.7695,366.106,940.7695,376.106,944.7695,372.106,940.7695" style="stroke:#181818;stroke-width:1;"/><line style="stroke:#181818;stroke-width:1;stroke-dasharray:2,2;" x1="370.106" x2="948.9727" y1="940.7695" y2="940.7695"/><text fill="#000000" font-family="sans-serif" font-size="13" lengthAdjust="spacing" textLength="93.228" x="382.106" y="935.5068">ScheduledFlight</text></g><g class="message" data-participant-1="Service" data-participant-2="Controller"><polygon fill="#181818" points="103.5444,968.0605,93.5444,972.0605,103.5444,976.0605,99.5444,972.0605" style="stroke:#181818;stroke-width:1;"/><line style="stroke:#181818;stroke-width:1;stroke-dasharray:2,2;" x1="97.5444" x2="364.106" y1="972.0605" y2="972.0605"/><text fill="#000000" font-family="sans-serif" font-size="13" lengthAdjust="spacing" textLength="93.228" x="109.5444" y="966.7979">ScheduledFlight</text></g><g class="message" data-participant-1="Controller" data-participant-2="Assembler"><polygon fill="#181818" points="1147.9614,999.3516,1157.9614,1003.3516,1147.9614,1007.3516,1151.9614,1003.3516" style="stroke:#181818;stroke-width:1;"/><line style="stroke:#181818;stroke-width:1;" x1="92.5444" x2="1153.9614" y1="1003.3516" y2="1003.3516"/><text fill="#000000" font-family="sans-serif" font-size="13" lengthAdjust="spacing" textLength="145.9644" x="99.5444" y="998.0889">toModel(scheduledFlight)</text></g><g class="message" data-participant-1="Assembler" data-participant-2="Controller"><polygon fill="#181818" points="103.5444,1047.9336,93.5444,1051.9336,103.5444,1055.9336,99.5444,1051.9336" style="stroke:#181818;stroke-width:1;"/><line style="stroke:#181818;stroke-width:1;stroke-dasharray:2,2;" x1="97.5444" x2="1158.9614" y1="1051.9336" y2="1051.9336"/><text fill="#000000" font-family="sans-serif" font-size="13" lengthAdjust="spacing" textLength="179.207" x="109.5444" y="1029.3799">ScheduledFlightResponseDTO</text><text fill="#000000" font-family="sans-serif" font-size="13" lengthAdjust="spacing" textLength="127.1309" x="109.5444" y="1046.6709">(with HATEOAS links)</text></g><g class="message" data-participant-1="Controller" data-participant-2="ATCC"><polygon fill="#181818" points="1293.3472,1096.5156,1303.3472,1100.5156,1293.3472,1104.5156,1297.3472,1100.5156" style="stroke:#181818;stroke-width:1;"/><line style="stroke:#181818;stroke-width:1;stroke-dasharray:2,2;" x1="92.5444" x2="1299.3472" y1="1100.5156" y2="1100.5156"/><text fill="#000000" font-family="sans-serif" font-size="13" lengthAdjust="spacing" textLength="71.5508" x="99.5444" y="1077.9619">201 Created</text><text fill="#000000" font-family="sans-serif" font-size="13" lengthAdjust="spacing" textLength="179.207" x="99.5444" y="1095.2529">ScheduledFlightResponseDTO</text></g><!--SRC=[hLHTRzem57tFhx1ug42YrRR7gKLBqqoBH4iLelObqcJY2xrgi3FReUFVxoQG3xC2dRIdnFQvvvxxMN1jCSE2Iyi6y-m5H9c3-9xZwiK6IbgjyXpqW773kgDNdB2QWzvW1hN9_j_5xs2nAYt4K2Y3Lkbj3M_lN0CVTQRvqXwW-zSd5HtOTPSdhUwLWDmt1jQB9WFjoVEwPB3BIHCd-yhCdcJ7CTHLH94OCzwANQ6ncbjKSfnA0PM4KaE2Qo2KrhZXUNKOULx3wZYWPnJSGX_B9imXSapRf9Bn4gMutKQYqJNokjTBnysig1Jo_BfNhOd3sqz_d_gzI4UUWpxYgi5CpeLUgxyobjlIi9iRvWT9z1IUCL8QLoXxLhF7CFQJQFRWJrDvSK4fD1PbhVTzrCSSP40zjSIi9ZAfpAXJE4hJji3Lkkgi1qvrEatO5_J_M3i3_ZlcSaNTSxFFgA22SPbzc85d5ZSGy89dQBUfR8dMA9lR67wLg45ybBDNrIS_clgtqz3pfAhokw5XsvkE-rFCs2COWsjIZncRgkoL3R_LdyTmFe_ketaI1J-VuoW9HmGkD6n0MiCeXrcfDVqpeKgQwyk5KgyeLnv8mIgVJYDs7lVjFYD1EIyAijYzcMUqBvNZOIgRWCPiKIwNG1cuQqQqk_9tCppoUjpkS4mfgEk3pNHsFjHEcBb24wuBknqUMoOItjW1-MurT0lh7vQKao33Dp0qBlU9E0zKz7W9rbksxo3TLTpkQ89QLI_nlsLqe7FqCPY21WxkabagXszKN_R3JyAPFsSvobSpSlqJsy1FWc10J5y-VMQ11Yg8IELnMkyF]--></g></svg>