<svg xmlns="http://www.w3.org/2000/svg" xmlns:xlink="http://www.w3.org/1999/xlink" contentStyleType="text/css" data-diagram-type="DESCRIPTION" height="652px" preserveAspectRatio="none" style="width:615px;height:652px;background:#FFFFFF;" version="1.1" viewBox="0 0 615 652" width="615px" zoomAndPan="magnify"><title>Use Case Diagram - WP #1A: Aircraft Management</title><defs/><g><g class="title" data-source-line="4"><text fill="#000000" font-family="sans-serif" font-size="14" font-weight="bold" lengthAdjust="spacing" textLength="348.2732" x="126.6234" y="24.9659">Use Case Diagram - WP #1A: Aircraft Management</text></g><!--cluster AISafe System--><g class="cluster" data-entity="AISafe System" data-source-line="14" data-uid="ent0005" id="cluster_AISafe System"><rect fill="none" height="599.44" rx="2.5" ry="2.5" style="stroke:#181818;stroke-width:1;" width="282" x="327.52" y="47.0679"/><text fill="#000000" font-family="sans-serif" font-size="14" font-weight="bold" lengthAdjust="spacing" textLength="98.4057" x="419.3172" y="64.0339">AISafe System</text></g><!--entity UC1--><g class="entity" data-entity="UC1" data-source-line="15" data-uid="ent0006" id="entity_UC1"><ellipse cx="464.5211" cy="110.2901" fill="#F1F1F1" rx="114.1111" ry="25.2222" style="stroke:#181818;stroke-width:0.5;"/><text fill="#000000" font-family="sans-serif" font-size="14" lengthAdjust="spacing" textLength="200.7312" x="364.1554" y="116.3241">US101: Register Aircraft Model</text></g><!--entity UC2--><g class="entity" data-entity="UC2" data-source-line="16" data-uid="ent0007" id="entity_UC2"><ellipse cx="472.5169" cy="258.8833" fill="#F1F1F1" rx="120.9269" ry="26.5854" style="stroke:#181818;stroke-width:0.5;"/><text fill="#000000" font-family="sans-serif" font-size="14" lengthAdjust="spacing" textLength="215.7252" x="364.6543" y="264.9172">US102: Register Aircraft Instance</text></g><!--entity UC3--><g class="entity" data-entity="UC3" data-source-line="17" data-uid="ent0008" id="entity_UC3"><ellipse cx="448.5181" cy="391.4195" fill="#F1F1F1" rx="105.3081" ry="23.4616" style="stroke:#181818;stroke-width:0.5;"/><text fill="#000000" font-family="sans-serif" font-size="14" lengthAdjust="spacing" textLength="181.0473" x="357.9944" y="397.4535">US103: View Aircraft Details</text></g><!--entity UC4--><g class="entity" data-entity="UC4" data-source-line="18" data-uid="ent0009" id="entity_UC4"><ellipse cx="448.5211" cy="495.3261" fill="#F1F1F1" rx="90.2411" ry="20.4482" style="stroke:#181818;stroke-width:0.5;"/><text fill="#000000" font-family="sans-serif" font-size="14" lengthAdjust="spacing" textLength="146.1314" x="375.4554" y="501.3601">US104: Search Aircraft</text></g><!--entity UC5--><g class="entity" data-entity="UC5" data-source-line="19" data-uid="ent0010" id="entity_UC5"><ellipse cx="468.5189" cy="603.1517" fill="#F1F1F1" rx="124.8189" ry="27.3638" style="stroke:#181818;stroke-width:0.5;"/><text fill="#000000" font-family="sans-serif" font-size="14" lengthAdjust="spacing" textLength="224.2092" x="356.4143" y="609.1857">US105: Update Operational Status</text></g><!--entity Admin--><g class="entity" data-entity="Admin" data-source-line="8" data-uid="ent0002" id="entity_Admin"><ellipse cx="179.5207" cy="79.2579" fill="#F1F1F1" rx="8" ry="8" style="stroke:#181818;stroke-width:0.5;"/><path d="M179.5207,87.2579 L179.5207,114.2579 M166.5207,95.2579 L192.5207,95.2579 M179.5207,114.2579 L166.5207,129.2579 M179.5207,114.2579 L192.5207,129.2579" fill="none" style="stroke:#181818;stroke-width:0.5;"/><text fill="#000000" font-family="sans-serif" font-size="14" lengthAdjust="spacing" textLength="131.5015" x="113.77" y="145.7239">Backoffice Operator</text></g><!--entity ATCC--><g class="entity" data-entity="ATCC" data-source-line="9" data-uid="ent0003" id="entity_ATCC"><ellipse cx="125.5176" cy="218.3279" fill="#F1F1F1" rx="8" ry="8" style="stroke:#181818;stroke-width:0.5;"/><path d="M125.5176,226.3279 L125.5176,253.3279 M112.5176,234.3279 L138.5176,234.3279 M125.5176,253.3279 L112.5176,268.3279 M125.5176,253.3279 L138.5176,268.3279" fill="none" style="stroke:#181818;stroke-width:0.5;"/><text fill="#000000" font-family="sans-serif" font-size="14" lengthAdjust="spacing" textLength="239.0351" x="6" y="284.7939">Air Transport Company Collaborator</text><text fill="#000000" font-family="sans-serif" font-size="14" lengthAdjust="spacing" textLength="42.8258" x="6" y="303.8618">(ATCC)</text></g><!--link Admin to ATCC--><!--link UC1 to UC2--><!--link UC2 to UC3--><!--link UC3 to UC4--><!--link UC4 to UC5--><!--link Admin to UC1--><g class="link" data-entity-1="Admin" data-entity-2="UC1" data-source-line="29" data-uid="lnk15" id="link_Admin_UC1"><path d="M245.76,110.2879 C280.51,110.2879 309.26,110.2879 344.01,110.2879" fill="none" id="Admin-to-UC1" style="stroke:#181818;stroke-width:1;"/><polygon fill="#181818" points="350.01,110.2879,341.01,106.2879,345.01,110.2879,341.01,114.2879,350.01,110.2879" style="stroke:#181818;stroke-width:1;"/></g><!--link Admin to UC3--><g class="link" data-entity-1="Admin" data-entity-2="UC3" data-source-line="30" data-uid="lnk16" id="link_Admin_UC3"><path d="M214,150.3179 C229.3,168.1179 247.26,189.6779 262.52,209.8279 C296.93,255.2679 293.86,276.0079 334.52,315.9579 C356.27,337.3379 379.8476,353.0888 403.0476,366.4188" fill="none" id="Admin-to-UC3" style="stroke:#181818;stroke-width:1;"/><polygon fill="#181818" points="408.25,369.4079,402.4392,361.4559,403.9147,366.917,398.4536,368.3925,408.25,369.4079" style="stroke:#181818;stroke-width:1;"/></g><!--link ATCC to UC2--><g class="link" data-entity-1="ATCC" data-entity-2="UC2" data-source-line="32" data-uid="lnk17" id="link_ATCC_UC2"><path d="M245.48,258.8879 C280.81,258.8879 310.13,258.8879 345.46,258.8879" fill="none" id="ATCC-to-UC2" style="stroke:#181818;stroke-width:1;"/><polygon fill="#181818" points="351.46,258.8879,342.46,254.8879,346.46,258.8879,342.46,262.8879,351.46,258.8879" style="stroke:#181818;stroke-width:1;"/></g><!--link ATCC to UC3--><g class="link" data-entity-1="ATCC" data-entity-2="UC3" data-source-line="33" data-uid="lnk18" id="link_ATCC_UC3"><path d="M245.33,308.3079 C298.48,329.7879 352.5169,351.6303 393.3569,368.1303" fill="none" id="ATCC-to-UC3" style="stroke:#181818;stroke-width:1;"/><polygon fill="#181818" points="398.92,370.3779,392.0737,363.2978,394.2841,368.5049,389.0769,370.7153,398.92,370.3779" style="stroke:#181818;stroke-width:1;"/></g><!--link ATCC to UC4--><g class="link" data-entity-1="ATCC" data-entity-2="UC4" data-source-line="34" data-uid="lnk19" id="link_ATCC_UC4"><path d="M185.33,308.4079 C224.55,339.6779 277.31,380.7279 325.52,414.8879 C356.32,436.7079 387.6859,456.7777 412.8659,472.4477" fill="none" id="ATCC-to-UC4" style="stroke:#181818;stroke-width:1;"/><polygon fill="#181818" points="417.96,475.6179,412.4323,467.4666,413.7149,472.9761,408.2054,474.2587,417.96,475.6179" style="stroke:#181818;stroke-width:1;"/></g><!--link ATCC to UC5--><g class="link" data-entity-1="ATCC" data-entity-2="UC5" data-source-line="35" data-uid="lnk20" id="link_ATCC_UC5"><path d="M159.63,308.1679 C199.33,362.3779 268.67,451.1979 340.52,515.7779 C366.54,539.1679 394.1824,557.9996 420.0424,573.9396" fill="none" id="ATCC-to-UC5" style="stroke:#181818;stroke-width:1;"/><polygon fill="#181818" points="425.15,577.0879,419.5874,568.9603,420.8936,574.4643,415.3896,575.7705,425.15,577.0879" style="stroke:#181818;stroke-width:1;"/></g><!--SRC=[VLBBRjim4BppAnRk8Ut1G1t95nq2E0eAv52qYEBsaFImfbOI4Mefa7G28yY_T_Nm0wxHYxJKp2ntPnHU37VeiOKEzGlMLCIT9V2a8t9jIOK38JHOkZV3DLHe0oaLJHJgEX3aA8yxWtNFcyFld_1fiSfWPRpsM4NuZYojM-Aer1NadZ0I88FXLnFCHhfit9PBz3k83YhdDS4h-MWqMa1hQkwru2f07PqFu1XYGs2fYYgwckJWuLt1YCFiLfPnLMMapu-EFCh76M20LTaQFj9aG7ZqoA5pFaBksWvv9szhSUC6rJD_NZtc-PTHBPNwK4CJc3yrfYo9_uWfFByPGTcks8L8BTnE2wc3bNBTVO4LJOpPCEysaExDcwsBnTT51WzK6q7zYNUk93jSlyuNvuhhIufx3dAZfabqVIvAClXbwEqekAE8neQ9dvppqmmAGg-RWs9YfkVCPGRhhkp37LqtZYN08cBSxhilbOYkuDj_Cjx_KK6OilC_JeyhoVC2aWn8SW591oIzW2mbKmdkWUmmSMXC5_OXtmokdnmIfVgaOPhZM2SdTNfIBzLV]--></g></svg>