<svg xmlns="http://www.w3.org/2000/svg" xmlns:xlink="http://www.w3.org/1999/xlink" contentStyleType="text/css" data-diagram-type="SEQUENCE" height="471px" preserveAspectRatio="none" style="width:486px;height:471px;background:#FFFFFF;" version="1.1" viewBox="0 0 486 471" width="486px" zoomAndPan="magnify"><defs/><g><rect fill="none" height="269.7481" style="stroke:#000000;stroke-width:1.5;" width="469.3631" x="10" y="101.0679"/><g><title>ATCC</title><rect fill="#000000" fill-opacity="0.00000" height="303.7481" width="8" x="36.2129" y="84.0679"/><line style="stroke:#181818;stroke-width:0.5;stroke-dasharray:5,5;" x1="40" x2="40" y1="84.0679" y2="387.816"/></g><g><title>AISafe System</title><rect fill="#000000" fill-opacity="0.00000" height="303.7481" width="8" x="411.7852" y="84.0679"/><line style="stroke:#181818;stroke-width:0.5;stroke-dasharray:5,5;" x1="415.2074" x2="415.2074" y1="84.0679" y2="387.816"/></g><g class="participant participant-head" data-participant="ATCC"><text fill="#000000" font-family="sans-serif" font-size="14" lengthAdjust="spacing" textLength="34.4259" x="20" y="79.9659">ATCC</text><ellipse cx="40.2129" cy="13.5" fill="#E2E2F0" rx="8" ry="8" style="stroke:#181818;stroke-width:0.5;"/><path d="M40.2129,21.5 L40.2129,48.5 M27.2129,29.5 L53.2129,29.5 M40.2129,48.5 L27.2129,63.5 M40.2129,48.5 L53.2129,63.5" fill="none" style="stroke:#181818;stroke-width:0.5;"/></g><g class="participant participant-tail" data-participant="ATCC"><text fill="#000000" font-family="sans-serif" font-size="14" lengthAdjust="spacing" textLength="34.4259" x="20" y="401.7819">ATCC</text><ellipse cx="40.2129" cy="414.3839" fill="#E2E2F0" rx="8" ry="8" style="stroke:#181818;stroke-width:0.5;"/><path d="M40.2129,422.3839 L40.2129,449.3839 M27.2129,430.3839 L53.2129,430.3839 M40.2129,449.3839 L27.2129,464.3839 M40.2129,449.3839 L53.2129,464.3839" fill="none" style="stroke:#181818;stroke-width:0.5;"/></g><g class="participant participant-head" data-participant="System"><rect fill="#E2E2F0" height="33.0679" rx="2.5" ry="2.5" style="stroke:#181818;stroke-width:0.5;" width="107.1557" x="362.2074" y="50"/><text fill="#000000" font-family="sans-serif" font-size="14" lengthAdjust="spacing" textLength="93.1557" x="369.2074" y="71.9659">AISafe System</text></g><g class="participant participant-tail" data-participant="System"><rect fill="#E2E2F0" height="33.0679" rx="2.5" ry="2.5" style="stroke:#181818;stroke-width:0.5;" width="107.1557" x="362.2074" y="386.816"/><text fill="#000000" font-family="sans-serif" font-size="14" lengthAdjust="spacing" textLength="93.1557" x="369.2074" y="408.7819">AISafe System</text></g><path d="M10,101.0679 L71.5588,101.0679 L71.5588,110.7739 L61.5588,120.7739 L10,120.7739 L10,101.0679" fill="#EEEEEE" style="stroke:#000000;stroke-width:1.5;"/><rect fill="none" height="269.7481" style="stroke:#000000;stroke-width:1.5;" width="469.3631" x="10" y="101.0679"/><text fill="#000000" font-family="sans-serif" font-size="13" font-weight="bold" lengthAdjust="spacing" textLength="16.5588" x="25" y="115.9649">alt</text><text fill="#000000" font-family="sans-serif" font-size="11" font-weight="bold" lengthAdjust="spacing" textLength="132.3924" x="86.5588" y="114.8268">[cost report per aircraft]</text><g class="message" data-participant-1="ATCC" data-participant-2="System"><polygon fill="#181818" points="403.7852,140.4799,413.7852,144.4799,403.7852,148.4799,407.7852,144.4799" style="stroke:#181818;stroke-width:1;"/><line style="stroke:#181818;stroke-width:1;" x1="40.2129" x2="409.7852" y1="144.4799" y2="144.4799"/><text fill="#000000" font-family="sans-serif" font-size="13" lengthAdjust="spacing" textLength="338.6893" x="47.2129" y="138.6709">GET /api/maintenance-records/reports/cost-per-aircraft</text></g><g class="message" data-participant-1="System" data-participant-2="ATCC"><polygon fill="#181818" points="51.2129,225.304,41.2129,229.304,51.2129,233.304,47.2129,229.304" style="stroke:#181818;stroke-width:1;"/><line style="stroke:#181818;stroke-width:1;stroke-dasharray:2,2;" x1="45.2129" x2="414.7852" y1="229.304" y2="229.304"/><text fill="#000000" font-family="sans-serif" font-size="13" lengthAdjust="spacing" textLength="43.888" x="57.2129" y="170.377">200 OK</text><text fill="#000000" font-family="sans-serif" font-size="13" lengthAdjust="spacing" textLength="228.0332" x="57.2129" y="188.083">List&lt;MaintenanceCostSummaryDTO&gt;</text><text fill="#000000" font-family="sans-serif" font-size="13" lengthAdjust="spacing" textLength="351.5723" x="57.2129" y="205.789">[{key: registrationNumber, estimatedCost, actualCost}, ...]</text><text fill="#000000" font-family="sans-serif" font-size="13" lengthAdjust="spacing" textLength="305.4222" x="57.2129" y="223.495">sorted by actualCost descending &#8212; may be empty</text></g><line style="stroke:#000000;stroke-width:1;stroke-dasharray:2,2;" x1="10" x2="479.3631" y1="238.304" y2="238.304"/><text fill="#000000" font-family="sans-serif" font-size="11" font-weight="bold" lengthAdjust="spacing" textLength="169.7179" x="15" y="250.0629">[cost report per aircraft model]</text><g class="message" data-participant-1="ATCC" data-participant-2="System"><polygon fill="#181818" points="403.7852,273.9919,413.7852,277.9919,403.7852,281.9919,407.7852,277.9919" style="stroke:#181818;stroke-width:1;"/><line style="stroke:#181818;stroke-width:1;" x1="40.2129" x2="409.7852" y1="277.9919" y2="277.9919"/><text fill="#000000" font-family="sans-serif" font-size="13" lengthAdjust="spacing" textLength="333.3072" x="47.2129" y="272.1829">GET /api/maintenance-records/reports/cost-per-model</text></g><g class="message" data-participant-1="System" data-participant-2="ATCC"><polygon fill="#181818" points="51.2129,358.816,41.2129,362.816,51.2129,366.816,47.2129,362.816" style="stroke:#181818;stroke-width:1;"/><line style="stroke:#181818;stroke-width:1;stroke-dasharray:2,2;" x1="45.2129" x2="414.7852" y1="362.816" y2="362.816"/><text fill="#000000" font-family="sans-serif" font-size="13" lengthAdjust="spacing" textLength="43.888" x="57.2129" y="303.8889">200 OK</text><text fill="#000000" font-family="sans-serif" font-size="13" lengthAdjust="spacing" textLength="228.0332" x="57.2129" y="321.595">List&lt;MaintenanceCostSummaryDTO&gt;</text><text fill="#000000" font-family="sans-serif" font-size="13" lengthAdjust="spacing" textLength="304.5902" x="57.2129" y="339.301">[{key: modelName, estimatedCost, actualCost}, ...]</text><text fill="#000000" font-family="sans-serif" font-size="13" lengthAdjust="spacing" textLength="305.4222" x="57.2129" y="357.007">sorted by actualCost descending &#8212; may be empty</text></g><!--SRC=[jT2_IWD140Rm_fxY8_Nz2PP10dAAY9eKIUTPJ7OdOV5szzYT58S8FeHFw9EuTmb42olDL0CpysFuI8aFc5ojwte2YXYQhACWHfcEdAJHtOgsZ5KVXUsuSsYpZ5g1yb4GkFD1q740cQ02RIL3gW53CJyUO8RRcpKgwanboJXXHqvn4LZve6DrK68ra4MoYX_MqIWIDx8pN4odMDutxi54kNmyWNMwN-sjfT1VhvVpnZszld0_Ir_kqcOWCTujzdR38GT7CPQ4zN2KWvJigHtwjnnbMJutBgQVM6FJVnj2SrJij74xVBv_m5AF3ODj9tt6RUHVOu7rcjl_2ES4_JsPqLgGvVC4udJs1G00]--></g></svg>