<svg xmlns="http://www.w3.org/2000/svg" xmlns:xlink="http://www.w3.org/1999/xlink" contentStyleType="text/css" data-diagram-type="SEQUENCE" height="834px" preserveAspectRatio="none" style="width:1073px;height:834px;background:#FFFFFF;" version="1.1" viewBox="0 0 1073 834" width="1073px" zoomAndPan="magnify"><defs/><g><rect fill="none" height="426.2782" style="stroke:#000000;stroke-width:1.5;" width="1056.7224" x="10" y="56.0679"/><g><title>MaintenanceRecordController</title><rect fill="#000000" fill-opacity="0.00000" height="757.0443" width="8" x="121.9516" y="39.0679"/><line style="stroke:#181818;stroke-width:0.5;stroke-dasharray:5,5;" x1="125" x2="125" y1="39.0679" y2="796.1123"/></g><g><title>MaintenanceRecordService</title><rect fill="#000000" fill-opacity="0.00000" height="757.0443" width="8" x="347.1138" y="39.0679"/><line style="stroke:#181818;stroke-width:0.5;stroke-dasharray:5,5;" x1="350.8992" x2="350.8992" y1="39.0679" y2="796.1123"/></g><g><title>MaintenanceRecordRepository</title><rect fill="#000000" fill-opacity="0.00000" height="757.0443" width="8" x="720.7331" y="39.0679"/><line style="stroke:#181818;stroke-width:0.5;stroke-dasharray:5,5;" x1="724.6465" x2="724.6465" y1="39.0679" y2="796.1123"/></g><g><title>ATCC</title><rect fill="#000000" fill-opacity="0.00000" height="757.0443" width="8" x="863.0326" y="39.0679"/><line style="stroke:#181818;stroke-width:0.5;stroke-dasharray:5,5;" x1="866.8197" x2="866.8197" y1="39.0679" y2="796.1123"/></g><g class="participant participant-head" data-participant="Controller"><rect fill="#E2E2F0" height="33.0679" rx="2.5" ry="2.5" style="stroke:#181818;stroke-width:0.5;" width="211.9032" x="20" y="5"/><text fill="#000000" font-family="sans-serif" font-size="14" lengthAdjust="spacing" textLength="197.9032" x="27" y="26.9659">MaintenanceRecordController</text></g><g class="participant participant-tail" data-participant="Controller"><rect fill="#E2E2F0" height="33.0679" rx="2.5" ry="2.5" style="stroke:#181818;stroke-width:0.5;" width="211.9032" x="20" y="795.1123"/><text fill="#000000" font-family="sans-serif" font-size="14" lengthAdjust="spacing" textLength="197.9032" x="27" y="817.0782">MaintenanceRecordController</text></g><g class="participant participant-head" data-participant="Service"><rect fill="#E2E2F0" height="33.0679" rx="2.5" ry="2.5" style="stroke:#181818;stroke-width:0.5;" width="192.4293" x="254.8992" y="5"/><text fill="#000000" font-family="sans-serif" font-size="14" lengthAdjust="spacing" textLength="178.4293" x="261.8992" y="26.9659">MaintenanceRecordService</text></g><g class="participant participant-tail" data-participant="Service"><rect fill="#E2E2F0" height="33.0679" rx="2.5" ry="2.5" style="stroke:#181818;stroke-width:0.5;" width="192.4293" x="254.8992" y="795.1123"/><text fill="#000000" font-family="sans-serif" font-size="14" lengthAdjust="spacing" textLength="178.4293" x="261.8992" y="817.0782">MaintenanceRecordService</text></g><g class="participant participant-head" data-participant="Repo"><rect fill="#E2E2F0" height="33.0679" rx="2.5" ry="2.5" style="stroke:#181818;stroke-width:0.5;" width="216.1732" x="616.6465" y="5"/><text fill="#000000" font-family="sans-serif" font-size="14" lengthAdjust="spacing" textLength="202.1732" x="623.6465" y="26.9659">MaintenanceRecordRepository</text></g><g class="participant participant-tail" data-participant="Repo"><rect fill="#E2E2F0" height="33.0679" rx="2.5" ry="2.5" style="stroke:#181818;stroke-width:0.5;" width="216.1732" x="616.6465" y="795.1123"/><text fill="#000000" font-family="sans-serif" font-size="14" lengthAdjust="spacing" textLength="202.1732" x="623.6465" y="817.0782">MaintenanceRecordRepository</text></g><g class="participant participant-head" data-participant="ATCC"><rect fill="#E2E2F0" height="33.0679" rx="2.5" ry="2.5" style="stroke:#181818;stroke-width:0.5;" width="48.4259" x="842.8197" y="5"/><text fill="#000000" font-family="sans-serif" font-size="14" lengthAdjust="spacing" textLength="34.4259" x="849.8197" y="26.9659">ATCC</text></g><g class="participant participant-tail" data-participant="ATCC"><rect fill="#E2E2F0" height="33.0679" rx="2.5" ry="2.5" style="stroke:#181818;stroke-width:0.5;" width="48.4259" x="842.8197" y="795.1123"/><text fill="#000000" font-family="sans-serif" font-size="14" lengthAdjust="spacing" textLength="34.4259" x="849.8197" y="817.0782">ATCC</text></g><path d="M10,56.0679 L71.5588,56.0679 L71.5588,65.7739 L61.5588,75.7739 L10,75.7739 L10,56.0679" fill="#EEEEEE" style="stroke:#000000;stroke-width:1.5;"/><rect fill="none" height="426.2782" style="stroke:#000000;stroke-width:1.5;" width="1056.7224" x="10" y="56.0679"/><text fill="#000000" font-family="sans-serif" font-size="13" font-weight="bold" lengthAdjust="spacing" textLength="16.5588" x="25" y="70.9649">alt</text><text fill="#000000" font-family="sans-serif" font-size="11" font-weight="bold" lengthAdjust="spacing" textLength="170.1991" x="86.5588" y="69.8268">[GET /reports/cost-per-aircraft]</text><g class="message" data-participant-1="Controller" data-participant-2="Service"><polygon fill="#181818" points="339.1138,95.4799,349.1138,99.4799,339.1138,103.4799,343.1138,99.4799" style="stroke:#181818;stroke-width:1;"/><line style="stroke:#181818;stroke-width:1;" x1="125.9516" x2="345.1138" y1="99.4799" y2="99.4799"/><text fill="#000000" font-family="sans-serif" font-size="13" lengthAdjust="spacing" textLength="161.8241" x="132.9516" y="93.6709">getCostReportPerAircraft()</text></g><g class="message" data-participant-1="Service" data-participant-2="Repo"><polygon fill="#181818" points="712.7331,127.186,722.7331,131.186,712.7331,135.186,716.7331,131.186" style="stroke:#181818;stroke-width:1;"/><line style="stroke:#181818;stroke-width:1;" x1="351.1138" x2="718.7331" y1="131.186" y2="131.186"/><text fill="#000000" font-family="sans-serif" font-size="13" lengthAdjust="spacing" textLength="165.6591" x="358.1138" y="125.377">findCostReportPerAircraft()</text></g><path d="M729,144.186 L729,242.186 L1056,242.186 L1056,154.186 L1046,144.186 L729,144.186" fill="#FEFFDD" style="stroke:#181818;stroke-width:0.5;"/><path d="M1046,144.186 L1046,154.186 L1056,154.186 L1046,144.186" fill="#FEFFDD" style="stroke:#181818;stroke-width:0.5;"/><text fill="#000000" font-family="sans-serif" font-size="13" lengthAdjust="spacing" textLength="264.7193" x="735" y="163.083">JPQL: SELECT r.aircraft.registrationNumber,</text><text fill="#000000" font-family="sans-serif" font-size="13" lengthAdjust="spacing" textLength="249.0153" x="778.9401" y="180.789">SUM(r.estimatedCost), SUM(r.actualCost)</text><text fill="#000000" font-family="sans-serif" font-size="13" lengthAdjust="spacing" textLength="171.2232" x="755.28" y="198.495">FROM MaintenanceRecord r</text><text fill="#000000" font-family="sans-serif" font-size="13" lengthAdjust="spacing" textLength="246.4022" x="755.28" y="216.201">GROUP BY r.aircraft.registrationNumber</text><text fill="#000000" font-family="sans-serif" font-size="13" lengthAdjust="spacing" textLength="286.4423" x="755.28" y="233.907">ORDER BY SUM(r.actualCost) DESC NULLS LAST</text><g class="message" data-participant-1="Repo" data-participant-2="Service"><polygon fill="#181818" points="362.1138,285.1281,352.1138,289.1281,362.1138,293.1281,358.1138,289.1281" style="stroke:#181818;stroke-width:1;"/><line style="stroke:#181818;stroke-width:1;stroke-dasharray:2,2;" x1="356.1138" x2="723.7331" y1="289.1281" y2="289.1281"/><text fill="#000000" font-family="sans-serif" font-size="13" lengthAdjust="spacing" textLength="84.2791" x="368.1138" y="265.6131">List&lt;Object[]&gt;</text><text fill="#000000" font-family="sans-serif" font-size="13" lengthAdjust="spacing" textLength="195.1692" x="368.1138" y="283.3191">[key, estimatedCost, actualCost]</text></g><line style="stroke:#000000;stroke-width:1;stroke-dasharray:2,2;" x1="10" x2="1066.7224" y1="298.1281" y2="298.1281"/><text fill="#000000" font-family="sans-serif" font-size="11" font-weight="bold" lengthAdjust="spacing" textLength="164.6139" x="15" y="309.887">[GET /reports/cost-per-model]</text><g class="message" data-participant-1="Controller" data-participant-2="Service"><polygon fill="#181818" points="339.1138,333.816,349.1138,337.816,339.1138,341.816,343.1138,337.816" style="stroke:#181818;stroke-width:1;"/><line style="stroke:#181818;stroke-width:1;" x1="125.9516" x2="345.1138" y1="337.816" y2="337.816"/><text fill="#000000" font-family="sans-serif" font-size="13" lengthAdjust="spacing" textLength="200.1612" x="132.9516" y="332.007">getCostReportPerAircraftModel()</text></g><g class="message" data-participant-1="Service" data-participant-2="Repo"><polygon fill="#181818" points="712.7331,365.522,722.7331,369.522,712.7331,373.522,716.7331,369.522" style="stroke:#181818;stroke-width:1;"/><line style="stroke:#181818;stroke-width:1;" x1="351.1138" x2="718.7331" y1="369.522" y2="369.522"/><text fill="#000000" font-family="sans-serif" font-size="13" lengthAdjust="spacing" textLength="203.9962" x="358.1138" y="363.713">findCostReportPerAircraftModel()</text></g><path d="M729,382.522 L729,427.522 L972,427.522 L972,392.522 L962,382.522 L729,382.522" fill="#FEFFDD" style="stroke:#181818;stroke-width:0.5;"/><path d="M962,382.522 L962,392.522 L972,392.522 L962,382.522" fill="#FEFFDD" style="stroke:#181818;stroke-width:0.5;"/><text fill="#000000" font-family="sans-serif" font-size="13" lengthAdjust="spacing" textLength="151.6321" x="735" y="401.419">Same shape, grouped by</text><text fill="#000000" font-family="sans-serif" font-size="13" lengthAdjust="spacing" textLength="222.2742" x="735" y="419.125">r.aircraft.model.modelName instead</text><g class="message" data-participant-1="Repo" data-participant-2="Service"><polygon fill="#181818" points="362.1138,470.3461,352.1138,474.3461,362.1138,478.3461,358.1138,474.3461" style="stroke:#181818;stroke-width:1;"/><line style="stroke:#181818;stroke-width:1;stroke-dasharray:2,2;" x1="356.1138" x2="723.7331" y1="474.3461" y2="474.3461"/><text fill="#000000" font-family="sans-serif" font-size="13" lengthAdjust="spacing" textLength="84.2791" x="368.1138" y="450.831">List&lt;Object[]&gt;</text><text fill="#000000" font-family="sans-serif" font-size="13" lengthAdjust="spacing" textLength="195.1692" x="368.1138" y="468.5371">[key, estimatedCost, actualCost]</text></g><g class="message" data-participant-1="Service" data-participant-2="Service"><line style="stroke:#181818;stroke-width:1;" x1="351.1138" x2="393.1138" y1="530.7581" y2="530.7581"/><line style="stroke:#181818;stroke-width:1;" x1="393.1138" x2="393.1138" y1="530.7581" y2="543.7581"/><line style="stroke:#181818;stroke-width:1;" x1="352.1138" x2="393.1138" y1="543.7581" y2="543.7581"/><polygon fill="#181818" points="362.1138,539.7581,352.1138,543.7581,362.1138,547.7581,358.1138,543.7581" style="stroke:#181818;stroke-width:1;"/><text fill="#000000" font-family="sans-serif" font-size="13" lengthAdjust="spacing" textLength="102.4921" x="358.1138" y="507.2431">map each row to</text><text fill="#000000" font-family="sans-serif" font-size="13" lengthAdjust="spacing" textLength="359.6193" x="358.1138" y="524.9491">MaintenanceCostSummary(key, estimatedCost, actualCost)</text></g><path d="M356,556.7581 L356,636.7581 L585,636.7581 L585,566.7581 L575,556.7581 L356,556.7581" fill="#FEFFDD" style="stroke:#181818;stroke-width:0.5;"/><path d="M575,556.7581 L575,566.7581 L585,566.7581 L575,556.7581" fill="#FEFFDD" style="stroke:#181818;stroke-width:0.5;"/><text fill="#000000" font-family="sans-serif" font-size="13" lengthAdjust="spacing" textLength="142.0771" x="362" y="575.6551">Null-safety per column:</text><text fill="#000000" font-family="sans-serif" font-size="13" lengthAdjust="spacing" textLength="124.1891" x="362" y="593.3611">row[1]/row[2] != null</text><text fill="#000000" font-family="sans-serif" font-size="13" lengthAdjust="spacing" textLength="208.3252" x="362" y="611.0671">? ((Number) row[N]).doubleValue()</text><text fill="#000000" font-family="sans-serif" font-size="13" lengthAdjust="spacing" textLength="29.64" x="362" y="628.7732">: null</text><g class="message" data-participant-1="Service" data-participant-2="Controller"><polygon fill="#181818" points="136.9516,662.2882,126.9516,666.2882,136.9516,670.2882,132.9516,666.2882" style="stroke:#181818;stroke-width:1;"/><line style="stroke:#181818;stroke-width:1;stroke-dasharray:2,2;" x1="130.9516" x2="350.1138" y1="666.2882" y2="666.2882"/><text fill="#000000" font-family="sans-serif" font-size="13" lengthAdjust="spacing" textLength="201.1622" x="142.9516" y="660.4792">List&lt;MaintenanceCostSummary&gt;</text></g><g class="message" data-participant-1="Controller" data-participant-2="Controller"><line style="stroke:#181818;stroke-width:1;" x1="125.9516" x2="167.9516" y1="715.7002" y2="715.7002"/><line style="stroke:#181818;stroke-width:1;" x1="167.9516" x2="167.9516" y1="715.7002" y2="728.7002"/><line style="stroke:#181818;stroke-width:1;" x1="126.9516" x2="167.9516" y1="728.7002" y2="728.7002"/><polygon fill="#181818" points="136.9516,724.7002,126.9516,728.7002,136.9516,732.7002,132.9516,728.7002" style="stroke:#181818;stroke-width:1;"/><text fill="#000000" font-family="sans-serif" font-size="13" lengthAdjust="spacing" textLength="136.9031" x="132.9516" y="692.1852">map each summary to</text><text fill="#000000" font-family="sans-serif" font-size="13" lengthAdjust="spacing" textLength="192.0752" x="132.9516" y="709.8912">MaintenanceCostSummaryDTO</text></g><g class="message" data-participant-1="Controller" data-participant-2="ATCC"><polygon fill="#181818" points="855.0326,774.1123,865.0326,778.1123,855.0326,782.1123,859.0326,778.1123" style="stroke:#181818;stroke-width:1;"/><line style="stroke:#181818;stroke-width:1;stroke-dasharray:2,2;" x1="125.9516" x2="861.0326" y1="778.1123" y2="778.1123"/><text fill="#000000" font-family="sans-serif" font-size="13" lengthAdjust="spacing" textLength="43.888" x="132.9516" y="754.5972">200 OK</text><text fill="#000000" font-family="sans-serif" font-size="13" lengthAdjust="spacing" textLength="228.0332" x="132.9516" y="772.3032">List&lt;MaintenanceCostSummaryDTO&gt;</text></g><!--SRC=[jPDDZzem48Rl_XLJJY0HsEuHjLGqq9NQG6W2bIhWO981t3fsP3jTyU_hcF0HjatLIlKXYUrvvkETIKwLOGdBgJ3Gcb8c30eg4emmaIhrfJ1ASewg1LJ3TKloHYv6zOCbwA3g-mz4XBdKp4XrT52v9OHo0q-J1VILtIgZ-udKnijHUPIfHD6T8M3NDItmXkTuC80z6jy2aOFdg4OLrEuux6necTB40ZicqYP2I8EWsFvWGEvEEKArFiu_1mE89y74Nu3gdVFhATmpRHGrJ8fPaMrHTIzCRSNBQLlrK1kMKOCkZKwtEgM9AIXtHtVmXoYSmWinGTsPFKNXSWxllpPdTWU5qNWIbT2B960yYNsOBOCWXc0KBno88dK2kOqJrAjr8x3HteJRRvYOrMQu5gllUEn2hU0kN8Di246kyJVzpsIA_9-QFot9lv-0MwnX36AQ8UW3pR4BUoMB75FO7Y_ND_Ax2axFMGaneGtIzFz8QHqISbFjrLL6Sq2Q7439Pp1oBMw6gMJZ8ikeEhQR8tH8NPFpFr_cFoiuzpJTeJc2RHqaaXUP6BWx6tJrUjClNuyRUFKMX3LsD- -WtJvDPSTPpJQTNYgBBSSlb1TOTM9m0YvwNMkqHTvCHYNPhsiR4b8VeXfu4KYVh1j46Y_2kYlhgpLQ-7xB-dbyU83mqreq96Bv8Va9]--></g></svg>