<svg xmlns="http://www.w3.org/2000/svg" xmlns:xlink="http://www.w3.org/1999/xlink" contentStyleType="text/css" data-diagram-type="SEQUENCE" height="288px" preserveAspectRatio="none" style="width:451px;height:288px;background:#FFFFFF;" version="1.1" viewBox="0 0 451 288" width="451px" zoomAndPan="magnify"><title>System Sequence Diagram - US109: Change Operational Status</title><defs/><g><text fill="#000000" font-family="sans-serif" font-size="14" font-weight="bold" lengthAdjust="spacing" textLength="423.2402" x="10" y="30.1074">System Sequence Diagram - US109: Change Operational Status</text><g><title>Backoffice Operator</title><rect fill="#FFFFFF" height="54.582" style="stroke:#181818;stroke-width:1;" width="10" x="68.6709" y="133.2422"/></g><g><title>System</title><rect fill="#FFFFFF" height="31.291" style="stroke:#181818;stroke-width:1;" width="10" x="400.0933" y="156.5332"/></g><g><title>Backoffice Operator</title><rect fill="#000000" fill-opacity="0.00000" height="82.582" width="8" x="69.6709" y="123.2422"/><line style="stroke:#181818;stroke-width:0.5;stroke-dasharray:5,5;" x1="72.8091" x2="72.8091" y1="123.2422" y2="205.8242"/></g><g><title>System</title><rect fill="#000000" fill-opacity="0.00000" height="82.582" width="8" x="401.0933" y="123.2422"/><line style="stroke:#181818;stroke-width:0.5;stroke-dasharray:5,5;" x1="404.7554" x2="404.7554" y1="123.2422" y2="205.8242"/></g><g class="participant participant-head" data-participant="Admin"><text fill="#000000" font-family="sans-serif" font-size="14" lengthAdjust="spacing" textLength="123.7236" x="8.8091" y="119.7285">Backoffice Operator</text><ellipse cx="73.6709" cy="53.1211" fill="#E2E2F0" rx="8" ry="8" style="stroke:#181818;stroke-width:0.5;"/><path d="M73.6709,61.1211 L73.6709,88.1211 M60.6709,69.1211 L86.6709,69.1211 M73.6709,88.1211 L60.6709,103.1211 M73.6709,88.1211 L86.6709,103.1211" fill="none" style="stroke:#181818;stroke-width:0.5;"/></g><g class="participant participant-tail" data-participant="Admin"><text fill="#000000" font-family="sans-serif" font-size="14" lengthAdjust="spacing" textLength="123.7236" x="8.8091" y="219.9316">Backoffice Operator</text><ellipse cx="73.6709" cy="231.9453" fill="#E2E2F0" rx="8" ry="8" style="stroke:#181818;stroke-width:0.5;"/><path d="M73.6709,239.9453 L73.6709,266.9453 M60.6709,247.9453 L86.6709,247.9453 M73.6709,266.9453 L60.6709,281.9453 M73.6709,266.9453 L86.6709,281.9453" fill="none" style="stroke:#181818;stroke-width:0.5;"/></g><g class="participant participant-head" data-participant="Sys"><rect fill="#E2E2F0" height="32.6211" rx="2.5" ry="2.5" style="stroke:#181818;stroke-width:0.5;" width="60.6758" x="374.7554" y="89.6211"/><text fill="#000000" font-family="sans-serif" font-size="14" lengthAdjust="spacing" textLength="46.6758" x="381.7554" y="111.7285">System</text></g><g class="participant participant-tail" data-participant="Sys"><rect fill="#E2E2F0" height="32.6211" rx="2.5" ry="2.5" style="stroke:#181818;stroke-width:0.5;" width="60.6758" x="374.7554" y="204.8242"/><text fill="#000000" font-family="sans-serif" font-size="14" lengthAdjust="spacing" textLength="46.6758" x="381.7554" y="226.9316">System</text></g><g><title>Backoffice Operator</title><rect fill="#FFFFFF" height="54.582" style="stroke:#181818;stroke-width:1;" width="10" x="68.6709" y="133.2422"/></g><g><title>System</title><rect fill="#FFFFFF" height="31.291" style="stroke:#181818;stroke-width:1;" width="10" x="400.0933" y="156.5332"/></g><g class="message" data-participant-1="Admin" data-participant-2="Sys"><polygon fill="#181818" points="388.0933,152.5332,398.0933,156.5332,388.0933,160.5332,392.0933,156.5332" style="stroke:#181818;stroke-width:1;"/><line style="stroke:#181818;stroke-width:1;" x1="78.6709" x2="394.0933" y1="156.5332" y2="156.5332"/><text fill="#000000" font-family="sans-serif" font-size="13" font-weight="bold" lengthAdjust="spacing" textLength="7.23" x="85.6709" y="151.2705">1</text><text fill="#000000" font-family="sans-serif" font-size="13" lengthAdjust="spacing" textLength="291.1924" x="96.9009" y="151.2705">PATCH /api/airports/{iataCode}/status (newStatus)</text></g><g class="message" data-participant-1="Sys" data-participant-2="Admin"><polygon fill="#181818" points="84.6709,183.8242,74.6709,187.8242,84.6709,191.8242,80.6709,187.8242" style="stroke:#181818;stroke-width:1;"/><line style="stroke:#181818;stroke-width:1;stroke-dasharray:2,2;" x1="78.6709" x2="404.0933" y1="187.8242" y2="187.8242"/><text fill="#000000" font-family="sans-serif" font-size="13" font-weight="bold" lengthAdjust="spacing" textLength="7.23" x="90.6709" y="182.5615">2</text><text fill="#000000" font-family="sans-serif" font-size="13" lengthAdjust="spacing" textLength="201.6396" x="101.9009" y="182.5615">200 OK and updated airport details</text></g><!--SRC=[LSxFJiCm30RmUvxYKq_ZKBNZHWz8enoGE0ofy02cyJQBDWc90qA8TwT_Xe2BPSkVVhQA3epk8ocFwFWri-iPjqB7I2DAF7NR-gf1Uo9tPEm3HrBnZWPqIfgJeQpUvV6Pew5UVKHnG_sBFnoa_ydxM80ITdOKPm95bLu2EKMntbssKsjcGTv8-PnTAihhUOa63xl7zWuL1Qb8Ol1HK_KffDHworzLMXx2nl7x-jl5hpVhCr9EsAeskAnhxEz1pY87EwKipYmiAycGZEL_mfznGRu1]--></g></svg>