<svg xmlns="http://www.w3.org/2000/svg" xmlns:xlink="http://www.w3.org/1999/xlink" contentStyleType="text/css" data-diagram-type="SEQUENCE" height="933px" preserveAspectRatio="none" style="width:1346px;height:933px;background:#FFFFFF;" version="1.1" viewBox="0 0 1346 933" width="1346px" zoomAndPan="magnify"><title>Sequence Diagram (SD) - US105: Update Operational Status</title><defs/><g><text fill="#000000" font-family="sans-serif" font-size="14" font-weight="bold" lengthAdjust="spacing" textLength="412.05" x="468.0376" y="29.9659">Sequence Diagram (SD) - US105: Update Operational Status</text><g><title>ATCC</title><rect fill="#FFFFFF" height="705.4961" style="stroke:#181818;stroke-width:1;" width="10" x="45.2129" y="134.1358"/></g><g><title>.AircraftController</title><rect fill="#FFFFFF" height="664.0841" style="stroke:#181818;stroke-width:1;" width="10" x="388.3704" y="175.5479"/></g><g><title>.AircraftService</title><rect fill="#FFFFFF" height="576.9661" style="stroke:#181818;stroke-width:1;" width="10" x="829.6258" y="262.6659"/></g><g><title>repository</title><rect fill="#FFFFFF" height="31.706" style="stroke:#181818;stroke-width:1;" width="10" x="1179.4246" y="294.3719"/></g><g><title>repository</title><rect fill="#FFFFFF" height="170.512" style="stroke:#181818;stroke-width:1;" width="10" x="1179.4246" y="528.2959"/></g><g><title>aircraft</title><rect fill="#FFFFFF" height="31.706" style="stroke:#181818;stroke-width:1;" width="10" x="1290.9663" y="464.8839"/></g><rect fill="none" height="491.554" style="stroke:#000000;stroke-width:1.5;" width="1329.1252" x="10" y="341.0779"/><rect fill="none" height="282.336" style="stroke:#000000;stroke-width:1.5;" width="1242.8074" x="20" y="543.2959"/><g><title>ATCC</title><rect fill="#000000" fill-opacity="0.00000" height="725.4961" width="8" x="46.2129" y="124.1358"/><line style="stroke:#181818;stroke-width:0.5;stroke-dasharray:5,5;" x1="50" x2="50" y1="124.1358" y2="849.632"/></g><g><title>.AircraftController</title><rect fill="#000000" fill-opacity="0.00000" height="725.4961" width="8" x="389.3704" y="124.1358"/><line style="stroke:#181818;stroke-width:0.5;stroke-dasharray:5,5;" x1="393.1226" x2="393.1226" y1="124.1358" y2="849.632"/></g><g><title>.AircraftService</title><rect fill="#000000" fill-opacity="0.00000" height="725.4961" width="8" x="830.6258" y="124.1358"/><line style="stroke:#181818;stroke-width:0.5;stroke-dasharray:5,5;" x1="834.115" x2="834.115" y1="124.1358" y2="849.632"/></g><g><title>repository</title><rect fill="#000000" fill-opacity="0.00000" height="725.4961" width="8" x="1180.4246" y="124.1358"/><line style="stroke:#181818;stroke-width:0.5;stroke-dasharray:5,5;" x1="1184.0418" x2="1184.0418" y1="124.1358" y2="849.632"/></g><g><title>aircraft</title><rect fill="#000000" fill-opacity="0.00000" height="725.4961" width="8" x="1291.9663" y="124.1358"/><line style="stroke:#181818;stroke-width:0.5;stroke-dasharray:5,5;" x1="1295.8074" x2="1295.8074" y1="124.1358" y2="849.632"/></g><g class="participant participant-head" data-participant="ATCC"><text fill="#000000" font-family="sans-serif" font-size="14" lengthAdjust="spacing" textLength="34.4259" x="30" y="120.0339">ATCC</text><ellipse cx="50.2129" cy="53.5679" fill="#E2E2F0" rx="8" ry="8" style="stroke:#181818;stroke-width:0.5;"/><path d="M50.2129,61.5679 L50.2129,88.5679 M37.2129,69.5679 L63.2129,69.5679 M50.2129,88.5679 L37.2129,103.5679 M50.2129,88.5679 L63.2129,103.5679" fill="none" style="stroke:#181818;stroke-width:0.5;"/></g><g class="participant participant-tail" data-participant="ATCC"><text fill="#000000" font-family="sans-serif" font-size="14" lengthAdjust="spacing" textLength="34.4259" x="30" y="863.5979">ATCC</text><ellipse cx="50.2129" cy="876.1999" fill="#E2E2F0" rx="8" ry="8" style="stroke:#181818;stroke-width:0.5;"/><path d="M50.2129,884.1999 L50.2129,911.1999 M37.2129,892.1999 L63.2129,892.1999 M50.2129,911.1999 L37.2129,926.1999 M50.2129,911.1999 L63.2129,926.1999" fill="none" style="stroke:#181818;stroke-width:0.5;"/></g><g class="participant participant-head" data-participant="Ctrl"><rect fill="#E2E2F0" height="33.0679" rx="2.5" ry="2.5" style="stroke:#181818;stroke-width:0.5;" width="132.4956" x="327.1226" y="90.0679"/><text fill="#000000" font-family="sans-serif" font-size="14" lengthAdjust="spacing" textLength="118.4956" x="334.1226" y="112.0339">:AircraftController</text></g><g class="participant participant-tail" data-participant="Ctrl"><rect fill="#E2E2F0" height="33.0679" rx="2.5" ry="2.5" style="stroke:#181818;stroke-width:0.5;" width="132.4956" x="327.1226" y="848.632"/><text fill="#000000" font-family="sans-serif" font-size="14" lengthAdjust="spacing" textLength="118.4956" x="334.1226" y="870.5979">:AircraftController</text></g><g class="participant participant-head" data-participant="Service"><rect fill="#E2E2F0" height="33.0679" rx="2.5" ry="2.5" style="stroke:#181818;stroke-width:0.5;" width="113.0216" x="778.115" y="90.0679"/><text fill="#000000" font-family="sans-serif" font-size="14" lengthAdjust="spacing" textLength="99.0216" x="785.115" y="112.0339">:AircraftService</text></g><g class="participant participant-tail" data-participant="Service"><rect fill="#E2E2F0" height="33.0679" rx="2.5" ry="2.5" style="stroke:#181818;stroke-width:0.5;" width="113.0216" x="778.115" y="848.632"/><text fill="#000000" font-family="sans-serif" font-size="14" lengthAdjust="spacing" textLength="99.0216" x="785.115" y="870.5979">:AircraftService</text></g><g class="participant participant-head" data-participant="Repo"><rect fill="#E2E2F0" height="52.1358" rx="2.5" ry="2.5" style="stroke:#181818;stroke-width:0.5;" width="136.7655" x="1116.0418" y="71"/><text fill="#000000" font-family="sans-serif" font-size="14" lengthAdjust="spacing" textLength="67.5218" x="1150.6637" y="92.9659">repository</text><text fill="#000000" font-family="sans-serif" font-size="14" lengthAdjust="spacing" textLength="122.7655" x="1123.0418" y="112.0339">:AircraftRepository</text></g><g class="participant participant-tail" data-participant="Repo"><rect fill="#E2E2F0" height="52.1358" rx="2.5" ry="2.5" style="stroke:#181818;stroke-width:0.5;" width="136.7655" x="1116.0418" y="848.632"/><text fill="#000000" font-family="sans-serif" font-size="14" lengthAdjust="spacing" textLength="67.5218" x="1150.6637" y="870.5979">repository</text><text fill="#000000" font-family="sans-serif" font-size="14" lengthAdjust="spacing" textLength="122.7655" x="1123.0418" y="889.6658">:AircraftRepository</text></g><g class="participant participant-head" data-participant="Aircraft"><rect fill="#E2E2F0" height="52.1358" rx="2.5" ry="2.5" style="stroke:#181818;stroke-width:0.5;" width="66.3178" x="1262.8074" y="71"/><text fill="#000000" font-family="sans-serif" font-size="14" lengthAdjust="spacing" textLength="47.4738" x="1272.2294" y="92.9659">aircraft</text><text fill="#000000" font-family="sans-serif" font-size="14" lengthAdjust="spacing" textLength="52.3178" x="1269.8074" y="112.0339">:Aircraft</text></g><g class="participant participant-tail" data-participant="Aircraft"><rect fill="#E2E2F0" height="52.1358" rx="2.5" ry="2.5" style="stroke:#181818;stroke-width:0.5;" width="66.3178" x="1262.8074" y="848.632"/><text fill="#000000" font-family="sans-serif" font-size="14" lengthAdjust="spacing" textLength="47.4738" x="1272.2294" y="870.5979">aircraft</text><text fill="#000000" font-family="sans-serif" font-size="14" lengthAdjust="spacing" textLength="52.3178" x="1269.8074" y="889.6658">:Aircraft</text></g><g><title>ATCC</title><rect fill="#FFFFFF" height="705.4961" style="stroke:#181818;stroke-width:1;" width="10" x="45.2129" y="134.1358"/></g><g><title>.AircraftController</title><rect fill="#FFFFFF" height="664.0841" style="stroke:#181818;stroke-width:1;" width="10" x="388.3704" y="175.5479"/></g><g><title>.AircraftService</title><rect fill="#FFFFFF" height="576.9661" style="stroke:#181818;stroke-width:1;" width="10" x="829.6258" y="262.6659"/></g><g><title>repository</title><rect fill="#FFFFFF" height="31.706" style="stroke:#181818;stroke-width:1;" width="10" x="1179.4246" y="294.3719"/></g><g><title>repository</title><rect fill="#FFFFFF" height="170.512" style="stroke:#181818;stroke-width:1;" width="10" x="1179.4246" y="528.2959"/></g><g><title>aircraft</title><rect fill="#FFFFFF" height="31.706" style="stroke:#181818;stroke-width:1;" width="10" x="1290.9663" y="464.8839"/></g><g class="message" data-participant-1="ATCC" data-participant-2="Ctrl"><polygon fill="#181818" points="376.3704,171.5479,386.3704,175.5479,376.3704,179.5479,380.3704,175.5479" style="stroke:#181818;stroke-width:1;"/><line style="stroke:#181818;stroke-width:1;" x1="55.2129" x2="382.3704" y1="175.5479" y2="175.5479"/><text fill="#000000" font-family="sans-serif" font-size="13" font-weight="bold" lengthAdjust="spacing" textLength="7.8423" x="62.2129" y="160.8859">1</text><text fill="#000000" font-family="sans-serif" font-size="13" lengthAdjust="spacing" textLength="302.3152" x="74.0552" y="152.0328">PATCH /api/aircrafts/{registrationNumber}/status</text><text fill="#000000" font-family="sans-serif" font-size="13" lengthAdjust="spacing" textLength="162.6562" x="74.0552" y="169.7389">(UpdateAircraftStatusDTO)</text></g><path d="M403,188.5479 L403,233.5479 L587,233.5479 L587,198.5479 L577,188.5479 L403,188.5479" fill="#FEFFDD" style="stroke:#181818;stroke-width:0.5;"/><path d="M577,188.5479 L577,198.5479 L587,198.5479 L577,188.5479" fill="#FEFFDD" style="stroke:#181818;stroke-width:0.5;"/><text fill="#000000" font-family="sans-serif" font-size="13" lengthAdjust="spacing" textLength="163.7742" x="409" y="207.4449">DTO validates status Enum</text><text fill="#000000" font-family="sans-serif" font-size="13" lengthAdjust="spacing" textLength="130.7281" x="409" y="225.1509">and version presence</text><g class="message" data-participant-1="Ctrl" data-participant-2="Service"><polygon fill="#181818" points="817.6258,258.6659,827.6258,262.6659,817.6258,266.6659,821.6258,262.6659" style="stroke:#181818;stroke-width:1;"/><line style="stroke:#181818;stroke-width:1;" x1="398.3704" x2="823.6258" y1="262.6659" y2="262.6659"/><text fill="#000000" font-family="sans-serif" font-size="13" font-weight="bold" lengthAdjust="spacing" textLength="7.8423" x="405.3704" y="256.8569">2</text><text fill="#000000" font-family="sans-serif" font-size="13" lengthAdjust="spacing" textLength="400.4132" x="417.2126" y="256.8569">updateAircraftStatus(registrationNumber, dto.status, dto.version)</text></g><g class="message" data-participant-1="Service" data-participant-2="Repo"><polygon fill="#181818" points="1167.4246,290.3719,1177.4246,294.3719,1167.4246,298.3719,1171.4246,294.3719" style="stroke:#181818;stroke-width:1;"/><line style="stroke:#181818;stroke-width:1;" x1="839.6258" x2="1173.4246" y1="294.3719" y2="294.3719"/><text fill="#000000" font-family="sans-serif" font-size="13" font-weight="bold" lengthAdjust="spacing" textLength="7.8423" x="846.6258" y="288.5629">3</text><text fill="#000000" font-family="sans-serif" font-size="13" lengthAdjust="spacing" textLength="181.4802" x="858.4681" y="288.5629">findById(registrationNumber)</text></g><g class="message" data-participant-1="Repo" data-participant-2="Service"><polygon fill="#181818" points="850.6258,322.0779,840.6258,326.0779,850.6258,330.0779,846.6258,326.0779" style="stroke:#181818;stroke-width:1;"/><line style="stroke:#181818;stroke-width:1;stroke-dasharray:2,2;" x1="844.6258" x2="1183.4246" y1="326.0779" y2="326.0779"/><text fill="#000000" font-family="sans-serif" font-size="13" font-weight="bold" lengthAdjust="spacing" textLength="7.8423" x="856.6258" y="320.2689">4</text><text fill="#000000" font-family="sans-serif" font-size="13" lengthAdjust="spacing" textLength="112.7101" x="868.4681" y="320.2689">Optional&lt;Aircraft&gt;</text></g><path d="M10,341.0779 L71.5588,341.0779 L71.5588,350.784 L61.5588,360.784 L10,360.784 L10,341.0779" fill="#EEEEEE" style="stroke:#000000;stroke-width:1.5;"/><rect fill="none" height="491.554" style="stroke:#000000;stroke-width:1.5;" width="1329.1252" x="10" y="341.0779"/><text fill="#000000" font-family="sans-serif" font-size="13" font-weight="bold" lengthAdjust="spacing" textLength="16.5588" x="25" y="355.975">alt</text><text fill="#000000" font-family="sans-serif" font-size="11" font-weight="bold" lengthAdjust="spacing" textLength="109.0148" x="86.5588" y="354.8369">[Aircraft Not Found]</text><g class="message" data-participant-1="Service" data-participant-2="Ctrl"><polygon fill="#181818" points="409.3704,380.49,399.3704,384.49,409.3704,388.49,405.3704,384.49" style="stroke:#181818;stroke-width:1;"/><line style="stroke:#181818;stroke-width:1;stroke-dasharray:2,2;" x1="403.3704" x2="828.6258" y1="384.49" y2="384.49"/><text fill="#000000" font-family="sans-serif" font-size="13" font-weight="bold" lengthAdjust="spacing" textLength="7.8423" x="415.3704" y="378.681">5</text><text fill="#000000" font-family="sans-serif" font-size="13" lengthAdjust="spacing" textLength="223.0022" x="427.2126" y="378.681">throws ResourceNotFoundException</text></g><g class="message" data-participant-1="Ctrl" data-participant-2="ATCC"><polygon fill="#181818" points="66.2129,412.196,56.2129,416.196,66.2129,420.196,62.2129,416.196" style="stroke:#181818;stroke-width:1;"/><line style="stroke:#181818;stroke-width:1;stroke-dasharray:2,2;" x1="60.2129" x2="387.3704" y1="416.196" y2="416.196"/><text fill="#000000" font-family="sans-serif" font-size="13" font-weight="bold" lengthAdjust="spacing" textLength="7.8423" x="72.2129" y="410.387">6</text><text fill="#000000" font-family="sans-serif" font-size="13" lengthAdjust="spacing" textLength="90.1811" x="84.0552" y="410.387">404 Not Found</text></g><line style="stroke:#000000;stroke-width:1;stroke-dasharray:2,2;" x1="10" x2="1339.1252" y1="425.196" y2="425.196"/><text fill="#000000" font-family="sans-serif" font-size="11" font-weight="bold" lengthAdjust="spacing" textLength="86.1377" x="15" y="436.9549">[Aircraft Found]</text><g class="message" data-participant-1="Service" data-participant-2="Aircraft"><polygon fill="#181818" points="1278.9663,460.8839,1288.9663,464.8839,1278.9663,468.8839,1282.9663,464.8839" style="stroke:#181818;stroke-width:1;"/><line style="stroke:#181818;stroke-width:1;" x1="839.6258" x2="1284.9663" y1="464.8839" y2="464.8839"/><text fill="#000000" font-family="sans-serif" font-size="13" font-weight="bold" lengthAdjust="spacing" textLength="7.8423" x="846.6258" y="459.0749">7</text><text fill="#000000" font-family="sans-serif" font-size="13" lengthAdjust="spacing" textLength="150.4232" x="858.4681" y="459.0749">updateStatus(dto.status)</text></g><g class="message" data-participant-1="Aircraft" data-participant-2="Service"><polygon fill="#181818" points="850.6258,492.5899,840.6258,496.5899,850.6258,500.5899,846.6258,496.5899" style="stroke:#181818;stroke-width:1;"/><line style="stroke:#181818;stroke-width:1;stroke-dasharray:2,2;" x1="844.6258" x2="1294.9663" y1="496.5899" y2="496.5899"/><text fill="#000000" font-family="sans-serif" font-size="13" font-weight="bold" lengthAdjust="spacing" textLength="7.8423" x="856.6258" y="490.7809">8</text><text fill="#000000" font-family="sans-serif" font-size="13" lengthAdjust="spacing" textLength="46.527" x="868.4681" y="490.7809">success</text></g><g class="message" data-participant-1="Service" data-participant-2="Repo"><polygon fill="#181818" points="1167.4246,524.2959,1177.4246,528.2959,1167.4246,532.2959,1171.4246,528.2959" style="stroke:#181818;stroke-width:1;"/><line style="stroke:#181818;stroke-width:1;" x1="839.6258" x2="1173.4246" y1="528.2959" y2="528.2959"/><text fill="#000000" font-family="sans-serif" font-size="13" font-weight="bold" lengthAdjust="spacing" textLength="7.8423" x="846.6258" y="522.4869">9</text><text fill="#000000" font-family="sans-serif" font-size="13" lengthAdjust="spacing" textLength="79.3391" x="858.4681" y="522.4869">save(aircraft)</text></g><path d="M20,543.2959 L81.5588,543.2959 L81.5588,553.002 L71.5588,563.002 L20,563.002 L20,543.2959" fill="#EEEEEE" style="stroke:#000000;stroke-width:1.5;"/><rect fill="none" height="282.336" style="stroke:#000000;stroke-width:1.5;" width="1242.8074" x="20" y="543.2959"/><text fill="#000000" font-family="sans-serif" font-size="13" font-weight="bold" lengthAdjust="spacing" textLength="16.5588" x="35" y="558.1929">alt</text><text fill="#000000" font-family="sans-serif" font-size="11" font-weight="bold" lengthAdjust="spacing" textLength="216.9076" x="96.5588" y="557.0548">[Version Mismatch (Optimistic Locking)]</text><g class="message" data-participant-1="Repo" data-participant-2="Service"><polygon fill="#181818" points="850.6258,582.708,840.6258,586.708,850.6258,590.708,846.6258,586.708" style="stroke:#181818;stroke-width:1;"/><line style="stroke:#181818;stroke-width:1;stroke-dasharray:2,2;" x1="844.6258" x2="1178.4246" y1="586.708" y2="586.708"/><text fill="#000000" font-family="sans-serif" font-size="13" font-weight="bold" lengthAdjust="spacing" textLength="15.6845" x="856.6258" y="580.899">10</text><text fill="#000000" font-family="sans-serif" font-size="13" lengthAdjust="spacing" textLength="296.1143" x="876.3103" y="580.899">throws ObjectOptimisticLockingFailureException</text></g><g class="message" data-participant-1="Service" data-participant-2="Ctrl"><polygon fill="#181818" points="409.3704,614.414,399.3704,618.414,409.3704,622.414,405.3704,618.414" style="stroke:#181818;stroke-width:1;"/><line style="stroke:#181818;stroke-width:1;stroke-dasharray:2,2;" x1="403.3704" x2="828.6258" y1="618.414" y2="618.414"/><text fill="#000000" font-family="sans-serif" font-size="13" font-weight="bold" lengthAdjust="spacing" textLength="15.6845" x="415.3704" y="612.605">11</text><text fill="#000000" font-family="sans-serif" font-size="13" lengthAdjust="spacing" textLength="133.1591" x="435.0549" y="612.605">exception propagates</text></g><g class="message" data-participant-1="Ctrl" data-participant-2="ATCC"><polygon fill="#181818" points="66.2129,646.12,56.2129,650.12,66.2129,654.12,62.2129,650.12" style="stroke:#181818;stroke-width:1;"/><line style="stroke:#181818;stroke-width:1;stroke-dasharray:2,2;" x1="60.2129" x2="387.3704" y1="650.12" y2="650.12"/><text fill="#000000" font-family="sans-serif" font-size="13" font-weight="bold" lengthAdjust="spacing" textLength="15.6845" x="72.2129" y="644.311">12</text><text fill="#000000" font-family="sans-serif" font-size="13" lengthAdjust="spacing" textLength="200.5512" x="91.8974" y="644.311">409 Conflict (Precondition Failed)</text></g><line style="stroke:#000000;stroke-width:1;stroke-dasharray:2,2;" x1="20" x2="1262.8074" y1="659.12" y2="659.12"/><text fill="#000000" font-family="sans-serif" font-size="11" font-weight="bold" lengthAdjust="spacing" textLength="68.1858" x="25" y="670.8789">[Version OK]</text><g class="message" data-participant-1="Repo" data-participant-2="Service"><polygon fill="#181818" points="850.6258,694.8079,840.6258,698.8079,850.6258,702.8079,846.6258,698.8079" style="stroke:#181818;stroke-width:1;"/><line style="stroke:#181818;stroke-width:1;stroke-dasharray:2,2;" x1="844.6258" x2="1183.4246" y1="698.8079" y2="698.8079"/><text fill="#000000" font-family="sans-serif" font-size="13" font-weight="bold" lengthAdjust="spacing" textLength="15.6845" x="856.6258" y="692.9989">13</text><text fill="#000000" font-family="sans-serif" font-size="13" lengthAdjust="spacing" textLength="44.083" x="876.3103" y="692.9989">aircraft</text></g><g class="message" data-participant-1="Service" data-participant-2="Ctrl"><polygon fill="#181818" points="409.3704,726.5139,399.3704,730.5139,409.3704,734.5139,405.3704,730.5139" style="stroke:#181818;stroke-width:1;"/><line style="stroke:#181818;stroke-width:1;stroke-dasharray:2,2;" x1="403.3704" x2="828.6258" y1="730.5139" y2="730.5139"/><text fill="#000000" font-family="sans-serif" font-size="13" font-weight="bold" lengthAdjust="spacing" textLength="15.6845" x="415.3704" y="724.7049">14</text><text fill="#000000" font-family="sans-serif" font-size="13" lengthAdjust="spacing" textLength="44.083" x="435.0549" y="724.7049">aircraft</text></g><path d="M403,743.5139 L403,788.5139 L592,788.5139 L592,753.5139 L582,743.5139 L403,743.5139" fill="#FEFFDD" style="stroke:#181818;stroke-width:0.5;"/><path d="M582,743.5139 L582,753.5139 L592,753.5139 L582,743.5139" fill="#FEFFDD" style="stroke:#181818;stroke-width:0.5;"/><text fill="#000000" font-family="sans-serif" font-size="13" lengthAdjust="spacing" textLength="144.6901" x="409" y="762.4109">Controller maps to DTO</text><text fill="#000000" font-family="sans-serif" font-size="13" lengthAdjust="spacing" textLength="168.2202" x="409" y="780.117">and adds HATEOAS self-link</text><g class="message" data-participant-1="Ctrl" data-participant-2="ATCC"><polygon fill="#181818" points="66.2129,813.632,56.2129,817.632,66.2129,821.632,62.2129,817.632" style="stroke:#181818;stroke-width:1;"/><line style="stroke:#181818;stroke-width:1;stroke-dasharray:2,2;" x1="60.2129" x2="387.3704" y1="817.632" y2="817.632"/><text fill="#000000" font-family="sans-serif" font-size="13" font-weight="bold" lengthAdjust="spacing" textLength="15.6845" x="72.2129" y="811.823">15</text><text fill="#000000" font-family="sans-serif" font-size="13" lengthAdjust="spacing" textLength="186.1342" x="91.8974" y="811.823">200 OK (AircraftResponseDTO)</text></g><!--SRC=[VLHDRnen4BtxLunoMgHIQ9KUYYea2aIfscQZGdhYCl4Eu6QnjxQNDghwt-kF_GJIbLXvpRnvC- -DZQLLiZmyacPMs9nWHJzBafnW8N2dyG39QZ608JoitepVJU2XoD0If0Lfj499p65bqPQ6CUHMQRYQhUVpAq03Vi4Ar5PmKQ2qS3MP2SqrRkrSIQjLdfCEaNEhynSYLwIFWbC8gzRzI4s5Ci8nFszaW_hMR0QW_-oZi0hiO6BDrKVeHXnzgw4D_uBXD5GwWNltUGiZBCIeJcH6VpJjXB5HbhiWwT-H2TfiP19rQxeAsujrEcXvWWXCAhVKOhUteBOLdOk38-R2Pp0GKyBIkRQHA3CuaZQE4WfDnZl7c8VvQYl19b1UO4_Ewtq5cLMl8q5SLxaxPTOci6hXURo-4zWAcNry_fHTIDp11o_y2uRT2jCYJjE7kiWfowWFOfZRnY2uKnPkL2ap1kvfYcayidkjVddhZIer9nSUefU_EGMg08j2EOptTmBNu-jENieDjNmNkARDlxN2bRAjYeE0Q6Uf7Y-_swJk2M5ApicO4D5He1tCanAYzWQFbDIpU48QnGjRJi3lrRHy5UQ0bkyXyT8Vd662mnV5duJSnGJ-EJUgqZLz_47Sjj0AUOCYBpNrLRvi4DKnRd1LWJi_t4tucJ7lmTqPsrnm2ycz9gva9WBOCr8MAmwErGscd__J1NQDE96wrUjouTYpmZ-N3crxnS412mDM-NCSJonccO7RsNgPpbPWADyESo6Vs4lTlnsFNJUGjBURAPGq5EwFqBUVLlVhD54VqyvMk62w8xMUp_y1]--></g></svg>