<svg xmlns="http://www.w3.org/2000/svg" xmlns:xlink="http://www.w3.org/1999/xlink" contentStyleType="text/css" data-diagram-type="SEQUENCE" height="374px" preserveAspectRatio="none" style="width:673px;height:374px;background:#FFFFFF;" version="1.1" viewBox="0 0 673 374" width="673px" zoomAndPan="magnify"><defs/><g><g><title>ATCC</title><rect fill="#FFFFFF" height="179.7461" style="stroke:#181818;stroke-width:1;" width="10" x="22.0552" y="93.6211"/></g><g><title>.AirportController</title><rect fill="#FFFFFF" height="156.4551" style="stroke:#181818;stroke-width:1;" width="10" x="247.9858" y="116.9121"/></g><g><title>.AirportService</title><rect fill="#FFFFFF" height="93.873" style="stroke:#181818;stroke-width:1;" width="10" x="473.9165" y="148.2031"/></g><g><title>.AirportRepository</title><rect fill="#FFFFFF" height="31.291" style="stroke:#181818;stroke-width:1;" width="10" x="599.8403" y="179.4941"/></g><g><title>ATCC</title><rect fill="#000000" fill-opacity="0.00000" height="207.7461" width="8" x="23.0552" y="83.6211"/><line style="stroke:#181818;stroke-width:0.5;stroke-dasharray:5,5;" x1="27" x2="27" y1="83.6211" y2="291.3672"/></g><g><title>.AirportController</title><rect fill="#000000" fill-opacity="0.00000" height="207.7461" width="8" x="248.9858" y="83.6211"/><line style="stroke:#181818;stroke-width:0.5;stroke-dasharray:5,5;" x1="252.0791" x2="252.0791" y1="83.6211" y2="291.3672"/></g><g><title>.AirportService</title><rect fill="#000000" fill-opacity="0.00000" height="207.7461" width="8" x="474.9165" y="83.6211"/><line style="stroke:#181818;stroke-width:0.5;stroke-dasharray:5,5;" x1="478.0132" x2="478.0132" y1="83.6211" y2="291.3672"/></g><g><title>.AirportRepository</title><rect fill="#000000" fill-opacity="0.00000" height="207.7461" width="8" x="600.8403" y="83.6211"/><line style="stroke:#181818;stroke-width:0.5;stroke-dasharray:5,5;" x1="604.8198" x2="604.8198" y1="83.6211" y2="291.3672"/></g><g class="participant participant-head" data-participant="ATCC"><text fill="#000000" font-family="sans-serif" font-size="14" lengthAdjust="spacing" textLength="38.1104" x="5" y="80.1074">ATCC</text><ellipse cx="27.0552" cy="13.5" fill="#E2E2F0" rx="8" ry="8" style="stroke:#181818;stroke-width:0.5;"/><path d="M27.0552,21.5 L27.0552,48.5 M14.0552,29.5 L40.0552,29.5 M27.0552,48.5 L14.0552,63.5 M27.0552,48.5 L40.0552,63.5" fill="none" style="stroke:#181818;stroke-width:0.5;"/></g><g class="participant participant-tail" data-participant="ATCC"><text fill="#000000" font-family="sans-serif" font-size="14" lengthAdjust="spacing" textLength="38.1104" x="5" y="305.4746">ATCC</text><ellipse cx="27.0552" cy="317.4883" fill="#E2E2F0" rx="8" ry="8" style="stroke:#181818;stroke-width:0.5;"/><path d="M27.0552,325.4883 L27.0552,352.4883 M14.0552,333.4883 L40.0552,333.4883 M27.0552,352.4883 L14.0552,367.4883 M27.0552,352.4883 L40.0552,367.4883" fill="none" style="stroke:#181818;stroke-width:0.5;"/></g><g class="participant participant-head" data-participant="Controller"><rect fill="#E2E2F0" height="32.6211" rx="2.5" ry="2.5" style="stroke:#181818;stroke-width:0.5;" width="119.8135" x="193.0791" y="50"/><text fill="#000000" font-family="sans-serif" font-size="14" lengthAdjust="spacing" textLength="105.8135" x="200.0791" y="72.1074">:AirportController</text></g><g class="participant participant-tail" data-participant="Controller"><rect fill="#E2E2F0" height="32.6211" rx="2.5" ry="2.5" style="stroke:#181818;stroke-width:0.5;" width="119.8135" x="193.0791" y="290.3672"/><text fill="#000000" font-family="sans-serif" font-size="14" lengthAdjust="spacing" textLength="105.8135" x="200.0791" y="312.4746">:AirportController</text></g><g class="participant participant-head" data-participant="Service"><rect fill="#E2E2F0" height="32.6211" rx="2.5" ry="2.5" style="stroke:#181818;stroke-width:0.5;" width="105.8066" x="426.0132" y="50"/><text fill="#000000" font-family="sans-serif" font-size="14" lengthAdjust="spacing" textLength="91.8066" x="433.0132" y="72.1074">:AirportService</text></g><g class="participant participant-tail" data-participant="Service"><rect fill="#E2E2F0" height="32.6211" rx="2.5" ry="2.5" style="stroke:#181818;stroke-width:0.5;" width="105.8066" x="426.0132" y="290.3672"/><text fill="#000000" font-family="sans-serif" font-size="14" lengthAdjust="spacing" textLength="91.8066" x="433.0132" y="312.4746">:AirportService</text></g><g class="participant participant-head" data-participant="Repository"><rect fill="#E2E2F0" height="32.6211" rx="2.5" ry="2.5" style="stroke:#181818;stroke-width:0.5;" width="126.041" x="541.8198" y="50"/><text fill="#000000" font-family="sans-serif" font-size="14" lengthAdjust="spacing" textLength="112.041" x="548.8198" y="72.1074">:AirportRepository</text></g><g class="participant participant-tail" data-participant="Repository"><rect fill="#E2E2F0" height="32.6211" rx="2.5" ry="2.5" style="stroke:#181818;stroke-width:0.5;" width="126.041" x="541.8198" y="290.3672"/><text fill="#000000" font-family="sans-serif" font-size="14" lengthAdjust="spacing" textLength="112.041" x="548.8198" y="312.4746">:AirportRepository</text></g><g><title>ATCC</title><rect fill="#FFFFFF" height="179.7461" style="stroke:#181818;stroke-width:1;" width="10" x="22.0552" y="93.6211"/></g><g><title>.AirportController</title><rect fill="#FFFFFF" height="156.4551" style="stroke:#181818;stroke-width:1;" width="10" x="247.9858" y="116.9121"/></g><g><title>.AirportService</title><rect fill="#FFFFFF" height="93.873" style="stroke:#181818;stroke-width:1;" width="10" x="473.9165" y="148.2031"/></g><g><title>.AirportRepository</title><rect fill="#FFFFFF" height="31.291" style="stroke:#181818;stroke-width:1;" width="10" x="599.8403" y="179.4941"/></g><g class="message" data-participant-1="ATCC" data-participant-2="Controller"><polygon fill="#181818" points="235.9858,112.9121,245.9858,116.9121,235.9858,120.9121,239.9858,116.9121" style="stroke:#181818;stroke-width:1;"/><line style="stroke:#181818;stroke-width:1;" x1="32.0552" x2="241.9858" y1="116.9121" y2="116.9121"/><text fill="#000000" font-family="sans-serif" font-size="13" font-weight="bold" lengthAdjust="spacing" textLength="7.23" x="39.0552" y="111.6494">1</text><text fill="#000000" font-family="sans-serif" font-size="13" lengthAdjust="spacing" textLength="185.7007" x="50.2852" y="111.6494">getAirportsGroupedBy(groupBy)</text></g><g class="message" data-participant-1="Controller" data-participant-2="Service"><polygon fill="#181818" points="461.9165,144.2031,471.9165,148.2031,461.9165,152.2031,465.9165,148.2031" style="stroke:#181818;stroke-width:1;"/><line style="stroke:#181818;stroke-width:1;" x1="257.9858" x2="467.9165" y1="148.2031" y2="148.2031"/><text fill="#000000" font-family="sans-serif" font-size="13" font-weight="bold" lengthAdjust="spacing" textLength="7.23" x="264.9858" y="142.9404">2</text><text fill="#000000" font-family="sans-serif" font-size="13" lengthAdjust="spacing" textLength="185.7007" x="276.2158" y="142.9404">getAirportsGroupedBy(groupBy)</text></g><g class="message" data-participant-1="Service" data-participant-2="Repository"><polygon fill="#181818" points="587.8403,175.4941,597.8403,179.4941,587.8403,183.4941,591.8403,179.4941" style="stroke:#181818;stroke-width:1;"/><line style="stroke:#181818;stroke-width:1;" x1="483.9165" x2="593.8403" y1="179.4941" y2="179.4941"/><text fill="#000000" font-family="sans-serif" font-size="13" font-weight="bold" lengthAdjust="spacing" textLength="7.23" x="490.9165" y="174.2314">3</text><text fill="#000000" font-family="sans-serif" font-size="13" lengthAdjust="spacing" textLength="44.0654" x="502.1465" y="174.2314">findAll()</text></g><g class="message" data-participant-1="Repository" data-participant-2="Service"><polygon fill="#181818" points="494.9165,206.7852,484.9165,210.7852,494.9165,214.7852,490.9165,210.7852" style="stroke:#181818;stroke-width:1;"/><line style="stroke:#181818;stroke-width:1;stroke-dasharray:2,2;" x1="488.9165" x2="603.8403" y1="210.7852" y2="210.7852"/><text fill="#000000" font-family="sans-serif" font-size="13" font-weight="bold" lengthAdjust="spacing" textLength="7.23" x="500.9165" y="205.5225">4</text><text fill="#000000" font-family="sans-serif" font-size="13" lengthAdjust="spacing" textLength="73.7026" x="512.1465" y="205.5225">List&lt;Airport&gt;</text></g><g class="message" data-participant-1="Service" data-participant-2="Controller"><polygon fill="#181818" points="268.9858,238.0762,258.9858,242.0762,268.9858,246.0762,264.9858,242.0762" style="stroke:#181818;stroke-width:1;"/><line style="stroke:#181818;stroke-width:1;stroke-dasharray:2,2;" x1="262.9858" x2="477.9165" y1="242.0762" y2="242.0762"/><text fill="#000000" font-family="sans-serif" font-size="13" font-weight="bold" lengthAdjust="spacing" textLength="7.23" x="274.9858" y="236.8135">5</text><text fill="#000000" font-family="sans-serif" font-size="13" lengthAdjust="spacing" textLength="155.3589" x="286.2158" y="236.8135">Map&lt;String, List&lt;Airport&gt;&gt;</text></g><g class="message" data-participant-1="Controller" data-participant-2="ATCC"><polygon fill="#181818" points="38.0552,269.3672,28.0552,273.3672,38.0552,277.3672,34.0552,273.3672" style="stroke:#181818;stroke-width:1;"/><line style="stroke:#181818;stroke-width:1;stroke-dasharray:2,2;" x1="32.0552" x2="251.9858" y1="273.3672" y2="273.3672"/><text fill="#000000" font-family="sans-serif" font-size="13" font-weight="bold" lengthAdjust="spacing" textLength="7.23" x="44.0552" y="268.1045">6</text><text fill="#000000" font-family="sans-serif" font-size="13" lengthAdjust="spacing" textLength="81.6436" x="55.2852" y="268.1045">200 OK (Map)</text></g><!--SRC=[ZP71QiCm38RlVWgHKmehb1r3AQGvzD2DmReNS1Cj65BRA4eXRp_7IsjbvB2BaSt_V_ebwu6T7MvN9ALqpOuWAx-gAWFTmrGehubDRRos35bH6lAEk7AMoNKTKXIcwxhyWdGtDKRjNAyBFz6xteGKOzIcQmndxfhnDzLqmFOWEaC1BVBCwK_a1e_DSSpRgJgEcmGGQPNm1zgSxV-enp3guGoG53fmlerjogxBXKSC9QJRHVitq_D-3d1G3QwPKy-_UtZNVdzXChPzMP8Mg6TskOE0Ygiju7MtWuypv06saJQnFV4QF-K7]--></g></svg>